<?xml version="1.0" encoding="UTF-8"?>
<svg version="1.1" xmlns="http://www.w3.org/2000/svg" width="237" height="212">
<path d="M0 0 C78.21 0 156.42 0 237 0 C237 69.96 237 139.92 237 212 C158.79 212 80.58 212 0 212 C0 142.04 0 72.08 0 0 Z " fill="#B23F10" transform="translate(0,0)"/>
<path d="M0 0 C51.15 0 102.3 0 155 0 C152.525 1.98 152.525 1.98 150 4 C145.05534984 8.95229613 141.40121254 14.79682215 137.6875 20.6875 C132.75228677 28.38491757 127.74656057 35.87554666 122 43 C121.28585938 43.89074219 120.57171875 44.78148437 119.8359375 45.69921875 C112.9530001 53.83470482 105.49911746 58.88713026 95.4375 62.375 C85.02618635 66.16989302 78.68568496 73.9812183 72.0078125 82.51953125 C67.78272406 87.73924168 64.02799211 90.17831553 57.921875 92.7578125 C56.72781288 93.27546425 56.72781288 93.27546425 55.5096283 93.80357361 C52.92705116 94.92019304 50.33880836 96.02291387 47.75 97.125 C45.97864531 97.886644 44.20756851 98.64893462 42.43676758 99.41186523 C37.29713681 101.62199761 32.14941519 103.81278401 27 106 C25.61568256 106.58958686 24.23140222 107.17926083 22.84716797 107.76904297 C19.46421128 109.20879362 16.0771125 110.63847744 12.6875 112.0625 C11.71200195 112.47322754 10.73650391 112.88395508 9.73144531 113.30712891 C8.85456055 113.67112793 7.97767578 114.03512695 7.07421875 114.41015625 C5.95406372 114.87627319 5.95406372 114.87627319 4.8112793 115.35180664 C3 116 3 116 1 116 C1 116.66 1 117.32 1 118 C1.58322021 118.27763184 2.16644043 118.55526367 2.76733398 118.84130859 C4.89417646 119.94508053 6.77120863 121.15272739 8.72265625 122.5390625 C9.42003906 123.03277344 10.11742187 123.52648437 10.8359375 124.03515625 C11.57070312 124.55980469 12.30546875 125.08445312 13.0625 125.625 C14.20912109 126.43904297 14.20912109 126.43904297 15.37890625 127.26953125 C19.43707966 130.15549579 23.47859693 133.0629506 27.5 136 C28.76263672 136.91072266 28.76263672 136.91072266 30.05078125 137.83984375 C32.4480023 139.5956891 34.80929428 141.38479566 37.16796875 143.19140625 C38.67401332 144.31572845 40.18052451 145.43942586 41.6875 146.5625 C42.38875 147.11228516 43.09 147.66207031 43.8125 148.22851562 C47.3585188 150.83627521 49.71306866 152.42962154 54.19921875 151.859375 C56.08060547 151.43398438 56.08060547 151.43398438 58 151 C62.86248786 150.57987003 66.7095542 150.39273139 71.1875 152.5 C78.0695505 158.61737822 82.66621685 165.31806701 86.8125 173.5 C87.3187793 174.48379639 87.82505859 175.46759277 88.34667969 176.48120117 C103 205.46978878 103 205.46978878 103 212 C69.01 212 35.02 212 0 212 C0 142.04 0 72.08 0 0 Z " fill="#FEFEFE" transform="translate(0,0)"/>
<path d="M0 0 C25.41 0 50.82 0 77 0 C77 69.96 77 139.92 77 212 C33.11 212 -10.78 212 -56 212 C-53.79377402 209.79377402 -52.34427562 209.28715938 -49.4375 208.25 C-30.33000193 200.76600147 -16.49394522 182.56176543 -4 167 C-2.05132801 164.59873322 -0.08444376 162.28780413 2 160 C2.66 160 3.32 160 4 160 C4.66 158.68 5.32 157.36 6 156 C6.66 156 7.32 156 8 156 C8 155.34 8 154.68 8 154 C14.80890956 148.20963633 22.63573817 143.22249553 31.87109375 143.65625 C44.36387326 145.67343275 53.03203912 154.82547573 61.77636719 163.20483398 C65.94222762 167.16264122 70.34049501 170.63962754 75 174 C74.73896484 173.37770508 74.47792969 172.75541016 74.20898438 172.11425781 C61.48645484 141.75620791 49.45957206 111.21297042 38.98312378 79.99961853 C26.32709109 35.86173669 26.32709109 35.86173669 0 0 Z " fill="#FEFEFE" transform="translate(160,0)"/>
<path d="M0 0 C0.66 0 1.32 0 2 0 C2.26018799 3.97314093 1.62327979 6.23278975 -0.3125 9.6875 C-2.54397575 13.91787516 -4.03514231 17.99477108 -5.30859375 22.59375 C-6.33018266 26.14911028 -7.65975052 29.55364419 -9 33 C-9.66 33 -10.32 33 -11 33 C-11.18175781 33.67546875 -11.36351562 34.3509375 -11.55078125 35.046875 C-11.80214844 35.93890625 -12.05351562 36.8309375 -12.3125 37.75 C-12.55613281 38.63171875 -12.79976562 39.5134375 -13.05078125 40.421875 C-14.02940826 43.0798743 -15.28788515 44.76974513 -17 47 C-17.84261991 49.03790671 -17.84261991 49.03790671 -18.4375 51.1875 C-19.93128485 55.97078977 -21.8864374 60.46174122 -24 65 C-24.66 65 -25.32 65 -26 65 C-26.12955078 66.02673828 -26.12955078 66.02673828 -26.26171875 67.07421875 C-27.17857151 70.70767228 -28.89952688 73.63341122 -30.8125 76.8125 C-33.12368463 80.72452288 -35.35984564 84.61291516 -37.25 88.75 C-39.1471381 92.27325648 -39.67700434 92.36171671 -43 94 C-44.14228658 96.75763432 -44.14228658 96.75763432 -45 100 C-47.52572146 106.76286073 -47.52572146 106.76286073 -50 108 C-50.72159424 109.64363134 -51.39351421 111.31050386 -52 113 C-52.66 113 -53.32 113 -54 113 C-54.20625 113.66 -54.4125 114.32 -54.625 115 C-56.78579861 119.71446969 -59.92684443 123.93190091 -63.6015625 127.59765625 C-65.50363726 129.50504407 -66.64750689 131.67371186 -68 134 C-69.32458708 136.00580329 -70.6559907 138.00715862 -72 140 C-73.175625 139.2575 -73.175625 139.2575 -74.375 138.5 C-80.19943215 136.08989014 -85.71737607 136.49534619 -91.81640625 137.84375 C-96.22162831 138.40370083 -98.49388489 136.94620016 -101.984375 134.38085938 C-102.67015625 133.84267578 -103.3559375 133.30449219 -104.0625 132.75 C-105.16658203 131.92725586 -105.16658203 131.92725586 -106.29296875 131.08789062 C-107.81037478 129.95505056 -109.32099218 128.81306085 -110.82470703 127.66210938 C-113.4181909 125.68046648 -116.04658709 123.7506897 -118.68310547 121.8269043 C-119.89190788 120.94409845 -121.09798546 120.05754912 -122.30126953 119.16723633 C-125.73620854 116.62842821 -129.20456715 114.14864501 -132.71484375 111.71484375 C-133.50117188 111.16828125 -134.2875 110.62171875 -135.09765625 110.05859375 C-136.63400423 108.99417904 -138.17426692 107.9353883 -139.71875 106.8828125 C-140.75322266 106.16544922 -140.75322266 106.16544922 -141.80859375 105.43359375 C-142.42532959 105.01134521 -143.04206543 104.58909668 -143.67749023 104.15405273 C-144.11391846 103.77321533 -144.55034668 103.39237793 -145 103 C-145 102.34 -145 101.68 -145 101 C-144.09685059 100.61368408 -143.19370117 100.22736816 -142.26318359 99.8293457 C-138.75890482 98.33017466 -135.25498638 96.83016303 -131.75119019 95.3298645 C-130.170305 94.65300939 -128.5893523 93.97631196 -127.0083313 93.29977417 C-118.35016861 89.59435573 -109.6975003 85.87747739 -101.06640625 82.109375 C-100.37192383 81.80658127 -99.67744141 81.50378754 -98.96191406 81.19181824 C-95.66259086 79.75314106 -92.36491502 78.31089346 -89.06982422 76.86254883 C-87.90080566 76.35232178 -86.73178711 75.84209473 -85.52734375 75.31640625 C-84.50374756 74.86724854 -83.48015137 74.41809082 -82.42553711 73.95532227 C-80 73 -80 73 -78 73 C-77.76539062 72.45859375 -77.53078125 71.9171875 -77.2890625 71.359375 C-75.6416356 68.34408456 -73.57346656 65.88815988 -71.375 63.25 C-70.55773437 62.26515625 -69.74046875 61.2803125 -68.8984375 60.265625 C-68.27195312 59.51796875 -67.64546875 58.7703125 -67 58 C-66.67 58.66 -66.34 59.32 -66 60 C-63.47266765 60.65555119 -63.47266765 60.65555119 -61 61 C-60.70493179 66.01615953 -60.86236639 68.99681229 -64 73 C-66.6875 75.3125 -66.6875 75.3125 -69 77 C-67.8135662 80.55930139 -66.96844683 80.93504182 -63.875 82.875 C-60.91851161 84.75384603 -58.08490521 86.67272416 -55.3125 88.8125 C-51.96972253 91.01999456 -49.99295826 92 -46 92 C-43.6391563 90.48231477 -43.06778718 89.17624667 -42.0625 86.5625 C-41 84 -41 84 -39.125 82.25 C-36.64992746 79.62933496 -35.64131882 77.24457829 -34.2578125 73.94921875 C-32.63069364 70.1340798 -30.88632028 66.37973978 -29.125 62.625 C-28.77759766 61.8834668 -28.43019531 61.14193359 -28.07226562 60.37792969 C-26.0930578 56.19284499 -24.01451002 52.10298362 -21.75 48.0625 C-19.02660017 43.18982246 -16.96548587 38.21641608 -15 33 C-13.6824069 29.66030485 -12.34104159 26.33033576 -11 23 C-10.61972656 22.03964844 -10.23945313 21.07929687 -9.84765625 20.08984375 C-7.02610954 13.10358593 -3.74452424 6.53683269 0 0 Z " fill="#6E86AD" transform="translate(146,15)"/>
<path d="M0 0 C0 0.66 0 1.32 0 2 C0.99 2 1.98 2 3 2 C3.30099074 7.11684258 2.88385917 9.78512891 0 14 C-0.69822617 15.65369357 -1.37498605 17.31727014 -2 19 C-2.66 19 -3.32 19 -4 19 C-4 22.3 -4 25.6 -4 29 C-4.66 29 -5.32 29 -6 29 C-6.07347656 29.92232422 -6.07347656 29.92232422 -6.1484375 30.86328125 C-6.22320312 31.67152344 -6.29796875 32.47976562 -6.375 33.3125 C-6.44460937 34.11300781 -6.51421875 34.91351563 -6.5859375 35.73828125 C-7 38 -7 38 -9 41 C-9.41743365 43.24645876 -9.41743365 43.24645876 -9.5625 45.625 C-9.90158172 49.90158172 -9.90158172 49.90158172 -11 51 C-11.020625 52.051875 -11.04125 53.10375 -11.0625 54.1875 C-12.25037234 59.01818086 -14.13783489 60.18655311 -18.08984375 62.93359375 C-20 64 -20 64 -22 64 C-22.020625 65.11375 -22.04125 66.2275 -22.0625 67.375 C-22.65189214 72.47097508 -25.32329258 75.73571259 -28.40625 79.703125 C-29.95117999 81.92964176 -30.36617458 83.43104385 -31 86 C-31.845625 86.45375 -32.69125 86.9075 -33.5625 87.375 C-34.366875 87.91125 -35.17125 88.4475 -36 89 C-36.41746608 92.12635209 -36.41746608 92.12635209 -36 95 C-36.99 95.495 -36.99 95.495 -38 96 C-38.309375 96.639375 -38.61875 97.27875 -38.9375 97.9375 C-40 100 -40 100 -43 102 C-44.17082878 104.92914165 -44.17082878 104.92914165 -45 108 C-45.495 109.485 -45.495 109.485 -46 111 C-46 111.99 -46 112.98 -46 114 C-47.64429829 115.68873879 -49.31384218 117.35305515 -51 119 C-51.495 119.845625 -51.99 120.69125 -52.5 121.5625 C-54 124 -54 124 -56.625 125.875 C-59.79139424 128.70808959 -59.46845487 130.899509 -60 135 C-61.9375 136.1875 -61.9375 136.1875 -64 137 C-65.06716704 138.79932579 -65.06716704 138.79932579 -66 141 C-68.01584367 144.26705698 -69.83499433 146.8503437 -72.6875 149.4375 C-75.54635982 152.60542575 -75.75360066 154.81121126 -76 159 C-73.69 159 -71.38 159 -69 159 C-69 162.38023517 -69.87455622 164.83468937 -71 168 C-74.26441012 164.96876203 -76.55393713 161.70854694 -79 158 C-79.598125 157.484375 -80.19625 156.96875 -80.8125 156.4375 C-82 155 -82 155 -81.9375 152.5625 C-80.82228497 149.51424559 -79.34768986 148.20959045 -77 146 C-75.9935725 144.33720673 -74.99414593 142.67016516 -74 141 C-72.78309375 139.55892681 -71.56533977 138.11846717 -70.33203125 136.69140625 C-68.32073451 134.13747227 -66.73139928 131.35363914 -65.11328125 128.5390625 C-64.74589844 128.03117188 -64.37851563 127.52328125 -64 127 C-63.34 127 -62.68 127 -62 127 C-61.34 125.02 -60.68 123.04 -60 121 C-59.34 121 -58.68 121 -58 121 C-57.9175 120.34 -57.835 119.68 -57.75 119 C-56.05917955 112.23671819 -52.96743538 107.8367134 -48 103 C-47.28752268 101.3523962 -46.62599617 99.68236471 -46 98 C-44.81609414 95.98565658 -43.56096501 94.02459011 -42.3046875 92.0546875 C-38.23995951 85.91867934 -38.23995951 85.91867934 -36 79 C-35.34 79 -34.68 79 -34 79 C-33.87496094 78.42894531 -33.74992187 77.85789062 -33.62109375 77.26953125 C-32.97868212 74.92210259 -32.09812424 72.88771301 -31.0625 70.6875 C-29.75916743 67.83616593 -28.6681435 65.09548073 -27.875 62.0625 C-27 59 -27 59 -25 57 C-24.24223736 55.31301018 -23.53888218 53.60109367 -22.875 51.875 C-22.34519531 50.50988281 -22.34519531 50.50988281 -21.8046875 49.1171875 C-21.53914063 48.41851562 -21.27359375 47.71984375 -21 47 C-20.34 47 -19.68 47 -19 47 C-18.76216797 45.78376953 -18.76216797 45.78376953 -18.51953125 44.54296875 C-17.09227189 37.76940085 -15.23113575 31.81164183 -12.20703125 25.58984375 C-10.4508523 21.82173164 -9.23530887 17.96599163 -8 14 C-14.24873674 19.80744178 -16.8381611 29.2646143 -20 37 C-25.90157863 51.33518769 -32.0613125 65.43363088 -39.10839844 79.24462891 C-40.34235523 81.67402357 -41.54476512 84.11875689 -42.75 86.5625 C-44.69667764 90.46245418 -46.79371981 94.24115227 -49 98 C-49.66 98 -50.32 98 -51 98 C-51.268125 98.928125 -51.53625 99.85625 -51.8125 100.8125 C-52.91148371 103.76240366 -53.62418561 105.05615186 -56 107 C-61.330058 105.75023989 -65.25711699 103.81565194 -69.6875 100.5625 C-70.51991211 99.96985352 -70.51991211 99.96985352 -71.36914062 99.36523438 C-74.27808297 97.28643015 -77.14895876 95.15735724 -80 93 C-78.96905133 90.42262834 -78.4891374 89.23715753 -75.9375 88 C-73.79292765 87.17855623 -73.79292765 87.17855623 -73.3125 84.9375 C-73.209375 84.298125 -73.10625 83.65875 -73 83 C-72.505 82.505 -72.505 82.505 -72 82 C-71.63239269 79.67182036 -71.29758419 77.3381615 -71 75 C-72.65 74.67 -74.3 74.34 -76 74 C-75.23505582 69.50840468 -73.09104991 67.65329355 -69.69921875 64.78515625 C-66.52617352 62.68662996 -63.23498403 61.36836606 -59.6875 60.0625 C-39.41910544 52.51167694 -28.53657441 34.29954668 -17.328125 16.85546875 C-6.44935343 0 -6.44935343 0 0 0 Z " fill="#442B38" transform="translate(156,1)"/>
<path d="M0 0 C5.94 0 11.88 0 18 0 C16.68 0.66 15.36 1.32 14 2 C12.32580562 2.9873454 10.65948148 3.98812105 9 5 C6.0495492 6.79905536 3.11431444 8.50051527 0 10 C0 10.66 0 11.32 0 12 C-1.6254039 13.34873941 -3.25124464 14.69695482 -4.87890625 16.04296875 C-8.18883265 19.09687874 -10.86813036 22.6146889 -13.671875 26.12890625 C-16.61551849 29.75907062 -19.73127735 33.20703824 -22.87890625 36.66015625 C-24.80786335 38.78804815 -26.69036353 40.94720859 -28.5625 43.125 C-38.8762082 54.88168113 -49.79927815 63.72159644 -65 68 C-66.83706934 63.80250795 -68.67003892 59.60325865 -70.49926758 55.40234375 C-71.12184688 53.97412124 -71.74553468 52.54638139 -72.37036133 51.11914062 C-73.26937537 49.06506877 -74.16436085 47.00928201 -75.05859375 44.953125 C-75.47739052 43.99977264 -75.47739052 43.99977264 -75.90464783 43.02716064 C-77.19341773 40.05370936 -78.35704787 37.18348192 -79 34 C-77.68 34 -76.36 34 -75 34 C-75 33.34 -75 32.68 -75 32 C-71.04 32 -67.08 32 -63 32 C-63 32.33 -63 32.66 -63 33 C-60.03 33.33 -57.06 33.66 -54 34 C-54 34.66 -54 35.32 -54 36 C-52.02 36.33 -50.04 36.66 -48 37 C-48 37.99 -48 38.98 -48 40 C-43.05 40 -38.1 40 -33 40 C-32.67 37.36 -32.34 34.72 -32 32 C-29.36 32 -26.72 32 -24 32 C-24 29.36 -24 26.72 -24 24 C-21.69 24 -19.38 24 -17 24 C-15.64560332 21.29120665 -15.93498549 18.99066732 -16 16 C-13.36 16 -10.72 16 -8 16 C-8 13.69 -8 11.38 -8 9 C-5.29120665 7.64560332 -2.99066732 7.93498549 0 8 C0 5.36 0 2.72 0 0 Z " fill="#FC910F" transform="translate(168,144)"/>
<path d="M0 0 C0.99 0 1.98 0 3 0 C2.67 1.32 2.34 2.64 2 4 C1.34 4 0.68 4 0 4 C0 7.3 0 10.6 0 14 C-0.66 14 -1.32 14 -2 14 C-2.04898438 14.61488281 -2.09796875 15.22976562 -2.1484375 15.86328125 C-2.22320312 16.67152344 -2.29796875 17.47976562 -2.375 18.3125 C-2.44460937 19.11300781 -2.51421875 19.91351563 -2.5859375 20.73828125 C-3 23 -3 23 -5 26 C-5.41743365 28.24645876 -5.41743365 28.24645876 -5.5625 30.625 C-5.90158172 34.90158172 -5.90158172 34.90158172 -7 36 C-7.020625 37.051875 -7.04125 38.10375 -7.0625 39.1875 C-8.25037234 44.01818086 -10.13783489 45.18655311 -14.08984375 47.93359375 C-16 49 -16 49 -18 49 C-18.020625 50.11375 -18.04125 51.2275 -18.0625 52.375 C-18.65189214 57.47097508 -21.32329258 60.73571259 -24.40625 64.703125 C-25.95117999 66.92964176 -26.36617458 68.43104385 -27 71 C-27.845625 71.45375 -28.69125 71.9075 -29.5625 72.375 C-30.366875 72.91125 -31.17125 73.4475 -32 74 C-32.41746608 77.12635209 -32.41746608 77.12635209 -32 80 C-32.99 80.495 -32.99 80.495 -34 81 C-34.309375 81.639375 -34.61875 82.27875 -34.9375 82.9375 C-36 85 -36 85 -39 87 C-40.17082878 89.92914165 -40.17082878 89.92914165 -41 93 C-41.495 94.485 -41.495 94.485 -42 96 C-42 96.99 -42 97.98 -42 99 C-43.64429829 100.68873879 -45.31384218 102.35305515 -47 104 C-47.495 104.845625 -47.99 105.69125 -48.5 106.5625 C-50 109 -50 109 -52.625 110.875 C-55.79139424 113.70808959 -55.46845487 115.899509 -56 120 C-57.9375 121.1875 -57.9375 121.1875 -60 122 C-61.06716704 123.79932579 -61.06716704 123.79932579 -62 126 C-64.01584367 129.26705698 -65.83499433 131.8503437 -68.6875 134.4375 C-71.54635982 137.60542575 -71.75360066 139.81121126 -72 144 C-69.69 144 -67.38 144 -65 144 C-65 147.38023517 -65.87455622 149.83468937 -67 153 C-70.26441012 149.96876203 -72.55393713 146.70854694 -75 143 C-75.598125 142.484375 -76.19625 141.96875 -76.8125 141.4375 C-78 140 -78 140 -77.9375 137.5625 C-76.82228497 134.51424559 -75.34768986 133.20959045 -73 131 C-71.9935725 129.33720673 -70.99414593 127.67016516 -70 126 C-68.78309375 124.55892681 -67.56533977 123.11846717 -66.33203125 121.69140625 C-64.32073451 119.13747227 -62.73139928 116.35363914 -61.11328125 113.5390625 C-60.74589844 113.03117187 -60.37851563 112.52328125 -60 112 C-59.34 112 -58.68 112 -58 112 C-57.34 110.02 -56.68 108.04 -56 106 C-55.34 106 -54.68 106 -54 106 C-53.9175 105.34 -53.835 104.68 -53.75 104 C-52.05917955 97.23671819 -48.96743538 92.8367134 -44 88 C-43.28752268 86.3523962 -42.62599617 84.68236471 -42 83 C-40.81609414 80.98565658 -39.56096501 79.02459011 -38.3046875 77.0546875 C-34.23995951 70.91867934 -34.23995951 70.91867934 -32 64 C-31.34 64 -30.68 64 -30 64 C-29.81244141 63.14341797 -29.81244141 63.14341797 -29.62109375 62.26953125 C-28.97868212 59.92210259 -28.09812424 57.88771301 -27.0625 55.6875 C-25.75916743 52.83616593 -24.6681435 50.09548073 -23.875 47.0625 C-23 44 -23 44 -21 42 C-20.24223736 40.31301018 -19.53888218 38.60109367 -18.875 36.875 C-18.34519531 35.50988281 -18.34519531 35.50988281 -17.8046875 34.1171875 C-17.53914063 33.41851562 -17.27359375 32.71984375 -17 32 C-16.34 32 -15.68 32 -15 32 C-14.34 29.36 -13.68 26.72 -13 24 C-12.34 24 -11.68 24 -11 24 C-11 22.68 -11 21.36 -11 20 C-10.34 20 -9.68 20 -9 20 C-9 18.68 -9 17.36 -9 16 C-7.68 16 -6.36 16 -5 16 C-4.814375 15.071875 -4.814375 15.071875 -4.625 14.125 C-4 12 -4 12 -2 10 C-1.32059533 7.57284794 -1.32059533 7.57284794 -0.875 4.875 C-0.70742187 3.96492188 -0.53984375 3.05484375 -0.3671875 2.1171875 C-0.18542969 1.06917969 -0.18542969 1.06917969 0 0 Z " fill="#471F26" transform="translate(152,16)"/>
<path d="M0 0 C0.66 0 1.32 0 2 0 C2.26018799 3.97314093 1.62327979 6.23278975 -0.3125 9.6875 C-2.54397575 13.91787516 -4.03514231 17.99477108 -5.30859375 22.59375 C-6.33018266 26.14911028 -7.65975052 29.55364419 -9 33 C-9.66 33 -10.32 33 -11 33 C-11.18175781 33.67546875 -11.36351562 34.3509375 -11.55078125 35.046875 C-11.80214844 35.93890625 -12.05351562 36.8309375 -12.3125 37.75 C-12.55613281 38.63171875 -12.79976563 39.5134375 -13.05078125 40.421875 C-14.02940826 43.0798743 -15.28788515 44.76974513 -17 47 C-17.84261991 49.03790671 -17.84261991 49.03790671 -18.4375 51.1875 C-19.93128485 55.97078977 -21.8864374 60.46174122 -24 65 C-24.66 65 -25.32 65 -26 65 C-26.08636719 65.68449219 -26.17273438 66.36898437 -26.26171875 67.07421875 C-27.17857151 70.70767228 -28.89952688 73.63341122 -30.8125 76.8125 C-33.12368463 80.72452288 -35.35984564 84.61291516 -37.25 88.75 C-39.1471381 92.27325648 -39.67700434 92.36171671 -43 94 C-44.14228658 96.75763432 -44.14228658 96.75763432 -45 100 C-47.52572146 106.76286073 -47.52572146 106.76286073 -50 108 C-50.72159424 109.64363134 -51.39351421 111.31050386 -52 113 C-52.66 113 -53.32 113 -54 113 C-54.20625 113.66 -54.4125 114.32 -54.625 115 C-56.78579861 119.71446969 -59.92684443 123.93190091 -63.6015625 127.59765625 C-65.50363726 129.50504407 -66.64750689 131.67371186 -68 134 C-69.32458708 136.00580329 -70.6559907 138.00715862 -72 140 C-72.78375 139.525625 -73.5675 139.05125 -74.375 138.5625 C-78.92189258 136.60263251 -83.09893144 136.28089128 -88 136 C-84.07407605 132.8339323 -80.0891279 129.75088469 -76.0859375 126.68359375 C-74.00111724 125.0730939 -74.00111724 125.0730939 -72.3515625 123.28515625 C-71 122 -71 122 -69 122 C-68.773125 121.443125 -68.54625 120.88625 -68.3125 120.3125 C-66.99257001 117.98690907 -65.46840304 116.44557985 -63.5546875 114.60546875 C-58.19265722 109.06829678 -52.030564 102.17067874 -49 95 C-49.33 94.01 -49.66 93.02 -50 92 C-49.236875 91.938125 -48.47375 91.87625 -47.6875 91.8125 C-44.84148366 91.25799407 -44.84148366 91.25799407 -43.5 88.8125 C-43.005 87.884375 -42.51 86.95625 -42 86 C-40.7934375 84.63875 -40.7934375 84.63875 -39.5625 83.25 C-37.09058316 80.33196799 -35.69082931 77.39182237 -34.22265625 73.87890625 C-32.6115307 70.08529754 -30.87542303 66.35602526 -29.125 62.625 C-28.77751709 61.88330566 -28.43003418 61.14161133 -28.07202148 60.37744141 C-26.0929122 56.1925123 -24.01442033 52.10282359 -21.75 48.0625 C-19.02660017 43.18982246 -16.96548587 38.21641608 -15 33 C-13.6824069 29.66030485 -12.34104159 26.33033576 -11 23 C-10.61972656 22.03964844 -10.23945313 21.07929687 -9.84765625 20.08984375 C-7.02610954 13.10358593 -3.74452424 6.53683269 0 0 Z " fill="#455E7F" transform="translate(146,15)"/>
<path d="M0 0 C0 0.66 0 1.32 0 2 C0.99 2 1.98 2 3 2 C3.34203764 6.27547053 3.21269922 8.59660493 1.1875 12.4375 C0.465625 13.283125 -0.25625 14.12875 -1 15 C-1.99 15 -2.98 15 -4 15 C-4.03738281 15.68707031 -4.07476562 16.37414062 -4.11328125 17.08203125 C-4.17902344 17.98308594 -4.24476563 18.88414063 -4.3125 19.8125 C-4.39951172 21.15248047 -4.39951172 21.15248047 -4.48828125 22.51953125 C-5.07602125 25.36849996 -5.88636928 26.1037092 -8 28 C-8.33 28.99 -8.66 29.98 -9 31 C-10.32 31 -11.64 31 -13 31 C-13 32.32 -13 33.64 -13 35 C-13.66 35 -14.32 35 -15 35 C-15.33 36.32 -15.66 37.64 -16 39 C-16.27189586 34.91421354 -15.49585743 32.39872118 -13.6875 28.75 C-11.37453248 23.90722425 -9.59512884 19.12120312 -8 14 C-14.24955403 19.80820134 -16.83628644 29.26433452 -20 37 C-23.59856524 45.69653265 -27.2787372 54.35541699 -31 63 C-32.09658936 59.71023192 -31.79953138 58.28696233 -31 55 C-32.98 55.495 -32.98 55.495 -35 56 C-37.23991854 53.04330753 -37.9930364 51.37603435 -38.0625 47.625 C-37.05524452 44.1884813 -36.55028531 43.22767982 -34.26171875 40.7421875 C-31.10431205 37.18121666 -28.40808379 33.44187334 -25.75 29.5 C-25.28110352 28.81437988 -24.81220703 28.12875977 -24.32910156 27.42236328 C-21.94356077 23.92255545 -19.60160402 20.39957952 -17.3125 16.8359375 C-6.45740095 0 -6.45740095 0 0 0 Z " fill="#432E3C" transform="translate(156,1)"/>
<path d="M0 0 C0 0.99 0 1.98 0 3 C1.65 3 3.3 3 5 3 C5 3.99 5 4.98 5 6 C5.99 6.33 6.98 6.66 8 7 C8.33 7.99 8.66 8.98 9 10 C9.33 9.34 9.66 8.68 10 8 C10.66 8 11.32 8 12 8 C12.33 9.32 12.66 10.64 13 12 C6.40568861 16.84581973 -0.36934518 20.08201694 -8 23 C-11.27733036 19.23863316 -12.86068073 14.88526891 -14.6875 10.3125 C-15.00783203 9.52810547 -15.32816406 8.74371094 -15.65820312 7.93554688 C-18 2.15844883 -18 2.15844883 -18 1 C-11.97403427 -0.0712828 -6.11090483 -0.09945415 0 0 Z " fill="#FDDB12" transform="translate(112,189)"/>
<path d="M0 0 C1.32 0.33 2.64 0.66 4 1 C4.33 2.65 4.66 4.3 5 6 C5.66 6 6.32 6 7 6 C7.12117187 6.7734375 7.24234375 7.546875 7.3671875 8.34375 C8.44846282 15.11192424 8.44846282 15.11192424 10.125 21.75 C11.89341054 28.21575103 11.14505263 35.35981296 11 42 C10.01 42.495 10.01 42.495 9 43 C8.67 40.03 8.34 37.06 8 34 C7.01 34 6.02 34 5 34 C3.68 34 2.36 34 1 34 C1.04125 35.2375 1.0825 36.475 1.125 37.75 C1.2374558 41.12367395 0.56944853 43.03488271 -1 46 C-2.00041883 38.50086042 -2.1833251 31.12323651 -2.1875 23.5625 C-2.19974609 22.39912109 -2.21199219 21.23574219 -2.22460938 20.03710938 C-2.23630328 13.11041884 -1.69370147 6.72394684 0 0 Z " fill="#FEB410" transform="translate(159,14)"/>
<path d="M0 0 C5.94 0 11.88 0 18 0 C16.02 0.99 16.02 0.99 14 2 C12.32580562 2.9873454 10.65948148 3.98812105 9 5 C6.0495492 6.79905536 3.11431444 8.50051527 0 10 C0 10.66 0 11.32 0 12 C-1.6254039 13.34873941 -3.25124464 14.69695482 -4.87890625 16.04296875 C-8.18753637 19.09568273 -10.86591328 22.61169025 -13.66796875 26.125 C-16.62360852 29.76880381 -19.75612285 33.22711913 -22.9140625 36.6953125 C-25.67366097 39.74430706 -28.34071334 42.86340547 -31 46 C-31.33 45.34 -31.66 44.68 -32 44 C-33.98 44.495 -33.98 44.495 -36 45 C-36.33 44.34 -36.66 43.68 -37 43 C-37.99 43.495 -37.99 43.495 -39 44 C-39.33 42.68 -39.66 41.36 -40 40 C-37.69 40 -35.38 40 -33 40 C-32.67 37.36 -32.34 34.72 -32 32 C-29.36 32 -26.72 32 -24 32 C-24 29.36 -24 26.72 -24 24 C-21.69 24 -19.38 24 -17 24 C-15.64560332 21.29120665 -15.93498549 18.99066732 -16 16 C-13.36 16 -10.72 16 -8 16 C-8 13.69 -8 11.38 -8 9 C-5.29120665 7.64560332 -2.99066732 7.93498549 0 8 C0 5.36 0 2.72 0 0 Z " fill="#D55D15" transform="translate(168,144)"/>
<path d="M0 0 C3.31728477 2.68094054 4.54609232 6.2282624 6.06640625 10.08203125 C6.34596664 10.7738298 6.62552704 11.46562836 6.91355896 12.1783905 C7.803733 14.38694699 8.68300308 16.59967323 9.5625 18.8125 C10.15754018 20.28998071 10.75323647 21.76719736 11.34960938 23.24414062 C11.92246225 24.66903488 12.49474639 26.09415795 13.06640625 27.51953125 C13.33103165 28.17911331 13.59565704 28.83869537 13.86830139 29.51826477 C15.37377967 33.30864348 16.7483333 37.11852357 18 41 C13.05116603 38.00465312 8.93175957 34.35645226 4.67578125 30.44921875 C2.85828637 28.78561394 1.02146038 27.14293427 -0.83203125 25.51953125 C-1.73308594 24.72933594 -2.63414062 23.93914062 -3.5625 23.125 C-4.38878906 22.40570313 -5.21507812 21.68640625 -6.06640625 20.9453125 C-8 19 -8 19 -9 16 C-7.68 16 -6.36 16 -5 16 C-5 16.66 -5 17.32 -5 18 C-3.68 18 -2.36 18 -1 18 C-1.0721875 17.27554688 -1.144375 16.55109375 -1.21875 15.8046875 C-1.69407922 10.85334145 -2.13461998 5.98093926 -2 1 C-1.34 0.67 -0.68 0.34 0 0 Z " fill="#AF2A15" transform="translate(218,134)"/>
<path d="M0 0 C0.99 0 1.98 0 3 0 C2.67 1.32 2.34 2.64 2 4 C1.34 4 0.68 4 0 4 C0 7.3 0 10.6 0 14 C-0.66 14 -1.32 14 -2 14 C-2.04898438 14.61488281 -2.09796875 15.22976562 -2.1484375 15.86328125 C-2.22320312 16.67152344 -2.29796875 17.47976562 -2.375 18.3125 C-2.44460937 19.11300781 -2.51421875 19.91351563 -2.5859375 20.73828125 C-3 23 -3 23 -5 26 C-5.41743365 28.24645876 -5.41743365 28.24645876 -5.5625 30.625 C-5.90158172 34.90158172 -5.90158172 34.90158172 -7 36 C-7.020625 37.051875 -7.04125 38.10375 -7.0625 39.1875 C-8.25037234 44.01818086 -10.13783489 45.18655311 -14.08984375 47.93359375 C-16 49 -16 49 -18 49 C-18.061875 50.175625 -18.12375 51.35125 -18.1875 52.5625 C-18.77693154 57.49788949 -20.85244407 60.22293288 -24 64 C-24.33 64 -24.66 64 -25 64 C-24.67 60.7 -24.34 57.4 -24 54 C-23.34 54 -22.68 54 -22 54 C-22 51.03 -22 48.06 -22 45 C-20.515 44.505 -20.515 44.505 -19 44 C-18.26676204 41.98491642 -18.26676204 41.98491642 -18 40 C-17.34 40 -16.68 40 -16 40 C-15.87625 39.46375 -15.7525 38.9275 -15.625 38.375 C-14.87394317 35.52098405 -14.04340771 32.76196159 -13 30 C-12.34 29.67 -11.68 29.34 -11 29 C-8.83215959 24.79183921 -8.47232999 20.64457826 -8 16 C-7.01 16 -6.02 16 -5 16 C-4.87625 15.38125 -4.7525 14.7625 -4.625 14.125 C-4 12 -4 12 -2 10 C-1.32059533 7.57284794 -1.32059533 7.57284794 -0.875 4.875 C-0.70742187 3.96492188 -0.53984375 3.05484375 -0.3671875 2.1171875 C-0.24601562 1.41851563 -0.12484375 0.71984375 0 0 Z " fill="#6A180F" transform="translate(152,16)"/>
<path d="M0 0 C0.8353125 0.556875 0.8353125 0.556875 1.6875 1.125 C4.037112 2.31185816 4.037112 2.31185816 6.5 1 C7.325 0.67 8.15 0.34 9 0 C11.15625 0.9375 11.15625 0.9375 13 2 C12.91621094 2.62648438 12.83242187 3.25296875 12.74609375 3.8984375 C12.64425781 4.71570313 12.54242188 5.53296875 12.4375 6.375 C12.33308594 7.18710938 12.22867188 7.99921875 12.12109375 8.8359375 C11.81762672 11.04899186 11.81762672 11.04899186 13 13 C12.23883449 14.15227823 11.46567307 15.2966386 10.6875 16.4375 C10.25824219 17.07558594 9.82898438 17.71367188 9.38671875 18.37109375 C8 20 8 20 5 21 C3.97388051 22.65071396 2.97691857 24.31970006 2 26 C0.70420353 27.36984198 -0.61992749 28.7151049 -2 30 C-3.98 28.68 -5.96 27.36 -8 26 C-6.96905133 23.42262834 -6.4891374 22.23715753 -3.9375 21 C-1.79292765 20.17855623 -1.79292765 20.17855623 -1.3125 17.9375 C-1.209375 17.298125 -1.10625 16.65875 -1 16 C-0.67 15.67 -0.34 15.34 0 15 C0.36760731 12.67182036 0.70241581 10.3381615 1 8 C-0.65 7.67 -2.3 7.34 -4 7 C-3.43628586 3.73045798 -2.50037734 2.17424117 0 0 Z " fill="#454C66" transform="translate(84,68)"/>
<path d="M0 0 C1.55779097 4.67337292 -0.30326737 8.50056732 -2 13 C-2.672881 14.24892673 -3.3782835 15.48126566 -4.125 16.6875 C-6.23319298 19.92870597 -6.23319298 19.92870597 -6.5 23.8125 C-6.7475 25.3903125 -6.7475 25.3903125 -7 27 C-8.9375 28.1875 -8.9375 28.1875 -11 29 C-12.06716704 30.79932579 -12.06716704 30.79932579 -13 33 C-15.01584367 36.26705698 -16.83499433 38.8503437 -19.6875 41.4375 C-22.54635982 44.60542575 -22.75360066 46.81121126 -23 51 C-20.69 51 -18.38 51 -16 51 C-16 54.38023517 -16.87455622 56.83468937 -18 60 C-21.26441012 56.96876203 -23.55393713 53.70854694 -26 50 C-26.598125 49.484375 -27.19625 48.96875 -27.8125 48.4375 C-29 47 -29 47 -28.9375 44.5625 C-27.82228497 41.51424559 -26.34768986 40.20959045 -24 38 C-22.9935725 36.33720673 -21.99414593 34.67016516 -21 33 C-19.78309375 31.55892681 -18.56533977 30.11846717 -17.33203125 28.69140625 C-15.32073451 26.13747227 -13.73139928 23.35363914 -12.11328125 20.5390625 C-11.74589844 20.03117187 -11.37851563 19.52328125 -11 19 C-10.34 19 -9.68 19 -9 19 C-8.34 17.02 -7.68 15.04 -7 13 C-6.34 13 -5.68 13 -5 13 C-4.9175 12.34 -4.835 11.68 -4.75 11 C-3.75240209 7.00960837 -1.92833317 3.61450357 0 0 Z " fill="#443B4E" transform="translate(103,109)"/>
<path d="M0 0 C0.33 0 0.66 0 1 0 C0.98952637 0.99217529 0.97905273 1.98435059 0.96826172 3.0065918 C0.93157091 6.75085726 0.90892445 10.49510747 0.89013672 14.23950195 C0.88018932 15.84825325 0.86662657 17.45698702 0.84912109 19.06567383 C0.7549705 27.95182874 0.90153195 36.44295935 2.56689453 45.21411133 C3.47796703 51.0744542 3.03662107 53.98297389 0 59 C0.20643199 61.25328412 0.20643199 61.25328412 1 63 C0.34 63 -0.32 63 -1 63 C-1.495 63.99 -1.495 63.99 -2 65 C-2 62.03 -2 59.06 -2 56 C-3.485 56.495 -3.485 56.495 -5 57 C-5.99364251 54.01907247 -6.04831558 52.5054075 -5.83813477 49.43676758 C-5.77799698 48.51603958 -5.71785919 47.59531158 -5.65589905 46.64668274 C-5.58511642 45.65597275 -5.5143338 44.66526276 -5.44140625 43.64453125 C-5.37340317 42.62775803 -5.30540009 41.6109848 -5.2353363 40.56340027 C-5.01663554 37.31269398 -4.7896657 34.06262465 -4.5625 30.8125 C-4.41286693 28.61006297 -4.26377164 26.40758933 -4.11523438 24.20507812 C-3.74973114 18.80294498 -3.37743532 13.40131187 -3 8 C-2.34 8 -1.68 8 -1 8 C-0.67 5.36 -0.34 2.72 0 0 Z " fill="#C35011" transform="translate(157,16)"/>
<path d="M0 0 C0 0.66 0 1.32 0 2 C0.99 2 1.98 2 3 2 C3.34203764 6.27547053 3.21269922 8.59660493 1.1875 12.4375 C0.465625 13.283125 -0.25625 14.12875 -1 15 C-1.99 15 -2.98 15 -4 15 C-4.03738281 15.68707031 -4.07476562 16.37414062 -4.11328125 17.08203125 C-4.17902344 17.98308594 -4.24476563 18.88414063 -4.3125 19.8125 C-4.37050781 20.70582031 -4.42851562 21.59914063 -4.48828125 22.51953125 C-5.07602125 25.36849996 -5.88636928 26.1037092 -8 28 C-8.33 28.99 -8.66 29.98 -9 31 C-10.32 31 -11.64 31 -13 31 C-13 32.32 -13 33.64 -13 35 C-13.66 35 -14.32 35 -15 35 C-15.33 36.32 -15.66 37.64 -16 39 C-16.27189586 34.91421354 -15.49585743 32.39872118 -13.6875 28.75 C-11.37453248 23.90722425 -9.59512884 19.12120312 -8 14 C-9.32 14.99 -10.64 15.98 -12 17 C-11.67 14.69 -11.34 12.38 -11 10 C-10.34 10 -9.68 10 -9 10 C-9 9.34 -9 8.68 -9 8 C-9.66 7.67 -10.32 7.34 -11 7 C-9.73742767 5.82439821 -8.46462916 4.65977135 -7.1875 3.5 C-6.12595703 2.52546875 -6.12595703 2.52546875 -5.04296875 1.53125 C-3 0 -3 0 0 0 Z " fill="#4F3543" transform="translate(156,1)"/>
<path d="M0 0 C0.66 0 1.32 0 2 0 C2.26018799 3.97314093 1.62327979 6.23278975 -0.3125 9.6875 C-2.54397575 13.91787516 -4.03514231 17.99477108 -5.30859375 22.59375 C-6.33018266 26.14911028 -7.65975052 29.55364419 -9 33 C-9.66 33 -10.32 33 -11 33 C-11.18175781 33.67546875 -11.36351562 34.3509375 -11.55078125 35.046875 C-11.80214844 35.93890625 -12.05351562 36.8309375 -12.3125 37.75 C-12.67794922 39.07257812 -12.67794922 39.07257812 -13.05078125 40.421875 C-14.02670348 43.07252797 -15.2686164 44.79388219 -17 47 C-17.309375 47.94875 -17.61875 48.8975 -17.9375 49.875 C-19.12834384 53.37748187 -20.85807368 56.00130315 -23 59 C-25.77208586 51.15481582 -18.6523516 40.95655965 -15.375 33.9921875 C-14.02555919 31.05562027 -12.86268379 28.11417141 -11.765625 25.078125 C-8.53834682 16.31836995 -4.63852396 8.097492 0 0 Z " fill="#447DAB" transform="translate(146,15)"/>
<path d="M0 0 C2.29982146 3.44973219 3.70550873 7.03040199 5.1875 10.875 C5.48922119 11.65496338 5.79094238 12.43492676 6.10180664 13.23852539 C8.52555309 19.58935471 10.77142121 25.99460346 12.9375 32.4375 C13.24389404 33.34290527 13.55028809 34.24831055 13.8659668 35.18115234 C14.28616089 36.45079834 14.28616089 36.45079834 14.71484375 37.74609375 C14.96355225 38.49560303 15.21226074 39.2451123 15.46850586 40.01733398 C16 42 16 42 16 45 C15.01 45 14.02 45 13 45 C13 44.34 13 43.68 13 43 C12.34 43 11.68 43 11 43 C10.67 41.68 10.34 40.36 10 39 C8.515 39.495 8.515 39.495 7 40 C7 34.39 7 28.78 7 23 C4.69 23 2.38 23 0 23 C-1.2723312 16.32026118 -3.07680491 6.15360983 0 0 Z " fill="#AE2A17" transform="translate(185,41)"/>
<path d="M0 0 C2.475 0.99 2.475 0.99 5 2 C5 2.66 5 3.32 5 4 C5.66 4 6.32 4 7 4 C7.3403125 5.5159375 7.3403125 5.5159375 7.6875 7.0625 C8.53563782 10.56648544 9.68454286 13.88973843 10.93017578 17.27099609 C13.73505335 25.00756986 14.63037112 31.6931094 14 40 C14.66 40 15.32 40 16 40 C16 41.32 16 42.64 16 44 C15.34 44 14.68 44 14 44 C13.67 48.95 13.34 53.9 13 59 C12.67 59 12.34 59 12 59 C10.54239064 51.91007488 9.83481853 44.96571295 9.5625 37.75 C9.2619589 30.03919421 8.22484506 22.7656588 6.62109375 15.22265625 C6 12 6 12 6 8 C5.34 8 4.68 8 4 8 C3.731875 7.21625 3.46375 6.4325 3.1875 5.625 C2.15185568 2.71885077 2.15185568 2.71885077 -1 1 C-0.67 0.67 -0.34 0.34 0 0 Z " fill="#EC6711" transform="translate(160,12)"/>
<path d="M0 0 C0.33 0.66 0.66 1.32 1 2 C3.52733235 2.65555119 3.52733235 2.65555119 6 3 C6.29495785 8.01428339 6.22154116 11.05101406 3 15 C0.87370077 17.29916908 -0.99305507 19.01486756 -4 20 C-7.33409259 19.21550763 -10.08751206 17.7765516 -13 16 C-12.34 15.67 -11.68 15.34 -11 15 C-10.72414063 14.43796875 -10.44828125 13.8759375 -10.1640625 13.296875 C-8.62130941 10.25278502 -6.5574025 7.868883 -4.375 5.25 C-3.55773437 4.26515625 -2.74046875 3.2803125 -1.8984375 2.265625 C-1.27195312 1.51796875 -0.64546875 0.7703125 0 0 Z " fill="#4498D3" transform="translate(79,73)"/>
<path d="M0 0 C-0.632723 9.72395343 -1.72334958 19.34455651 -3 29 C-3.66 29 -4.32 29 -5 29 C-4.96519531 30.03640625 -4.93039063 31.0728125 -4.89453125 32.140625 C-4.86638518 33.51040042 -4.83908589 34.88019341 -4.8125 36.25 C-4.77479492 37.27287109 -4.77479492 37.27287109 -4.73632812 38.31640625 C-4.67372433 42.61520038 -5.11312227 44.81854291 -8 48 C-8.71433121 50.64934822 -8.71433121 50.64934822 -9 53 C-9.33 53 -9.66 53 -10 53 C-9.979375 52.05125 -9.95875 51.1025 -9.9375 50.125 C-9.77448174 47.09333717 -9.77448174 47.09333717 -11 45 C-10.01 44.505 -10.01 44.505 -9 44 C-9.33 42.35 -9.66 40.7 -10 39 C-10.33 39 -10.66 39 -11 39 C-11.04254356 37.00045254 -11.04080783 34.99958364 -11 33 C-10.505 32.505 -10.505 32.505 -10 32 C-9.84107168 30.62850746 -9.7230369 29.25218509 -9.625 27.875 C-9.17963708 23.34953802 -7.8967932 20.1097186 -6 16 C-5.30859478 13.22111387 -5.30859478 13.22111387 -5 11 C-4.34 11 -3.68 11 -3 11 C-3 7.7 -3 4.4 -3 1 C-1 0 -1 0 0 0 Z " fill="#82200F" transform="translate(155,19)"/>
<path d="M0 0 C5.70647698 0.34238862 9.20950739 1.76295621 13 6 C14.95492812 8.53286317 16.8090925 11.01976878 18 14 C17.56640625 16.05859375 17.56640625 16.05859375 17 18 C17.33 18.99 17.66 19.98 18 21 C17.01 21.33 16.02 21.66 15 22 C12 18.25 12 18.25 12 16 C11.34 16 10.68 16 10 16 C10 15.34 10 14.68 10 14 C8.35 13.67 6.7 13.34 5 13 C4.67 13.99 4.34 14.98 4 16 C3.34 16 2.68 16 2 16 C1.67 18.64 1.34 21.28 1 24 C0.67 24 0.34 24 0 24 C-0.33724238 18.26687954 -0.2228505 14.89873277 3 10 C3.71923208 6.30476048 3.71923208 6.30476048 4 3 C3.01 3 2.02 3 1 3 C0.67 2.01 0.34 1.02 0 0 Z " fill="#AB321E" transform="translate(155,0)"/>
<path d="M0 0 C1 3 1 3 0.21484375 4.98046875 C-2.85446303 10.28370523 -6.19167588 15.20046823 -10 20 C-10.78375 20.99 -11.5675 21.98 -12.375 23 C-12.91125 23.66 -13.4475 24.32 -14 25 C-17.465 23.02 -17.465 23.02 -21 21 C-20.75 19.125 -20.75 19.125 -20 17 C-19.09507813 16.55914062 -19.09507813 16.55914062 -18.171875 16.109375 C-15.61660035 14.80416277 -14.32638515 13.32496393 -12.5 11.125 C-11.59121094 10.05572266 -11.59121094 10.05572266 -10.6640625 8.96484375 C-10.11492187 8.31644531 -9.56578125 7.66804687 -9 7 C-6.23863434 3.99498443 -3.57183676 1.98435376 0 0 Z " fill="#4891C6" transform="translate(87,130)"/>
<path d="M0 0 C2.61835045 2.33412943 3.98434092 4.65764845 5.48046875 7.81640625 C5.92197266 8.74517578 6.36347656 9.67394531 6.81835938 10.63085938 C7.27017578 11.59830078 7.72199219 12.56574219 8.1875 13.5625 C8.65091797 14.53380859 9.11433594 15.50511719 9.59179688 16.50585938 C13 23.72884067 13 23.72884067 13 26 C12.01 25.67 11.02 25.34 10 25 C9.67 24.01 9.34 23.02 9 22 C8.34 22 7.68 22 7 22 C6.01 24.475 6.01 24.475 5 27 C2.42659624 25.71329812 2.11238384 24.61710223 1 22 C0.18726977 19.03061308 -0.38084874 16.01499743 -1 13 C-1.2475 12.030625 -1.495 11.06125 -1.75 10.0625 C-1.8325 9.381875 -1.915 8.70125 -2 8 C-1.34 7.34 -0.68 6.68 0 6 C-0.28604898 4.32457024 -0.61781233 2.65614657 -1 1 C-0.67 0.67 -0.34 0.34 0 0 Z " fill="#B12B15" transform="translate(172,14)"/>
<path d="M0 0 C1.32 0 2.64 0 4 0 C4 0.66 4 1.32 4 2 C4.66 2.33 5.32 2.66 6 3 C4.75368974 8.95375927 2.61263778 12.15146281 -1.625 16.4375 C-2.140625 16.97826172 -2.65625 17.51902344 -3.1875 18.07617188 C-4.44752438 19.39453072 -5.7222836 20.69878046 -7 22 C-7.33 21.34 -7.66 20.68 -8 20 C-9.32 20.33 -10.64 20.66 -12 21 C-12.33 20.34 -12.66 19.68 -13 19 C-13.66 19.33 -14.32 19.66 -15 20 C-15.33 18.68 -15.66 17.36 -16 16 C-13.69 16 -11.38 16 -9 16 C-8.67 13.36 -8.34 10.72 -8 8 C-5.36 8 -2.72 8 0 8 C0 5.36 0 2.72 0 0 Z " fill="#D95E0F" transform="translate(144,168)"/>
<path d="M0 0 C0 3.64161995 -0.98581977 5.01602929 -3 8 C-3.46535156 8.4640625 -3.93070313 8.928125 -4.41015625 9.40625 C-6.16354621 11.16394805 -7.63092192 13.01790647 -9.125 15 C-9.64320312 15.680625 -10.16140625 16.36125 -10.6953125 17.0625 C-12.17127429 19.06784069 -12.17127429 19.06784069 -13 22 C-13.66 22 -14.32 22 -15 22 C-15 22.66 -15 23.32 -15 24 C-15.66 24 -16.32 24 -17 24 C-17.2475 24.556875 -17.495 25.11375 -17.75 25.6875 C-20.43189729 30.64900998 -24.08359381 34.07189893 -28.4140625 37.5703125 C-30.24893404 39.10625904 -30.24893404 39.10625904 -32 42 C-33.0209375 42.495 -33.0209375 42.495 -34.0625 43 C-36.35342991 43.89698316 -36.35342991 43.89698316 -37 47 C-39.64 47 -42.28 47 -45 47 C-41.07407605 43.8339323 -37.0891279 40.75088469 -33.0859375 37.68359375 C-31.00111724 36.0730939 -31.00111724 36.0730939 -29.3515625 34.28515625 C-28 33 -28 33 -26 33 C-25.773125 32.443125 -25.54625 31.88625 -25.3125 31.3125 C-23.99257001 28.98690907 -22.46840304 27.44557985 -20.5546875 25.60546875 C-15.19265722 20.06829678 -9.030564 13.17067874 -6 6 C-6.495 4.515 -6.495 4.515 -7 3 C-6.21625 2.87625 -5.4325 2.7525 -4.625 2.625 C-1.85942178 2.20882007 -1.85942178 2.20882007 0 0 Z " fill="#444C68" transform="translate(103,104)"/>
<path d="M0 0 C3.63 0.33 7.26 0.66 11 1 C11.91194105 4.56486048 12.26830444 6.39631501 10.75 9.8125 C9 12 9 12 6 13 C4.79117904 15.00016466 4.79117904 15.00016466 4 17 C3.34 17 2.68 17 2 17 C1.67 18.32 1.34 19.64 1 21 C0.01 21 -0.98 21 -2 21 C-2.33 22.32 -2.66 23.64 -3 25 C-3.66 23.68 -4.32 22.36 -5 21 C-3.71034824 19.62437146 -2.37310707 18.29233607 -1 17 C-0.34 17 0.32 17 1 17 C1.144375 16.360625 1.28875 15.72125 1.4375 15.0625 C2 13 2 13 3 12 C3.36760731 9.67182036 3.70241581 7.3381615 4 5 C2.35 4.67 0.7 4.34 -1 4 C-0.67 2.68 -0.34 1.36 0 0 Z " fill="#44688C" transform="translate(81,71)"/>
<path d="M0 0 C0.33 0 0.66 0 1 0 C0.98952637 0.99217529 0.97905273 1.98435059 0.96826172 3.0065918 C0.93157091 6.75085726 0.90892445 10.49510747 0.89013672 14.23950195 C0.88018932 15.84825325 0.86662657 17.45698702 0.84912109 19.06567383 C0.7549705 27.95182874 0.90153195 36.44295935 2.56689453 45.21411133 C3.02846347 48.18308721 3.070415 51.00015459 3 54 C2.01 54.495 2.01 54.495 1 55 C0.67 53.35 0.34 51.7 0 50 C-0.99 50.495 -0.99 50.495 -2 51 C-2.04965857 45.02263584 -2.08584173 39.04539337 -2.10986328 33.06787109 C-2.11988386 31.03692532 -2.13350401 29.00599383 -2.15087891 26.97509766 C-2.17530117 24.04586242 -2.18652279 21.11681894 -2.1953125 18.1875 C-2.20563507 17.28821777 -2.21595764 16.38893555 -2.22659302 15.46240234 C-2.22755847 9.96421429 -1.55077706 5.28015442 0 0 Z " fill="#E8730F" transform="translate(157,16)"/>
<path d="M0 0 C1 3 1 3 -0.1796875 5.55859375 C-0.73914063 6.50863281 -1.29859375 7.45867187 -1.875 8.4375 C-4.12230839 12.19591003 -4.12230839 12.19591003 -5.5703125 16.28515625 C-5.71210937 16.85105469 -5.85390625 17.41695312 -6 18 C-6.66 18.33 -7.32 18.66 -8 19 C-8.72159424 20.64363134 -9.39351421 22.31050386 -10 24 C-10.66 24 -11.32 24 -12 24 C-12.226875 24.680625 -12.45375 25.36125 -12.6875 26.0625 C-14.35572357 29.79614324 -16.55729608 32.72163421 -19 36 C-19.33 35.34 -19.66 34.68 -20 34 C-18.5625 31.375 -18.5625 31.375 -17 29 C-17.33 28.67 -17.66 28.34 -18 28 C-18.99 28 -19.98 28 -21 28 C-19.625 26 -19.625 26 -18 24 C-17.34 24 -16.68 24 -16 24 C-16 23.34 -16 22.68 -16 22 C-15.34 22 -14.68 22 -14 22 C-13.90589844 21.44828125 -13.81179687 20.8965625 -13.71484375 20.328125 C-12.8083856 17.37594435 -11.33656482 15.27278656 -9.5625 12.75 C-8.63630859 11.41195312 -8.63630859 11.41195312 -7.69140625 10.046875 C-7.13324219 9.37140625 -6.57507813 8.6959375 -6 8 C-5.34 8 -4.68 8 -4 8 C-3.71125 7.236875 -3.4225 6.47375 -3.125 5.6875 C-2 3 -2 3 0 0 Z " fill="#44648B" transform="translate(104,104)"/>
<path d="M0 0 C3.96 0 7.92 0 12 0 C12 0.33 12 0.66 12 1 C14.97 1.33 17.94 1.66 21 2 C21 2.66 21 3.32 21 4 C17.20836973 6.52775351 14.19125969 6.22443035 9.8125 6.125 C9.06291016 6.11597656 8.31332031 6.10695312 7.54101562 6.09765625 C5.69387346 6.07412578 3.84689588 6.03825561 2 6 C2 6.66 2 7.32 2 8 C1.01 8.33 0.02 8.66 -1 9 C-4 4.25 -4 4.25 -4 2 C-2.68 2 -1.36 2 0 2 C0 1.34 0 0.68 0 0 Z " fill="#F07C11" transform="translate(93,176)"/>
<path d="M0 0 C1.32 0.66 2.64 1.32 4 2 C3.34 2.66 2.68 3.32 2 4 C2.99 5.485 2.99 5.485 4 7 C3.01 7.495 3.01 7.495 2 8 C1.01 7.67 0.02 7.34 -1 7 C-3.26926171 7.27374775 -3.26926171 7.27374775 -5.625 7.875 C-6.42164062 8.05804688 -7.21828125 8.24109375 -8.0390625 8.4296875 C-9.98565042 8.82514931 -9.98565042 8.82514931 -11 10 C-11 10.99 -11 11.98 -11 13 C-13.31 13 -15.62 13 -18 13 C-18.33 13.66 -18.66 14.32 -19 15 C-19.99 14.34 -20.98 13.68 -22 13 C-22 12.34 -22 11.68 -22 11 C-17.17485504 6.93526471 -11.3265784 4.85295617 -5.41796875 2.89453125 C-2.79392872 2.02984593 -2.79392872 2.02984593 0 0 Z " fill="#443747" transform="translate(107,56)"/>
<path d="M0 0 C0.66 0 1.32 0 2 0 C0.26511847 7.03152742 -1.89902045 13.46373455 -5 20 C-5.75405718 21.68569096 -6.50415927 23.37315757 -7.25 25.0625 C-7.83333333 26.375 -8.41666667 27.6875 -9 29 C-9.99 28.34 -10.98 27.68 -12 27 C-11.34 25.68 -10.68 24.36 -10 23 C-9.34 23 -8.68 23 -8 23 C-8.57452746 19.06924356 -8.57452746 19.06924356 -11 16 C-9.35555496 13.5199023 -7.70951649 11.04088908 -6.0625 8.5625 C-5.59392578 7.85544922 -5.12535156 7.14839844 -4.64257812 6.41992188 C-4.19462891 5.74638672 -3.74667969 5.07285156 -3.28515625 4.37890625 C-2.87144775 3.7557251 -2.45773926 3.13254395 -2.03149414 2.49047852 C-1 1 -1 1 0 0 Z " fill="#44313F" transform="translate(145,9)"/>
<path d="M0 0 C0.66 0 1.32 0 2 0 C2.26018799 3.97314093 1.62327979 6.23278975 -0.3125 9.6875 C-2.93506077 14.64205372 -4.58415189 19.58984869 -6 25 C-6.66 25 -7.32 25 -8 25 C-8.66 26.98 -9.32 28.96 -10 31 C-10.66 31 -11.32 31 -12 31 C-10.31652064 19.86893499 -6.64329041 9.15696786 0 0 Z " fill="#46A3DA" transform="translate(146,15)"/>
<path d="M0 0 C0.99 0.33 1.98 0.66 3 1 C4.01802737 3.69771782 4.11933332 6.2480017 4.09765625 9.109375 C4.09282227 10.24052734 4.09282227 10.24052734 4.08789062 11.39453125 C4.07951172 12.17183594 4.07113281 12.94914062 4.0625 13.75 C4.05798828 14.54277344 4.05347656 15.33554687 4.04882812 16.15234375 C4.03708565 18.10159508 4.01915146 20.05080738 4 22 C2.68 22 1.36 22 0 22 C-0.91300909 19.26097274 -1.12846608 17.6255173 -1.1328125 14.8046875 C-1.13410156 14.00675781 -1.13539063 13.20882813 -1.13671875 12.38671875 C-1.13285156 11.55785156 -1.12898437 10.72898437 -1.125 9.875 C-1.12886719 9.03839844 -1.13273438 8.20179687 -1.13671875 7.33984375 C-1.12664874 1.12664874 -1.12664874 1.12664874 0 0 Z " fill="#FDD112" transform="translate(160,17)"/>
<path d="M0 0 C2.25074662 3.37611993 3.59489799 6.84916758 5 10.625 C5.2676416 11.33978516 5.5352832 12.05457031 5.81103516 12.79101562 C7.65258718 17.80950082 9.05862923 22.72832369 10 28 C9.67 27.34 9.34 26.68 9 26 C8.34 26 7.68 26 7 26 C6.855625 25.2575 6.71125 24.515 6.5625 23.75 C6.09812508 21.47972261 5.58136431 19.24240521 5 17 C4.34 17 3.68 17 3 17 C2.67 17.66 2.34 18.32 2 19 C2 18.34 2 17.68 2 17 C1.34 17 0.68 17 0 17 C-0.90654677 11.67403774 -1.39446773 6.40652829 -1 1 C-0.67 0.67 -0.34 0.34 0 0 Z " fill="#B03121" transform="translate(201,87)"/>
<path d="M0 0 C-0.56738749 3.31212448 -1.44032168 4.67738371 -4 6.8125 C-7.29766422 9.89715721 -7.8182362 12.45590503 -8 17 C-5.69 17 -3.38 17 -1 17 C-1 20.38023517 -1.87455622 22.83468937 -3 26 C-7.33932834 21.97062369 -10.52005088 17.3732231 -13 12 C-11.8553125 11.1646875 -11.8553125 11.1646875 -10.6875 10.3125 C-8.00680877 8.00585871 -6.71750453 6.04466712 -5 3 C-2.4137931 0 -2.4137931 0 0 0 Z " fill="#58282D" transform="translate(88,143)"/>
<path d="M0 0 C5.94 0 11.88 0 18 0 C16.02 0.99 16.02 0.99 14 2 C12.32580562 2.9873454 10.65948148 3.98812105 9 5 C6.61005154 6.45728565 4.28160456 7.86702007 1.75 9.0625 C-0.18053285 9.88003585 -0.18053285 9.88003585 -1 12 C-1.33 10.68 -1.66 9.36 -2 8 C-1.34 8 -0.68 8 0 8 C0 5.36 0 2.72 0 0 Z " fill="#DF6217" transform="translate(168,144)"/>
<path d="M0 0 C1.32 0.33 2.64 0.66 4 1 C4 2.32 4 3.64 4 5 C3.34 5 2.68 5 2 5 C1.67 6.98 1.34 8.96 1 11 C0.01 11.33 -0.98 11.66 -2 12 C-2.33 12.66 -2.66 13.32 -3 14 C-4.98 13.01 -6.96 12.02 -9 11 C-8.34 10.67 -7.68 10.34 -7 10 C-6.5978125 9.1646875 -6.5978125 9.1646875 -6.1875 8.3125 C-4.54972654 5.12315169 -2.34249974 2.71236812 0 0 Z " fill="#43AFF1" transform="translate(75,78)"/>
<path d="M0 0 C0.66 0 1.32 0 2 0 C2.25 5.625 2.25 5.625 0 9 C-0.103125 10.2375 -0.20625 11.475 -0.3125 12.75 C-0.79117148 17.62703022 -2.899848 20.2798176 -6 24 C-6.33 24 -6.66 24 -7 24 C-6.67 20.7 -6.34 17.4 -6 14 C-5.34 14 -4.68 14 -4 14 C-4 11.03 -4 8.06 -4 5 C-3.01 4.67 -2.02 4.34 -1 4 C-0.26676204 1.98491642 -0.26676204 1.98491642 0 0 Z " fill="#4C1715" transform="translate(134,56)"/>
<path d="M0 0 C5.51764423 11.03528847 5.43355999 23.92455145 5 36 C4.01 36.495 4.01 36.495 3 37 C2.67 34.03 2.34 31.06 2 28 C1.67 28 1.34 28 1 28 C0.67 18.76 0.34 9.52 0 0 Z " fill="#FD880F" transform="translate(165,20)"/>
<path d="M0 0 C0.99 0 1.98 0 3 0 C2.67 1.32 2.34 2.64 2 4 C1.34 4 0.68 4 0 4 C0 7.3 0 10.6 0 14 C-0.66 14 -1.32 14 -2 14 C-2.03738281 14.61488281 -2.07476562 15.22976562 -2.11328125 15.86328125 C-2.17902344 16.67152344 -2.24476563 17.47976562 -2.3125 18.3125 C-2.37050781 19.11300781 -2.42851562 19.91351563 -2.48828125 20.73828125 C-3.08206694 23.36272334 -3.95780294 24.30820672 -6 26 C-6 25.34 -6 24.68 -6 24 C-6.66 24 -7.32 24 -8 24 C-8 21.36 -8 18.72 -8 16 C-7.01 16 -6.02 16 -5 16 C-4.87625 15.38125 -4.7525 14.7625 -4.625 14.125 C-4 12 -4 12 -2 10 C-1.32059533 7.57284794 -1.32059533 7.57284794 -0.875 4.875 C-0.62363281 3.50988281 -0.62363281 3.50988281 -0.3671875 2.1171875 C-0.24601563 1.41851563 -0.12484375 0.71984375 0 0 Z " fill="#701D12" transform="translate(152,16)"/>
<path d="M0 0 C1.74627478 2.61941217 2.38722388 4.03824877 3 7 C2.1028125 7.2784375 2.1028125 7.2784375 1.1875 7.5625 C-2.09981799 9.72273753 -2.64854687 12.35107655 -4 16 C-5.65 15.67 -7.3 15.34 -9 15 C-9.33 14.01 -9.66 13.02 -10 12 C-8.42128179 9.79569625 -6.85238363 7.83057597 -5.0625 5.8125 C-4.34030273 4.97428711 -4.34030273 4.97428711 -3.60351562 4.11914062 C-2.41142402 2.73820283 -1.20685625 1.36805321 0 0 Z " fill="#F8FAF8" transform="translate(162,160)"/>
<path d="M0 0 C6.52307692 0.61538462 6.52307692 0.61538462 8.9375 2.5625 C9.288125 3.036875 9.63875 3.51125 10 4 C9.01 4.495 9.01 4.495 8 5 C7.34 4.67 6.68 4.34 6 4 C6.33 4.99 6.66 5.98 7 7 C6.01 8.485 6.01 8.485 5 10 C5.61875 10.12375 6.2375 10.2475 6.875 10.375 C9 11 9 11 11 13 C10.67 13.99 10.34 14.98 10 16 C10 15.34 10 14.68 10 14 C8.35 13.67 6.7 13.34 5 13 C4.67 13.99 4.34 14.98 4 16 C3.34 16 2.68 16 2 16 C1.67 18.64 1.34 21.28 1 24 C0.67 24 0.34 24 0 24 C-0.33724238 18.26687954 -0.2228505 14.89873277 3 10 C3.71923208 6.30476048 3.71923208 6.30476048 4 3 C3.01 3 2.02 3 1 3 C0.67 2.01 0.34 1.02 0 0 Z " fill="#C54E1E" transform="translate(155,0)"/>
<path d="M0 0 C1.32 0 2.64 0 4 0 C4 0.66 4 1.32 4 2 C3.34 2 2.68 2 2 2 C2 2.99 2 3.98 2 5 C3.65 4.34 5.3 3.68 7 3 C3.675 11.55 3.675 11.55 0 14 C0 13.34 0 12.68 0 12 C-1.32 12.33 -2.64 12.66 -4 13 C-4.33 12.34 -4.66 11.68 -5 11 C-5.99 11.495 -5.99 11.495 -7 12 C-7.33 10.68 -7.66 9.36 -8 8 C-5.69 8 -3.38 8 -1 8 C-0.67 5.36 -0.34 2.72 0 0 Z " fill="#EA740E" transform="translate(136,176)"/>
<path d="M0 0 C0.33 0.66 0.66 1.32 1 2 C1.66 2.165 2.32 2.33 3 2.5 C3.66 2.665 4.32 2.83 5 3 C5.33 3.66 5.66 4.32 6 5 C3.95857606 5.16961386 1.91684689 5.33555596 -0.125 5.5 C-1.83042969 5.63921875 -1.83042969 5.63921875 -3.5703125 5.78125 C-6.72597149 5.9825221 -9.83921165 6.03842904 -13 6 C-12 3 -12 3 -9.875 1.3125 C-6.39918304 -0.274286 -3.77907627 -0.2222986 0 0 Z " fill="#FEAA11" transform="translate(108,184)"/>
<path d="M0 0 C-0.632723 9.72395343 -1.72334958 19.34455651 -3 29 C-3.66 29 -4.32 29 -5 29 C-5 23.06 -5 17.12 -5 11 C-4.34 11 -3.68 11 -3 11 C-3 7.7 -3 4.4 -3 1 C-1 0 -1 0 0 0 Z " fill="#902C13" transform="translate(155,19)"/>
<path d="M0 0 C5.75080715 8.62621073 6.58757191 17.880706 6 28 C6.66 28 7.32 28 8 28 C8 29.32 8 30.64 8 32 C7.34 32 6.68 32 6 32 C5.67 33.32 5.34 34.64 5 36 C4.95512451 35.45174561 4.91024902 34.90349121 4.86401367 34.33862305 C3.80641875 20.57180131 3.80641875 20.57180131 0.5859375 7.19140625 C-0.07477883 4.72032716 -0.09881242 2.54666556 0 0 Z " fill="#D74E10" transform="translate(168,24)"/>
<path d="M0 0 C4.24639233 2.83092822 4.74876328 6.19965788 6 11 C6.34403308 13.33177975 6.67949202 15.66487041 7 18 C7.32484375 18.63164063 7.6496875 19.26328125 7.984375 19.9140625 C9.10052124 22.20645516 9.42661144 24.03487476 9.6875 26.5625 C9.77386719 27.32691406 9.86023438 28.09132813 9.94921875 28.87890625 C10 31 10 31 9 34 C8.34 34 7.68 34 7 34 C6.98582031 33.23558594 6.97164062 32.47117188 6.95703125 31.68359375 C6.59632032 23.58222124 4.92762676 16.94282274 2.15625 9.41015625 C1.08518131 6.25122732 0.44317577 3.29863787 0 0 Z " fill="#C63C10" transform="translate(167,18)"/>
<path d="M0 0 C-1.625 2.5 -1.625 2.5 -4 5 C-7.25 5.3125 -7.25 5.3125 -10 5 C-10 5.66 -10 6.32 -10 7 C-11.65 7 -13.3 7 -15 7 C-15.33 6.01 -15.66 5.02 -16 4 C-13.5800956 1.07064204 -11.70218483 0.55532772 -8 0 C-4.71023192 -1.09658936 -3.28696233 -0.79953138 0 0 Z " fill="#B74D16" transform="translate(103,171)"/>
<path d="M0 0 C1.890625 0.2578125 1.890625 0.2578125 4 1 C5.046875 2.7421875 5.046875 2.7421875 5.75 4.875 C6.11351562 5.92300781 6.11351562 5.92300781 6.484375 6.9921875 C7 9 7 9 7 12 C4.69 12 2.38 12 0 12 C-1.53166168 7.91556885 -0.63081652 4.20544343 0 0 Z " fill="#AB2514" transform="translate(209,116)"/>
<path d="M0 0 C3.63 0.33 7.26 0.66 11 1 C11.92817192 4.62830843 12.26901295 6.41073355 10.6875 9.875 C10.130625 10.57625 9.57375 11.2775 9 12 C8.34 12 7.68 12 7 12 C7 9.36 7 6.72 7 4 C4.36 3.67 1.72 3.34 -1 3 C-0.67 2.01 -0.34 1.02 0 0 Z " fill="#465F81" transform="translate(81,71)"/>
<path d="M0 0 C0 0.99 0 1.98 0 3 C-3.63 3 -7.26 3 -11 3 C-11.33 3.99 -11.66 4.98 -12 6 C-12.33 6.33 -12.66 6.66 -13 7 C-13 7.66 -13 8.32 -13 9 C-13.66 9 -14.32 9 -15 9 C-15.99 6.36 -16.98 3.72 -18 1 C-11.97403427 -0.0712828 -6.11090483 -0.09945415 0 0 Z " fill="#FCC317" transform="translate(112,189)"/>
<path d="M0 0 C1.43861294 0.08746284 2.87597508 0.19565348 4.3125 0.3125 C5.11300781 0.37050781 5.91351563 0.42851562 6.73828125 0.48828125 C9.41058442 1.09289561 10.34477729 1.84821048 12 4 C12.6875 6.6875 12.6875 6.6875 13 9 C12.01 9.33 11.02 9.66 10 10 C7.30078125 8.34765625 7.30078125 8.34765625 4.3125 6.0625 C3.31863281 5.31097656 2.32476563 4.55945313 1.30078125 3.78515625 C0.54152344 3.19605469 -0.21773437 2.60695312 -1 2 C-0.67 1.34 -0.34 0.68 0 0 Z " fill="#7491B8" transform="translate(19,128)"/>
<path d="M0 0 C0.33 0 0.66 0 1 0 C1.33 7.26 1.66 14.52 2 22 C2.66 22.33 3.32 22.66 4 23 C4.07471734 26.8853017 3.97236506 30.24944905 3 34 C3.33 34.66 3.66 35.32 4 36 C3.34 36 2.68 36 2 36 C1.67 36.66 1.34 37.32 1 38 C-0.12014799 29.96492265 -0.11441805 22.04070923 -0.0625 13.9375 C-0.05747314 12.58138187 -0.05291234 11.22526192 -0.04882812 9.86914062 C-0.03712079 6.57938006 -0.02072211 3.28971406 0 0 Z " fill="#D65F10" transform="translate(154,43)"/>
<path d="M0 0 C0.99 0 1.98 0 3 0 C2.48530403 4.75917507 1.18574515 7.82582181 -1.4375 11.8125 C-2.05496094 12.76769531 -2.67242187 13.72289062 -3.30859375 14.70703125 C-5 17 -5 17 -7 18 C-6.67 17.236875 -6.34 16.47375 -6 15.6875 C-4.82563314 13.00930865 -4.82563314 13.00930865 -5 10 C-5.99 10 -6.98 10 -8 10 C-6.625 8 -6.625 8 -5 6 C-4.34 6 -3.68 6 -3 6 C-3 5.34 -3 4.68 -3 4 C-2.34 4 -1.68 4 -1 4 C-0.67 2.68 -0.34 1.36 0 0 Z " fill="#44749E" transform="translate(91,122)"/>
<path d="M0 0 C0.94875 0.04125 1.8975 0.0825 2.875 0.125 C2.875 1.115 2.875 2.105 2.875 3.125 C3.865 3.455 4.855 3.785 5.875 4.125 C1.125 8.125 1.125 8.125 -1.125 8.125 C-1.125 7.135 -1.125 6.145 -1.125 5.125 C-1.785 5.125 -2.445 5.125 -3.125 5.125 C-3.455 6.115 -3.785 7.105 -4.125 8.125 C-5.125 7.125 -5.125 7.125 -5.3125 4.6875 C-5.02108357 0.70480882 -3.90175738 0.1560703 0 0 Z " fill="#FBA80E" transform="translate(125.125,191.875)"/>
<path d="M0 0 C0.66 0 1.32 0 2 0 C2.86366822 1.78710586 3.71568594 3.5798465 4.5625 5.375 C5.27599609 6.87160156 5.27599609 6.87160156 6.00390625 8.3984375 C6.33261719 9.25695312 6.66132813 10.11546875 7 11 C6.67 11.66 6.34 12.32 6 13 C4.20425007 11.56760415 2.41353093 10.1288996 0.625 8.6875 C-0.37273437 7.88699219 -1.37046875 7.08648437 -2.3984375 6.26171875 C-5 4 -5 4 -7 1 C-4.69 1.66 -2.38 2.32 0 3 C0 2.01 0 1.02 0 0 Z " fill="#AA3021" transform="translate(229,162)"/>
<path d="M0 0 C0 3.69942045 -0.85819127 4.40155392 -3.25 7.125 C-3.85328125 7.82882813 -4.4565625 8.53265625 -5.078125 9.2578125 C-7.12538348 11.11366063 -8.27439417 11.71842915 -11 12 C-11.66 11.67 -12.32 11.34 -13 11 C-12.84375 9.19921875 -12.84375 9.19921875 -12 7 C-9.53125 5.33203125 -9.53125 5.33203125 -6.5 3.8125 C-3.02607508 2.23085081 -3.02607508 2.23085081 0 0 Z " fill="#45BDF2" transform="translate(79,140)"/>
<path d="M0 0 C0.33 0 0.66 0 1 0 C1.29341888 5.67276511 1.00559652 8.99067246 -2 14 C-2.66 14 -3.32 14 -4 14 C-4.28875 15.093125 -4.5775 16.18625 -4.875 17.3125 C-6 21 -6 21 -8 24 C-7.47606294 18.13190493 -6.23891142 13.45126259 -4 8 C-3.34 8 -2.68 8 -2 8 C-2 6.68 -2 5.36 -2 4 C-1.34 4 -0.68 4 0 4 C0 2.68 0 1.36 0 0 Z " fill="#47242C" transform="translate(143,32)"/>
<path d="M0 0 C0.33 0 0.66 0 1 0 C1 6.93 1 13.86 1 21 C1.66 21 2.32 21 3 21 C3.05429959 22.74965358 3.09292823 24.49979787 3.125 26.25 C3.14820313 27.22453125 3.17140625 28.1990625 3.1953125 29.203125 C2.99575573 32.060778 2.33949708 33.52494311 1 36 C-0.05648755 28.28847276 -0.11624053 20.71334179 -0.0625 12.9375 C-0.05798828 11.69033203 -0.05347656 10.44316406 -0.04882812 9.15820312 C-0.03713163 6.10541779 -0.02074086 3.05273502 0 0 Z " fill="#FC940F" transform="translate(157,24)"/>
<path d="M0 0 C0.33 0 0.66 0 1 0 C1.08117951 2.41734542 1.14056926 4.83194949 1.1875 7.25 C1.22520508 8.27287109 1.22520508 8.27287109 1.26367188 9.31640625 C1.32627567 13.61520038 0.88687773 15.81854291 -2 19 C-2.71433121 21.64934822 -2.71433121 21.64934822 -3 24 C-3.33 24 -3.66 24 -4 24 C-3.979375 23.05125 -3.95875 22.1025 -3.9375 21.125 C-3.77448174 18.09333717 -3.77448174 18.09333717 -5 16 C-4.34 15.67 -3.68 15.34 -3 15 C-3.061875 14.195625 -3.12375 13.39125 -3.1875 12.5625 C-2.94860593 8.02351267 -1.57956736 4.23098399 0 0 Z " fill="#962B0E" transform="translate(149,48)"/>
<path d="M0 0 C0.33 0 0.66 0 1 0 C1.33 2.97 1.66 5.94 2 9 C1.01 9 0.02 9 -1 9 C-3.21168225 11.94236782 -3.21168225 11.94236782 -5 15 C-5.66 14.34 -6.32 13.68 -7 13 C-5.58795406 7.73691968 -3.31008693 4.2437012 0 0 Z " fill="#463141" transform="translate(130,31)"/>
<path d="M0 0 C1.67542976 0.28604898 3.34385343 0.61781233 5 1 C5.17835515 5.54805635 4.99785435 8.8794254 3 13 C2.67 13 2.34 13 2 13 C2 11.35 2 9.7 2 8 C0.68 8.99 -0.64 9.98 -2 11 C-1.67 8.69 -1.34 6.38 -1 4 C-0.34 4 0.32 4 1 4 C1 3.34 1 2.68 1 2 C0.34 1.67 -0.32 1.34 -1 1 C-0.67 0.67 -0.34 0.34 0 0 Z " fill="#465B79" transform="translate(146,7)"/>
<path d="M0 0 C0.66 0.66 1.32 1.32 2 2 C2.99 2 3.98 2 5 2 C4.44295272 5.23087421 3.66812465 7.02361137 1 9 C-0.32 9 -1.64 9 -3 9 C-3 6.36 -3 3.72 -3 1 C-2.01 0.67 -1.02 0.34 0 0 Z " fill="#FC8A11" transform="translate(131,186)"/>
<path d="M0 0 C0 0.99 0 1.98 0 3 C-0.66 3.66 -1.32 4.32 -2 5 C-2.226875 6.093125 -2.45375 7.18625 -2.6875 8.3125 C-4.44907896 13.26169803 -6.5917919 14.30609505 -11 17 C-10.51016883 12.59151947 -9.17580418 10.98899217 -6 8 C-4.98812105 6.34051852 -3.9873454 4.67419438 -3 3 C-1.3125 1.1875 -1.3125 1.1875 0 0 Z " fill="#514B62" transform="translate(85,139)"/>
<path d="M0 0 C0.33 0.99 0.66 1.98 1 3 C0.01 3.495 0.01 3.495 -1 4 C-0.67 4.66 -0.34 5.32 0 6 C-1.625 6.75 -1.625 6.75 -4 7 C-7.25 5.1875 -7.25 5.1875 -10 3 C-10 2.34 -10 1.68 -10 1 C-6.21812119 -0.83691257 -4.05431692 -1.15837626 0 0 Z " fill="#7694BE" transform="translate(11,115)"/>
<path d="M0 0 C0.33 0.66 0.66 1.32 1 2 C3.31 2 5.62 2 8 2 C8 5.38023517 7.12544378 7.83468937 6 11 C2.66442368 8.0094833 0.84916079 5.06815373 -1 1 C-0.67 0.67 -0.34 0.34 0 0 Z " fill="#75241D" transform="translate(79,158)"/>
<path d="M0 0 C4.66539191 1.57891849 8.34216741 4.10388467 12.3125 6.9375 C12.95767578 7.38029297 13.60285156 7.82308594 14.26757812 8.27929688 C15.90371764 9.4410425 17.45965282 10.71394559 19 12 C19 12.99 19 13.98 19 15 C17.22611914 13.90073597 15.45600316 12.79539498 13.6875 11.6875 C12.70136719 11.07261719 11.71523437 10.45773438 10.69921875 9.82421875 C8.48029135 8.32459633 6.83389037 6.91030247 5 5 C4.113125 4.484375 3.22625 3.96875 2.3125 3.4375 C1.549375 2.963125 0.78625 2.48875 0 2 C0 1.34 0 0.68 0 0 Z " fill="#54A0C3" transform="translate(78,96)"/>
<path d="M0 0 C2.59041239 3.88561858 3.3349561 7.58831605 2.6875 12.25 C2 14 2 14 0 17 C-0.90654677 11.67403774 -1.39446773 6.40652829 -1 1 C-0.67 0.67 -0.34 0.34 0 0 Z " fill="#AB2411" transform="translate(201,87)"/>
<path d="M0 0 C0.33 0.66 0.66 1.32 1 2 C3.52733235 2.65555119 3.52733235 2.65555119 6 3 C6.29058436 7.9399341 6.21320034 11.09825673 3 15 C0.8125 15.8125 0.8125 15.8125 -1 16 C-0.525625 15.319375 -0.05125 14.63875 0.4375 13.9375 C2.2225636 10.58158044 2.63153086 7.75838519 3 4 C1.68 3.67 0.36 3.34 -1 3 C-0.67 2.01 -0.34 1.02 0 0 Z " fill="#4682B1" transform="translate(79,73)"/>
<path d="M0 0 C0.83438967 2.33629107 1.22334675 3.50176494 0.1875 5.8125 C-0.204375 6.534375 -0.59625 7.25625 -1 8 C-1.33 9.19625 -1.66 10.3925 -2 11.625 C-3 15 -3 15 -5 17 C-5.66 16.67 -6.32 16.34 -7 16 C-6.21205747 12.58558238 -5.23882213 9.27923505 -4 6 C-3.34 5.67 -2.68 5.34 -2 5 C-1.27840576 3.35636866 -0.60648579 1.68949614 0 0 Z " fill="#571514" transform="translate(143,40)"/>
<path d="M0 0 C4.75 0.75 4.75 0.75 7 3 C5.85760183 4.33627775 4.71098945 5.66895388 3.5625 7 C2.92441406 7.7425 2.28632813 8.485 1.62890625 9.25 C1.09136719 9.8275 0.55382812 10.405 0 11 C-0.33 11 -0.66 11 -1 11 C-1.042721 9.33388095 -1.04063832 7.66617115 -1 6 C-0.67 5.67 -0.34 5.34 0 5 C-0.66 5 -1.32 5 -2 5 C-2 4.01 -2 3.02 -2 2 C-1.34 2 -0.68 2 0 2 C0 1.34 0 0.68 0 0 Z " fill="#D9671A" transform="translate(140,176)"/>
<path d="M0 0 C3.96 0 7.92 0 12 0 C11.67 0.66 11.34 1.32 11 2 C8.66752185 2.62852934 6.30708533 3.15535246 3.9375 3.625 C2.64714844 3.88539063 1.35679688 4.14578125 0.02734375 4.4140625 C-0.97167969 4.60742188 -1.97070312 4.80078125 -3 5 C-3.33 4.01 -3.66 3.02 -4 2 C-2.68 2 -1.36 2 0 2 C0 1.34 0 0.68 0 0 Z " fill="#D76715" transform="translate(93,176)"/>
<path d="M0 0 C0.99 0.99 1.98 1.98 3 3 C1.02 5.64 -0.96 8.28 -3 11 C-3.66 10.01 -4.32 9.02 -5 8 C-4.0465616 4.53295129 -2.71323406 2.3432476 0 0 Z " fill="#6C80A3" transform="translate(94,109)"/>
<path d="M0 0 C0.66 0 1.32 0 2 0 C2.30017023 4.16486198 1.45324946 6.65015727 -0.5 10.3125 C-0.9640625 11.19550781 -1.428125 12.07851563 -1.90625 12.98828125 C-2.2671875 13.65214844 -2.628125 14.31601562 -3 15 C-3.66 15 -4.32 15 -5 15 C-4.43174347 9.45949887 -2.37113483 4.96284034 0 0 Z " fill="#46A1DB" transform="translate(146,15)"/>
<path d="M0 0 C0.99 0 1.98 0 3 0 C3.3669579 6.48292295 3.3669579 6.48292295 1.625 8.9375 C0 10 0 10 -2 10 C-2.25 3.375 -2.25 3.375 0 0 Z " fill="#787F99" transform="translate(156,3)"/>
<path d="M0 0 C0.66 0.66 1.32 1.32 2 2 C1.8125 4 1.8125 4 1 6 C0.01 6.66 -0.98 7.32 -2 8 C-2.33 7.34 -2.66 6.68 -3 6 C-3.99 7.32 -4.98 8.64 -6 10 C-7.32 9.67 -8.64 9.34 -10 9 C-6.7 6.03 -3.4 3.06 0 0 Z " fill="#F8F2E7" transform="translate(134,192)"/>
<path d="M0 0 C0.66 0.66 1.32 1.32 2 2 C0.22972246 6.60272162 -1.18699218 9.7129243 -5 13 C-4.93976735 11.39479996 -4.85091401 9.79065673 -4.75 8.1875 C-4.70359375 7.29417969 -4.6571875 6.40085937 -4.609375 5.48046875 C-4 3 -4 3 -1.953125 1.17578125 C-1.30859375 0.78777344 -0.6640625 0.39976563 0 0 Z " fill="#521411" transform="translate(132,67)"/>
<path d="M0 0 C0 4.62 0 9.24 0 14 C-1.98012969 11.02980547 -3.6501925 8.30702837 -5 5 C-4.3125 2.6875 -4.3125 2.6875 -3 1 C-1 0 -1 0 0 0 Z " fill="#F8F1EF" transform="translate(237,162)"/>
<path d="M0 0 C2.22825644 2.22825644 2.69239369 3.65761628 3.625 6.625 C3.88539062 7.44226563 4.14578125 8.25953125 4.4140625 9.1015625 C4.60742188 9.72804687 4.80078125 10.35453125 5 11 C2.525 10.01 2.525 10.01 0 9 C-0.33 9.66 -0.66 10.32 -1 11 C-1.99528744 8.01413769 -2.23314275 6.10857 -2 3 C-1.34 2.01 -0.68 1.02 0 0 Z " fill="#FCF8EE" transform="translate(93,189)"/>
<path d="M0 0 C-0.33 1.65 -0.66 3.3 -1 5 C-1.53625 5.12375 -2.0725 5.2475 -2.625 5.375 C-5.4638286 6.12206016 -8.22223202 7.05303364 -11 8 C-10.04578192 6.85073734 -9.08647955 5.70569459 -8.125 4.5625 C-7.59132813 3.92441406 -7.05765625 3.28632813 -6.5078125 2.62890625 C-4.27268848 0.21427745 -3.3395179 0 0 0 Z " fill="#4695CC" transform="translate(83,136)"/>
<path d="M0 0 C1.55024464 3.10048928 1.28992015 5.57894218 1 9 C-0.79426143 11.69139215 -2.72234173 13.72234173 -5 16 C-4.55643705 9.79011871 -3.08467498 5.39459439 0 0 Z " fill="#45749D" transform="translate(127,58)"/>
<path d="M0 0 C-0.875 4.75 -0.875 4.75 -2 7 C-4.31 6.67 -6.62 6.34 -9 6 C-4.38461538 0 -4.38461538 0 0 0 Z " fill="#41303B" transform="translate(156,1)"/>
<path d="M0 0 C1.37478516 0.01740234 1.37478516 0.01740234 2.77734375 0.03515625 C3.69644531 0.04417969 4.61554688 0.05320313 5.5625 0.0625 C6.27277344 0.07410156 6.98304688 0.08570313 7.71484375 0.09765625 C4.83396829 2.4983858 2.15079541 4.57056662 -1.28515625 6.09765625 C-1.94515625 4.44765625 -2.60515625 2.79765625 -3.28515625 1.09765625 C-2.28515625 0.09765625 -2.28515625 0.09765625 0 0 Z " fill="#F9F6F8" transform="translate(147.28515625,-0.09765625)"/>
<path d="M0 0 C0.33 0.66 0.66 1.32 1 2 C1.66 2 2.32 2 3 2 C3 2.99 3 3.98 3 5 C3.99 5 4.98 5 6 5 C6.66 6.32 7.32 7.64 8 9 C6.35 9.66 4.7 10.32 3 11 C1.68 7.7 0.36 4.4 -1 1 C-0.67 0.67 -0.34 0.34 0 0 Z " fill="#F8BE1B" transform="translate(100,201)"/>
<path d="M0 0 C3.25543229 0.34879632 4.01873107 1.02133261 6.25 3.5625 C6.8275 4.366875 7.405 5.17125 8 6 C7.34 6 6.68 6 6 6 C6 6.66 6 7.32 6 8 C3 7 3 7 0 5 C-0.1875 2.375 -0.1875 2.375 0 0 Z " fill="#F3F1ED" transform="translate(216,160)"/>
<path d="M0 0 C6.52307692 0.61538462 6.52307692 0.61538462 8.9375 2.5625 C9.288125 3.036875 9.63875 3.51125 10 4 C9.01 4.495 9.01 4.495 8 5 C7.34 4.67 6.68 4.34 6 4 C6.33 4.99 6.66 5.98 7 7 C6.01 7.99 5.02 8.98 4 10 C4 7.69 4 5.38 4 3 C3.01 3 2.02 3 1 3 C0.67 2.01 0.34 1.02 0 0 Z " fill="#8C4545" transform="translate(155,0)"/>
<path d="M0 0 C1.32 0 2.64 0 4 0 C4 0.66 4 1.32 4 2 C3.34 2 2.68 2 2 2 C2 2.99 2 3.98 2 5 C3.65 4.34 5.3 3.68 7 3 C5.8141763 6.37503669 4.72426311 8.64722731 2 11 C-0.67927341 6.98108988 -0.15601248 4.75838077 0 0 Z " fill="#E3660C" transform="translate(136,176)"/>
<path d="M0 0 C-1 2 -1 2 -3 2.9375 C-5.34608221 3.8891846 -5.34608221 3.8891846 -6 7 C-8.64 7 -11.28 7 -14 7 C-12.33784732 5.66104368 -10.67036393 4.32869858 -9 3 C-8.01 2.13375 -8.01 2.13375 -7 1.25 C-4.51700485 -0.30187197 -2.87515849 -0.23959654 0 0 Z " fill="#4C6080" transform="translate(72,144)"/>
<path d="M0 0 C1.4036827 4.21104811 -0.14075051 6.07491775 -2 10 C-2.350625 10.78375 -2.70125 11.5675 -3.0625 12.375 C-4 14 -4 14 -6 15 C-6.65213292 17.02463255 -6.65213292 17.02463255 -7 19 C-7.66 19 -8.32 19 -9 19 C-8.34 17.02 -7.68 15.04 -7 13 C-6.34 13 -5.68 13 -5 13 C-4.9175 12.34 -4.835 11.68 -4.75 11 C-3.75240209 7.00960837 -1.92833317 3.61450357 0 0 Z " fill="#444A63" transform="translate(103,109)"/>
<path d="M0 0 C2.67901932 2.31881505 3.66204403 4.31814468 4.6875 7.6875 C4.93886719 8.49574219 5.19023437 9.30398437 5.44921875 10.13671875 C5.63097656 10.75160156 5.81273437 11.36648437 6 12 C5.01 11.34 4.02 10.68 3 10 C3 9.01 3 8.02 3 7 C2.34 7 1.68 7 1 7 C1 6.34 1 5.68 1 5 C0.34 5 -0.32 5 -1 5 C-1.33 5.66 -1.66 6.32 -2 7 C-2 5.02 -2 3.04 -2 1 C-1.34 0.67 -0.68 0.34 0 0 Z " fill="#AD2D1E" transform="translate(218,134)"/>
<path d="M0 0 C0 4.1008426 -1.68823215 6.57416538 -4.4375 9.5625 C-4.953125 10.036875 -5.46875 10.51125 -6 11 C-6.721875 11.721875 -7.44375 12.44375 -8.1875 13.1875 C-9.0846875 14.0846875 -9.0846875 14.0846875 -10 15 C-8.96827544 12.42068859 -7.93544256 9.85389631 -6.8125 7.3125 C-6.544375 6.549375 -6.27625 5.78625 -6 5 C-6.33 4.34 -6.66 3.68 -7 3 C-6.21625 2.87625 -5.4325 2.7525 -4.625 2.625 C-1.85942178 2.20882007 -1.85942178 2.20882007 0 0 Z " fill="#43465E" transform="translate(103,104)"/>
<path d="M0 0 C0.99 0 1.98 0 3 0 C3 3.63 3 7.26 3 11 C2.01 11 1.02 11 0 11 C0 7.37 0 3.74 0 0 Z " fill="#FDE912" transform="translate(160,21)"/>
<path d="M0 0 C0.66 0 1.32 0 2 0 C0.49829538 5.98551772 -0.94226163 11.61255621 -4 17 C-4.66 15.68 -5.32 14.36 -6 13 C-5.01 12.67 -4.02 12.34 -3 12 C-2.67 10.02 -2.34 8.04 -2 6 C-2.66 5.67 -3.32 5.34 -4 5 C-2.71937515 3.2925002 -1.38232443 1.62626404 0 0 Z " fill="#453E53" transform="translate(145,9)"/>
<path d="M0 0 C0.94875 0.350625 1.8975 0.70125 2.875 1.0625 C-0.54846555 4.21208831 -3.56762737 4.62429109 -8.125 5.0625 C-8.125 4.4025 -8.125 3.7425 -8.125 3.0625 C-6.805 3.0625 -5.485 3.0625 -4.125 3.0625 C-4.455 2.0725 -4.785 1.0825 -5.125 0.0625 C-3.125 -0.9375 -3.125 -0.9375 0 0 Z " fill="#FBED14" transform="translate(117.125,202.9375)"/>
<path d="M0 0 C0.66 1.32 1.32 2.64 2 4 C-0.57784846 6.64752004 -2.91648098 8.94432065 -6 11 C-6.33 10.34 -6.66 9.68 -7 9 C-4.69 6.03 -2.38 3.06 0 0 Z " fill="#F6F0E5" transform="translate(148,176)"/>
<path d="M0 0 C0.84119973 2.39957614 1.11193544 3.64922558 0.328125 6.10546875 C-0.02765625 6.79253906 -0.3834375 7.47960937 -0.75 8.1875 C-1.26820312 9.22970703 -1.26820312 9.22970703 -1.796875 10.29296875 C-3 12 -3 12 -6 13 C-3.10933941 3.40546697 -3.10933941 3.40546697 0 0 Z " fill="#453241" transform="translate(108,104)"/>
<path d="M0 0 C0.99 0 1.98 0 3 0 C5.91360308 4.77830905 6.19876651 7.55106131 5 13 C3.09610151 10.14415227 2.30537823 8.0688238 1.375 4.8125 C0.98441406 3.46091797 0.98441406 3.46091797 0.5859375 2.08203125 C0.39257812 1.39496094 0.19921875 0.70789063 0 0 Z " fill="#F7EEEA" transform="translate(194,64)"/>
<path d="M0 0 C1.98 1.65 3.96 3.3 6 5 C5.01 6.485 5.01 6.485 4 8 C2.35 7.67 0.7 7.34 -1 7 C-0.67 4.69 -0.34 2.38 0 0 Z " fill="#F7F3EF" transform="translate(209,152)"/>
<path d="M0 0 C0.99 0.66 1.98 1.32 3 2 C-0.16952847 5.26008643 -3.39937989 8.22237877 -7 11 C-7 9.68 -7 8.36 -7 7 C-4.77351562 4.9492907 -2.70717195 3.35358597 0 2 C0 1.34 0 0.68 0 0 Z " fill="#7081A0" transform="translate(75,133)"/>
<path d="M0 0 C2.475 0.495 2.475 0.495 5 1 C4.67 2.98 4.34 4.96 4 7 C4.99 7 5.98 7 7 7 C7 9.64 7 12.28 7 15 C4.39473112 12.39473112 3.65865776 9.82060766 2.375 6.375 C1.92898437 5.18648437 1.48296875 3.99796875 1.0234375 2.7734375 C0.68570313 1.85820312 0.34796875 0.94296875 0 0 Z " fill="#F3ECE8" transform="translate(216,127)"/>
<path d="M0 0 C0 1.65 0 3.3 0 5 C-0.61875 5.2475 -1.2375 5.495 -1.875 5.75 C-4.37818306 7.22246063 -4.83045281 8.41028837 -6 11 C-6.99 11.495 -6.99 11.495 -8 12 C-8 11.01 -8 10.02 -8 9 C-7.34 9 -6.68 9 -6 9 C-5.9175 8.071875 -5.835 7.14375 -5.75 6.1875 C-5 3 -5 3 -3 1.125 C-1 0 -1 0 0 0 Z " fill="#4E2226" transform="translate(96,131)"/>
<path d="M0 0 C1.65 0 3.3 0 5 0 C0.3011811 7.90255906 0.3011811 7.90255906 -2.125 8.6875 C-2.74375 8.790625 -3.3625 8.89375 -4 9 C-3.71125 8.443125 -3.4225 7.88625 -3.125 7.3125 C-1.9586747 4.91505355 -0.9660119 2.48403061 0 0 Z " fill="#434055" transform="translate(92,80)"/>
<path d="M0 0 C1.32 0.66 2.64 1.32 4 2 C3.34 2.66 2.68 3.32 2 4 C2.99 5.485 2.99 5.485 4 7 C3.01 7.495 3.01 7.495 2 8 C-0.625 6.75 -0.625 6.75 -3 5 C-3 4.01 -3 3.02 -3 2 C-2.01 1.34 -1.02 0.68 0 0 Z " fill="#4A3A4A" transform="translate(107,56)"/>
<path d="M0 0 C1.08557659 3.24215827 0.94015194 5.02321809 -0.3125 8.1875 C-0.57675781 8.88230469 -0.84101563 9.57710937 -1.11328125 10.29296875 C-2 12 -2 12 -4 13 C-4.33 13.99 -4.66 14.98 -5 16 C-5.66 16 -6.32 16 -7 16 C-5.56835889 12.34061828 -4.01065704 8.76011932 -2.375 5.1875 C-1.92898437 4.21167969 -1.48296875 3.23585937 -1.0234375 2.23046875 C-0.51683594 1.12638672 -0.51683594 1.12638672 0 0 Z " fill="#42455C" transform="translate(135,48)"/>
<path d="M0 0 C3.0916909 2.52956528 3.90931332 5.22454612 5 9 C3.35 9 1.7 9 0 9 C-0.84454356 5.62182575 -1.10844919 3.32534757 0 0 Z " fill="#A62617" transform="translate(172,14)"/>
<path d="M0 0 C2 3 2 3 3 5 C3.99 5 4.98 5 6 5 C4.35 6.65 2.7 8.3 1 10 C-0.625 7.25 -0.625 7.25 -2 4 C-1.1875 1.625 -1.1875 1.625 0 0 Z " fill="#96361D" transform="translate(86,165)"/>
<path d="M0 0 C1.32 0.33 2.64 0.66 4 1 C3.67 1.66 3.34 2.32 3 3 C3.66 3 4.32 3 5 3 C5 4.65 5 6.3 5 8 C4.01 8 3.02 8 2 8 C0.23537317 4.91190305 0 3.76687864 0 0 Z " fill="#BA3014" transform="translate(173,32)"/>
<path d="M0 0 C0.99 0.33 1.98 0.66 3 1 C3 2.65 3 4.3 3 6 C3.99 5.67 4.98 5.34 6 5 C5.34 6.32 4.68 7.64 4 9 C3.34 9 2.68 9 2 9 C2 8.34 2 7.68 2 7 C1.34 7 0.68 7 0 7 C0 4.69 0 2.38 0 0 Z " fill="#613A46" transform="translate(151,7)"/>
<path d="M0 0 C2.05078125 0.03255208 4.1015625 0.06510417 6.15234375 0.09765625 C3.98546884 2.37287491 1.69613866 4.25559787 -0.84765625 6.09765625 C-1.50765625 4.44765625 -2.16765625 2.79765625 -2.84765625 1.09765625 C-1.84765625 0.09765625 -1.84765625 0.09765625 0 0 Z " fill="#FB9C15" transform="translate(94.84765625,183.90234375)"/>
<path d="M0 0 C2 1 2 1 3.2890625 4.59765625 C3.74217015 6.08358282 4.1871441 7.57200796 4.625 9.0625 C4.85445312 9.82111328 5.08390625 10.57972656 5.3203125 11.36132812 C5.88710193 13.23881812 6.44444077 15.11915633 7 17 C6.34 17 5.68 17 5 17 C4.16080602 14.73117913 3.32848276 12.46022973 2.5 10.1875 C2.26152344 9.54490234 2.02304688 8.90230469 1.77734375 8.24023438 C0.72931254 5.35066261 0 3.09923939 0 0 Z " fill="#F2EADF" transform="translate(201,83)"/>
<path d="M0 0 C1.29640378 0.59393382 2.58698839 1.20057989 3.875 1.8125 C4.59429687 2.14894531 5.31359375 2.48539062 6.0546875 2.83203125 C8 4 8 4 10 7 C9.29875 6.649375 8.5975 6.29875 7.875 5.9375 C4.49731414 4.8360807 2.41919407 5.20483859 -1 6 C-1.33 5.34 -1.66 4.68 -2 4 C-1.34 3.34 -0.68 2.68 0 2 C0 1.34 0 0.68 0 0 Z " fill="#6494BD" transform="translate(68,89)"/>
<path d="M0 0 C2.64 0.33 5.28 0.66 8 1 C7.74438677 3.3431213 7.40729228 5.67843403 7 8 C6.01 8.495 6.01 8.495 5 9 C5 6.69 5 4.38 5 2 C3.35 1.67 1.7 1.34 0 1 C0 0.67 0 0.34 0 0 Z " fill="#45729D" transform="translate(80,74)"/>
<path d="M0 0 C0.66 0 1.32 0 2 0 C1.56179109 4.55737263 1.14958831 7.57653445 -2 11 C-2.66 9.68 -3.32 8.36 -4 7 C-2.68 6.34 -1.36 5.68 0 5 C0 3.35 0 1.7 0 0 Z " fill="#473A4E" transform="translate(137,27)"/>
<path d="M0 0 C3.42931954 3.7559214 4.56429083 8.23466745 6 13 C3 12 3 12 2.05078125 10.29296875 C1.80714844 9.59816406 1.56351563 8.90335938 1.3125 8.1875 C1.06113281 7.50042969 0.80976563 6.81335937 0.55078125 6.10546875 C0 4 0 4 0 0 Z " fill="#A52E23" transform="translate(179,27)"/>
<path d="M0 0 C1 3 1 3 0.125 5 C-0.24625 5.66 -0.6175 6.32 -1 7 C-1.33 7.99 -1.66 8.98 -2 10 C-3.65 9.67 -5.3 9.34 -7 9 C-6.34 8.67 -5.68 8.34 -5 8 C-4.31513275 6.67592331 -3.65129797 5.34090759 -3 4 C-2.02418241 2.64886795 -1.02970259 1.31053056 0 0 Z " fill="#58CDF3" transform="translate(73,80)"/>
<path d="M0 0 C0.66 0.33 1.32 0.66 2 1 C1.34 5.95 0.68 10.9 0 16 C-3 12 -3 12 -2.6875 9.75 C-2.460625 9.1725 -2.23375 8.595 -2 8 C-1.34 8 -0.68 8 0 8 C0 5.36 0 2.72 0 0 Z " fill="#A6370D" transform="translate(149,64)"/>
<path d="M0 0 C0.33 0 0.66 0 1 0 C1.33 2.97 1.66 5.94 2 9 C-2 7 -2 7 -4 5 C-2.69254251 3.31295807 -1.35827971 1.64639965 0 0 Z " fill="#4D3845" transform="translate(130,31)"/>
<path d="M0 0 C1.32 0 2.64 0 4 0 C3.125 5.75 3.125 5.75 2 8 C1.34 8 0.68 8 0 8 C0 5.36 0 2.72 0 0 Z " fill="#5E1A17" transform="translate(144,32)"/>
<path d="M0 0 C4.1424367 1.38081223 5.32203099 3.59825558 8 7 C7.34 7 6.68 7 6 7 C6.66 8.32 7.32 9.64 8 11 C7.01 11.495 7.01 11.495 6 12 C4.02 8.04 2.04 4.08 0 0 Z " fill="#F2E6DE" transform="translate(171,11)"/>
<path d="M0 0 C0.66 0 1.32 0 2 0 C2 1.98 2 3.96 2 6 C0.68 6 -0.64 6 -2 6 C-2 2 -2 2 0 0 Z " fill="#5E363C" transform="translate(78,152)"/>
<path d="M0 0 C2.70272533 2.87164566 3.94791837 4.30991841 4.25 8.3125 C4.1675 9.199375 4.085 10.08625 4 11 C1.55160412 7.32740617 0 4.45351799 0 0 Z M4 1 C4.99 1.495 4.99 1.495 6 2 C6 2.99 6 3.98 6 5 C5.34 5 4.68 5 4 5 C4 3.68 4 2.36 4 1 Z " fill="#F3F1E8" transform="translate(224,144)"/>
<path d="M0 0 C0.33 0.66 0.66 1.32 1 2 C0.34 2 -0.32 2 -1 2 C-1 2.99 -1 3.98 -1 5 C-1.66 5 -2.32 5 -3 5 C-3.33 5.99 -3.66 6.98 -4 8 C-4.99 8.33 -5.98 8.66 -7 9 C-6.82374165 6.62051228 -6.30280227 5.29774151 -4.59765625 3.62109375 C-3.09350908 2.37884514 -1.54870149 1.18623944 0 0 Z " fill="#4E323E" transform="translate(89,138)"/>
<path d="M0 0 C1.5625 1.1875 1.5625 1.1875 3 3 C2.875 5.5625 2.875 5.5625 2 8 C1.01 8.66 0.02 9.32 -1 10 C-1.125 2.25 -1.125 2.25 0 0 Z " fill="#475774" transform="translate(105,99)"/>
<path d="M0 0 C0.66 0.33 1.32 0.66 2 1 C1.64766839 6.4611399 1.64766839 6.4611399 1 9 C-1.0625 10.5 -1.0625 10.5 -3 11 C-3.125 8.625 -3.125 8.625 -3 6 C-2.34 5.34 -1.68 4.68 -1 4 C-0.3574765 1.93125966 -0.3574765 1.93125966 0 0 Z " fill="#46C1FC" transform="translate(74,79)"/>
<path d="M0 0 C0.66 0 1.32 0 2 0 C2 1.98 2 3.96 2 6 C1.34 6 0.68 6 0 6 C0 6.66 0 7.32 0 8 C-0.66 8 -1.32 8 -2 8 C-2.33 8.66 -2.66 9.32 -3 10 C-2.49287967 6.28111761 -1.88391785 3.26545761 0 0 Z " fill="#472E3A" transform="translate(128,64)"/>
<path d="M0 0 C0.33 0 0.66 0 1 0 C1.16682272 4.92127034 1.24828052 8.50343896 -1 13 C-1.33 13 -1.66 13 -2 13 C-2 10.03 -2 7.06 -2 4 C-1.34 4 -0.68 4 0 4 C0 2.68 0 1.36 0 0 Z " fill="#4C1E24" transform="translate(143,32)"/>
<path d="M0 0 C1.5 1.375 1.5 1.375 3 3 C3 3.66 3 4.32 3 5 C-0.62690383 6.20896794 -1.37309617 6.20896794 -5 5 C-3.35 3.35 -1.7 1.7 0 0 Z " fill="#FBF4EB" transform="translate(140,186)"/>
<path d="M0 0 C0.33 0.66 0.66 1.32 1 2 C1.99 2 2.98 2 4 2 C3.67 3.65 3.34 5.3 3 7 C1.02 5.35 -0.96 3.7 -3 2 C-2.01 1.34 -1.02 0.68 0 0 Z " fill="#B53625" transform="translate(215,153)"/>
<path d="M0 0 C2.97 0.495 2.97 0.495 6 1 C3.375 4.875 3.375 4.875 0 6 C-0.66 5.67 -1.32 5.34 -2 5 C-2 3 -2 3 0 1 C0 0.67 0 0.34 0 0 Z " fill="#FBF3EE" transform="translate(194,145)"/>
<path d="M0 0 C0.66 0 1.32 0 2 0 C1.71758359 1.46015291 1.42373386 2.91809793 1.125 4.375 C0.96257812 5.18710938 0.80015625 5.99921875 0.6328125 6.8359375 C0 9 0 9 -2 11 C-1.67 9.02 -1.34 7.04 -1 5 C-1.66 4.67 -2.32 4.34 -3 4 C-1.625 2 -1.625 2 0 0 Z " fill="#496B90" transform="translate(95,117)"/>
<path d="M0 0 C0.66 0.66 1.32 1.32 2 2 C2.99 2 3.98 2 5 2 C4.67 3.32 4.34 4.64 4 6 C3.34 6 2.68 6 2 6 C2 5.34 2 4.68 2 4 C0.35 3.67 -1.3 3.34 -3 3 C-2 1 -2 1 0 0 Z " fill="#F47D12" transform="translate(131,186)"/>
<path d="M0 0 C2.97 0.495 2.97 0.495 6 1 C5 4 5 4 3 6 C1.68 5.01 0.36 4.02 -1 3 C-0.67 2.01 -0.34 1.02 0 0 Z " fill="#7A93B5" transform="translate(34,138)"/>
<path d="M0 0 C0.93065133 2.60582371 1.14917407 3.64198224 0.0625 6.25 C-0.4634375 7.11625 -0.4634375 7.11625 -1 8 C-1.99 7.67 -2.98 7.34 -4 7 C-3.43628586 3.73045798 -2.50037734 2.17424117 0 0 Z " fill="#443442" transform="translate(87,92)"/>
<path d="M0 0 C0.33 0 0.66 0 1 0 C1 1.98 1 3.96 1 6 C0.34 6 -0.32 6 -1 6 C-1.66 7.32 -2.32 8.64 -3 10 C-3.33 8.68 -3.66 7.36 -4 6 C-3.34 6 -2.68 6 -2 6 C-1.7834375 5.071875 -1.7834375 5.071875 -1.5625 4.125 C-1 2 -1 2 0 0 Z " fill="#472B3A" transform="translate(124,74)"/>
<path d="M0 0 C2.97 0 5.94 0 9 0 C8.34 1.65 7.68 3.3 7 5 C3.535 3.02 3.535 3.02 0 1 C0 0.67 0 0.34 0 0 Z " fill="#F9F6F4" transform="translate(160,0)"/>
<path d="M0 0 C0.66 0.99 1.32 1.98 2 3 C1.67 3.99 1.34 4.98 1 6 C0.01 6.33 -0.98 6.66 -2 7 C-2.66 5.68 -3.32 4.36 -4 3 C-2.68 2.67 -1.36 2.34 0 2 C0 1.34 0 0.68 0 0 Z " fill="#EA7A19" transform="translate(94,178)"/>
<path d="M0 0 C0.33 0.99 0.66 1.98 1 3 C-1.17105124 5.87517597 -3.4542872 8.4542872 -6 11 C-6.66 10.01 -7.32 9.02 -8 8 C-7.50628906 7.59007812 -7.01257813 7.18015625 -6.50390625 6.7578125 C-5.86324219 6.21898437 -5.22257812 5.68015625 -4.5625 5.125 C-3.92441406 4.59132812 -3.28632812 4.05765625 -2.62890625 3.5078125 C-0.89194996 2.0777243 -0.89194996 2.0777243 0 0 Z " fill="#4C749E" transform="translate(79,144)"/>
<path d="M0 0 C0.33 0.66 0.66 1.32 1 2 C0.00390625 4.1640625 0.00390625 4.1640625 -1.4375 6.625 C-1.91058594 7.44226563 -2.38367188 8.25953125 -2.87109375 9.1015625 C-3.24363281 9.72804688 -3.61617188 10.35453125 -4 11 C-4.33 11 -4.66 11 -5 11 C-5 9.35 -5 7.7 -5 6 C-4.01 5.67 -3.02 5.34 -2 5 C-1.33820153 3.01954441 -1.33820153 3.01954441 -1 1 C-0.67 0.67 -0.34 0.34 0 0 Z " fill="#442A38" transform="translate(101,118)"/>
<path d="M0 0 C0.66 0.33 1.32 0.66 2 1 C-0.75 5.875 -0.75 5.875 -3 7 C-3.66 6.67 -4.32 6.34 -5 6 C-5 5.34 -5 4.68 -5 4 C-3.37373596 2.61767557 -1.7074998 1.28062485 0 0 Z " fill="#458BC2" transform="translate(78,86)"/>
<path d="M0 0 C0.5534764 2.07553648 1 3.84365964 1 6 C1.66 6 2.32 6 3 6 C3 6.66 3 7.32 3 8 C1.35 7.67 -0.3 7.34 -2 7 C-2.33 6.01 -2.66 5.02 -3 4 C-1.5625 1.8125 -1.5625 1.8125 0 0 Z " fill="#FBF2EC" transform="translate(155,168)"/>
<path d="M0 0 C1.98 0 3.96 0 6 0 C4.515 2.475 4.515 2.475 3 5 C1.68 4.34 0.36 3.68 -1 3 C-0.67 2.01 -0.34 1.02 0 0 Z " fill="#697D9D" transform="translate(78,128)"/>
<path d="M0 0 C0 3 0 3 -1.5 4.6875 C-1.995 5.120625 -2.49 5.55375 -3 6 C-4.32 4.68 -5.64 3.36 -7 2 C-4.69 1.34 -2.38 0.68 0 0 Z " fill="#7895BF" transform="translate(15,120)"/>
<path d="M0 0 C0.66 0 1.32 0 2 0 C2.53229326 1.26607607 3.05044544 2.53810412 3.5625 3.8125 C3.85253906 4.52019531 4.14257812 5.22789063 4.44140625 5.95703125 C5 8 5 8 4 11 C4 10.34 4 9.68 4 9 C3.34 9 2.68 9 2 9 C1.855625 8.2575 1.71125 7.515 1.5625 6.75 C1.09812508 4.47972261 0.58136431 2.24240521 0 0 Z " fill="#A52216" transform="translate(206,104)"/>
<path d="M0 0 C0.33 1.32 0.66 2.64 1 4 C0.01 4.495 0.01 4.495 -1 5 C-2.13350534 7.01669827 -2.13350534 7.01669827 -3 9 C-3.66 8.67 -4.32 8.34 -5 8 C-4.67 6.68 -4.34 5.36 -4 4 C-3.34 4 -2.68 4 -2 4 C-1.34 2.68 -0.68 1.36 0 0 Z " fill="#481419" transform="translate(119,92)"/>
<path d="M0 0 C0.33 0 0.66 0 1 0 C1.17942163 3.94727588 1.09350689 6.5980513 -1 10 C-1.66 10 -2.32 10 -3 10 C-2.49287967 6.28111761 -1.88391785 3.26545761 0 0 Z " fill="#48C4F7" transform="translate(144,20)"/>
<path d="M0 0 C0.99 0 1.98 0 3 0 C2.67 1.32 2.34 2.64 2 4 C1.34 4 0.68 4 0 4 C0 5.98 0 7.96 0 10 C-0.33 10 -0.66 10 -1 10 C-1.125 2.25 -1.125 2.25 0 0 Z " fill="#722821" transform="translate(152,16)"/>
<path d="M0 0 C1.74627478 2.61941217 2.38722388 4.03824877 3 7 C1.02 6.34 -0.96 5.68 -3 5 C-2.01 3.35 -1.02 1.7 0 0 Z " fill="#F8EBE4" transform="translate(162,160)"/>
<path d="M0 0 C1.32 0.33 2.64 0.66 4 1 C3.67 2.98 3.34 4.96 3 7 C2.01 6.67 1.02 6.34 0 6 C0 4.02 0 2.04 0 0 Z " fill="#D15510" transform="translate(152,160)"/>
<path d="M0 0 C0.99 0 1.98 0 3 0 C2.67 2.64 2.34 5.28 2 8 C1.34 8 0.68 8 0 8 C0 5.36 0 2.72 0 0 Z " fill="#F8F7F6" transform="translate(228,149)"/>
<path d="M0 0 C2.64 0.33 5.28 0.66 8 1 C7.67 1.99 7.34 2.98 7 4 C3.73045798 3.43628586 2.17424117 2.50037734 0 0 Z " fill="#788FB0" transform="translate(40,145)"/>
<path d="M0 0 C0.99 0.33 1.98 0.66 3 1 C1.515 3.475 1.515 3.475 0 6 C-0.99 5.67 -1.98 5.34 -3 5 C-1.125 1.125 -1.125 1.125 0 0 Z " fill="#6D7FA1" transform="translate(85,122)"/>
<path d="M0 0 C0.66 0.33 1.32 0.66 2 1 C2 2.65 2 4.3 2 6 C-0.97 5.505 -0.97 5.505 -4 5 C-3.67 3.68 -3.34 2.36 -3 1 C-2.67 1.66 -2.34 2.32 -2 3 C-1.34 3 -0.68 3 0 3 C0 2.01 0 1.02 0 0 Z " fill="#A72510" transform="translate(191,59)"/>
<path d="M0 0 C1.60725635 3.21451269 1.05748185 6.43612536 1 10 C-0.99097846 7.01353231 -1.94124926 4.40312738 -3 1 C-2.01 0.67 -1.02 0.34 0 0 Z " fill="#F2EBE7" transform="translate(190,44)"/>
<path d="M0 0 C1.45606519 4.52092968 0.27032841 7.51648796 -1 12 C-1.33 12 -1.66 12 -2 12 C-2.05422947 10.5629191 -2.09289723 9.12524538 -2.125 7.6875 C-2.14820313 6.88699219 -2.17140625 6.08648437 -2.1953125 5.26171875 C-2 3 -2 3 0 0 Z " fill="#A7421D" transform="translate(157,12)"/>
<path d="M0 0 C0.66 0 1.32 0 2 0 C2.625 1.875 2.625 1.875 3 4 C2.34 4.66 1.68 5.32 1 6 C-1.625 5.625 -1.625 5.625 -4 5 C-2.68 4.67 -1.36 4.34 0 4 C0 2.68 0 1.36 0 0 Z " fill="#FAC21B" transform="translate(122,197)"/>
<path d="M0 0 C0.66 0.33 1.32 0.66 2 1 C0.1875 3 0.1875 3 -2 5 C-2.99 5 -3.98 5 -5 5 C-5 4.01 -5 3.02 -5 2 C-2.625 0.9375 -2.625 0.9375 0 0 Z " fill="#C35514" transform="translate(101,171)"/>
<path d="M0 0 C0 0.99 0 1.98 0 3 C-1.65 3 -3.3 3 -5 3 C-5.33 2.01 -5.66 1.02 -6 0 C-3 -1 -3 -1 0 0 Z " fill="#AE2A17" transform="translate(216,125)"/>
<path d="M0 0 C0.66 0.33 1.32 0.66 2 1 C1.01 3.31 0.02 5.62 -1 8 C-1.99 7.34 -2.98 6.68 -4 6 C-2.84826645 3.53199953 -1.95216435 1.95216435 0 0 Z " fill="#486C95" transform="translate(80,88)"/>
<path d="M0 0 C1.125 3.75 1.125 3.75 0 6 C-0.66 6 -1.32 6 -2 6 C-2.33 6.99 -2.66 7.98 -3 9 C-3.33 8.34 -3.66 7.68 -4 7 C-3.22265625 5.2734375 -3.22265625 5.2734375 -2.0625 3.375 C-1.381875 2.26125 -0.70125 1.1475 0 0 Z " fill="#453144" transform="translate(119,84)"/>
<path d="M0 0 C1.125 1.6875 1.125 1.6875 2 4 C1.125 6.75 1.125 6.75 0 9 C-0.33 9 -0.66 9 -1 9 C-1.09765625 2.84765625 -1.09765625 2.84765625 -1 1 C-0.67 0.67 -0.34 0.34 0 0 Z " fill="#441E24" transform="translate(131,60)"/>
<path d="M0 0 C0.66 0 1.32 0 2 0 C2 0.66 2 1.32 2 2 C2.66 2.33 3.32 2.66 4 3 C3.34 3.66 2.68 4.32 2 5 C1.01 5 0.02 5 -1 5 C-0.67 3.35 -0.34 1.7 0 0 Z " fill="#CE580E" transform="translate(146,168)"/>
<path d="M0 0 C3.875 4.75 3.875 4.75 5 7 C3.125 6.75 3.125 6.75 1 6 C-0.3125 4.0625 -0.3125 4.0625 -1 2 C-0.67 1.34 -0.34 0.68 0 0 Z " fill="#B72114" transform="translate(219,156)"/>
<path d="M0 0 C1.32 0.66 2.64 1.32 4 2 C3.01 2.99 2.02 3.98 1 5 C0.01 4.01 -0.98 3.02 -2 2 C-1.34 1.34 -0.68 0.68 0 0 Z " fill="#748CB1" transform="translate(49,148)"/>
<path d="M0 0 C2.31 0.33 4.62 0.66 7 1 C6.67 1.99 6.34 2.98 6 4 C5.01 4.33 4.02 4.66 3 5 C2.67 4.01 2.34 3.02 2 2 C1.34 1.34 0.68 0.68 0 0 Z " fill="#C43016" transform="translate(201,144)"/>
<path d="M0 0 C0.66 0 1.32 0 2 0 C2.33 1.65 2.66 3.3 3 5 C2.01 5.33 1.02 5.66 0 6 C0 4.02 0 2.04 0 0 Z " fill="#48171A" transform="translate(107,110)"/>
<path d="M0 0 C1.98 0.495 1.98 0.495 4 1 C3.67 1.99 3.34 2.98 3 4 C2.34 4 1.68 4 1 4 C0.34 4.66 -0.32 5.32 -1 6 C-0.67 4.02 -0.34 2.04 0 0 Z " fill="#F99918" transform="translate(159,14)"/>
</svg>
