<?xml version="1.0" encoding="UTF-8"?>
<svg version="1.1" xmlns="http://www.w3.org/2000/svg" width="225" height="225">
<path d="M0 0 C74.25 0 148.5 0 225 0 C225 74.25 225 148.5 225 225 C150.75 225 76.5 225 0 225 C0 150.75 0 76.5 0 0 Z " fill="#FDFEFE" transform="translate(0,0)"/>
<path d="M0 0 C0.90239914 0.38862717 1.80479828 0.77725433 2.73454285 1.17765808 C5.61091893 2.41820932 8.48318107 3.66798501 11.35546875 4.91796875 C13.27513155 5.7473447 15.19505103 6.57612682 17.11523438 7.40429688 C25.27678761 10.92924725 33.42463137 14.4819705 41.54296875 18.10546875 C40.95756631 21.2891364 40.05505394 22.99087634 37.83422852 25.3293457 C37.2659584 25.93289383 36.69768829 26.53644196 36.11219788 27.15827942 C35.49251633 27.79698471 34.87283478 28.43569 34.234375 29.09375 C33.59362534 29.75634323 32.95287567 30.41893646 32.29270935 31.10160828 C30.93277308 32.49862688 29.56822917 33.89117273 28.19946289 35.27954102 C26.11901824 37.40413174 24.07895495 39.56298867 22.03710938 41.72460938 C20.70937776 43.07912702 19.37936935 44.43141738 18.046875 45.78125 C17.44541153 46.43007645 16.84394806 47.07890289 16.22425842 47.74739075 C13.60253549 50.33021565 11.82909697 51.9977902 8.07617188 52.31199646 C5.50302527 52.07758382 3.06547109 51.65884656 0.54296875 51.10546875 C-1.15496826 50.82207642 -1.15496826 50.82207642 -2.88720703 50.53295898 C-3.88220215 50.32872314 -4.87719727 50.1244873 -5.90234375 49.9140625 C-6.99804688 49.69169922 -8.09375 49.46933594 -9.22265625 49.24023438 C-10.33125 49.01013672 -11.43984375 48.78003906 -12.58203125 48.54296875 C-13.72929687 48.30900391 -14.8765625 48.07503906 -16.05859375 47.83398438 C-18.85901105 47.26223251 -21.65841922 46.68598085 -24.45703125 46.10546875 C-25.44703125 42.64046875 -25.44703125 42.64046875 -26.45703125 39.10546875 C-27.11703125 39.10546875 -27.77703125 39.10546875 -28.45703125 39.10546875 C-27.66366747 31.51787264 -26.72767934 23.95116865 -25.62988281 16.40161133 C-25.43027858 14.98851155 -25.24256273 13.57368457 -25.06640625 12.1574707 C-23.60773253 0.51355407 -23.60773253 0.51355407 -20.92675781 -2.76708984 C-14.00185726 -7.21282264 -6.6635297 -2.91520397 0 0 Z " fill="#3CABBC" transform="translate(181.45703125,98.89453125)"/>
<path d="M0 0 C7.45391259 2.38209693 14.70826526 5.13069218 21.9375 8.125 C23.07251953 8.56070313 24.20753906 8.99640625 25.37695312 9.4453125 C33.37868372 12.80441706 33.37868372 12.80441706 35.16064453 16.23339844 C35.67147761 18.52768277 35.8791029 20.65698766 36 23 C36.21785156 23.66733154 36.43570313 24.33466309 36.66015625 25.0222168 C37.1318674 27.7674266 36.28573651 28.74412811 34.74609375 31.02734375 C34.22805176 31.81012695 33.71000977 32.59291016 33.17626953 33.39941406 C32.60247559 34.23698242 32.02868164 35.07455078 31.4375 35.9375 C30.2352961 37.7223997 29.03348694 39.50756533 27.83203125 41.29296875 C27.20248535 42.22157715 26.57293945 43.15018555 25.92431641 44.10693359 C23.97759605 47.03368266 22.11275365 50.00024463 20.26171875 52.98828125 C19.65336182 53.95193604 19.04500488 54.91559082 18.41821289 55.90844727 C17.23926929 57.77661943 16.07767837 59.65587621 14.93530273 61.54663086 C10.95996069 67.73514716 10.95996069 67.73514716 6.41796875 68.98828125 C1.87668489 67.67520146 0.15620958 65.2360522 -2.3125 61.4375 C-3.00907715 60.42780151 -3.00907715 60.42780151 -3.71972656 59.39770508 C-5.17123531 57.28071647 -6.58740956 55.14310569 -8 53 C-8.89333585 51.67107064 -9.78783368 50.34292153 -10.68359375 49.015625 C-12.3701269 46.50834198 -14.03653023 43.98920167 -15.69140625 41.4609375 C-18.27372252 37.53944258 -21.06512857 33.77943693 -23.91796875 30.05078125 C-25 28 -25 28 -24.90185547 26.22436523 C-23.5667093 22.93131792 -21.15847883 20.79085842 -18.65234375 18.359375 C-17.85540855 17.56880707 -17.85540855 17.56880707 -17.04237366 16.76226807 C-15.34767175 15.08432813 -13.64282783 13.41713272 -11.9375 11.75 C-10.78512255 10.61267255 -9.63342148 9.47465934 -8.48242188 8.3359375 C-5.66272816 5.54928008 -2.83389412 2.77221208 0 0 Z " fill="#32B4BA" transform="translate(59,48)"/>
<path d="M0 0 C7.15617191 -0.37298835 13.49520653 1.03716013 20.4375 2.6875 C27.67851758 4.3745773 34.90329078 6.02187189 42.22265625 7.3359375 C43.36226807 7.54387939 44.50187988 7.75182129 45.67602539 7.96606445 C47.85319785 8.35672419 50.03340692 8.73090415 52.21655273 9.08666992 C59.54423887 10.42406748 59.54423887 10.42406748 62 13.52734375 C62.495 14.75130859 62.495 14.75130859 63 16 C63.99 16.66 64.98 17.32 66 18 C65.5444665 20.96096773 65.08882863 23.92191904 64.6328125 26.8828125 C64.18804044 29.77312488 63.7457919 32.66381321 63.3046875 35.5546875 C62.67399158 39.6844844 62.03636954 43.81317537 61.39550781 47.94140625 C61.12967336 49.66112543 60.86603598 51.38118554 60.60449219 53.1015625 C60.2211048 55.6206935 59.83007052 58.13853585 59.4375 60.65625 C59.26553101 61.80317322 59.26553101 61.80317322 59.09008789 62.9732666 C57.55775655 72.67132529 57.55775655 72.67132529 53.875 75.8125 C53.25625 76.204375 52.6375 76.59625 52 77 C45.05458456 67.72981972 38.41017325 58.28600026 31.91308594 48.6965332 C27.22473782 41.78045135 22.47202564 34.91233738 17.6875 28.0625 C13.08733201 21.46298338 8.49450039 14.85960355 4 8.1875 C3.58451904 7.57720947 3.16903809 6.96691895 2.7409668 6.33813477 C0 2.23597903 0 2.23597903 0 0 Z " fill="#42A5BD" transform="translate(77,136)"/>
<path d="M0 0 C5.49111824 0.93191302 7.8695898 4.11088712 10.97143555 8.40063477 C13.25309054 11.81486382 15.39667776 15.30072901 17.50732422 18.82275391 C19.75316771 22.50847571 22.21014812 26.03020985 24.6875 29.5625 C25.59373418 30.87671814 26.49868949 32.19181908 27.40234375 33.5078125 C27.84433105 34.15008789 28.28631836 34.79236328 28.74169922 35.45410156 C30.03895558 37.34075832 31.33424505 39.22874916 32.62890625 41.1171875 C33.50255522 42.39065858 34.37625371 43.66409569 35.25 44.9375 C35.9006543 45.88665283 35.9006543 45.88665283 36.56445312 46.85498047 C39.44604556 51.04963896 42.35482914 55.22436226 45.27734375 59.390625 C46.00606689 60.4314624 46.73479004 61.4722998 47.4855957 62.54467773 C48.93544757 64.61408045 50.38833465 66.68136048 51.84448242 68.74633789 C52.83798706 70.16547485 52.83798706 70.16547485 53.8515625 71.61328125 C54.44662598 72.45930908 55.04168945 73.30533691 55.65478516 74.17700195 C57.0625 76.375 57.0625 76.375 58.0625 79.375 C54.16936587 83.26813413 51.08233913 85.4516483 45.4528656 85.63546753 C36.69182881 84.68081624 28.45260487 73.11281093 22.43359375 67.1171875 C21.23200853 65.92458172 20.03035226 64.73204752 18.82862854 63.5395813 C16.3263157 61.05366518 13.8283453 58.56347309 11.33276367 56.07080078 C8.1298047 52.87326587 4.91092499 49.69227076 1.68804836 46.51482964 C-0.79183094 44.06460895 -3.26046367 41.6032943 -5.72605705 39.13870621 C-6.90896325 37.96001205 -8.09600016 36.78544856 -9.28717232 35.61510849 C-10.94376857 33.98523832 -12.58397035 32.340459 -14.22094727 30.69091797 C-14.71691406 30.20978546 -15.21288086 29.72865295 -15.72387695 29.23294067 C-17.0615387 27.86569214 -17.0615387 27.86569214 -18.9375 25.375 C-18.79632568 23.18014526 -18.79632568 23.18014526 -17.9375 21.375 C-17.59936279 20.64958008 -17.26122559 19.92416016 -16.9128418 19.17675781 C-7.10017419 1.11709407 -7.10017419 1.11709407 0 0 Z " fill="#46A2BE" transform="translate(65.9375,139.625)"/>
<path d="M0 0 C4.60987238 2.70277449 8.19742333 5.94250894 11.875 9.75 C12.37257812 10.25660156 12.87015625 10.76320313 13.3828125 11.28515625 C14.59323202 12.51885307 15.79729853 13.75877784 17 15 C14.97327073 21.03164341 11.22919201 26.15805627 7.80737305 31.46630859 C5.29133903 35.37548757 2.80893236 39.27489749 0.5234375 43.32421875 C-4.72248192 52.45878544 -4.72248192 52.45878544 -8.37890625 54.0078125 C-10.75 54.25 -10.75 54.25 -12.859375 54.078125 C-15.0974573 53.82023809 -15.0974573 53.82023809 -17.20678711 55.14697266 C-21.15607594 56.35305737 -23.08073618 55.18981434 -26.83203125 53.5703125 C-27.46864182 53.30113007 -28.10525238 53.03194763 -28.76115417 52.75460815 C-30.78562166 51.89418654 -32.79872902 51.0101265 -34.8125 50.125 C-36.18616809 49.53616949 -37.56051127 48.94891122 -38.93554688 48.36328125 C-42.29837911 46.92699047 -45.65144739 45.46932425 -49 44 C-49 40 -49 40 -47.67367554 38.17919922 C-47.05223663 37.56061035 -46.43079773 36.94202148 -45.79052734 36.3046875 C-44.73845596 35.24338623 -44.73845596 35.24338623 -43.66513062 34.16064453 C-42.89649689 33.40638184 -42.12786316 32.65211914 -41.3359375 31.875 C-40.15869614 30.6991333 -40.15869614 30.6991333 -38.95767212 29.49951172 C-37.29274219 27.84062962 -35.62294857 26.18661695 -33.94873047 24.53710938 C-31.39571482 22.02042007 -28.85888266 19.48828213 -26.32421875 16.953125 C-24.7040622 15.34280652 -23.08299716 13.73340147 -21.4609375 12.125 C-20.70444916 11.3707373 -19.94796082 10.61647461 -19.16854858 9.83935547 C-7.98977002 -1.14139572 -7.98977002 -1.14139572 0 0 Z " fill="#28BFB8" transform="translate(116,0)"/>
<path d="M0 0 C-0.62496722 9.07618554 -1.45721536 18.10211694 -2.625 27.125 C-2.75261719 28.32898438 -2.88023437 29.53296875 -3.01171875 30.7734375 C-4.14545221 39.27167487 -4.14545221 39.27167487 -6.63964844 41.39746094 C-8.5234375 42.1796875 -8.5234375 42.1796875 -12 43 C-12.66 43.66 -13.32 44.32 -14 45 C-22.62556028 45.45281579 -31.79217906 42.4676205 -40.1875 40.625 C-43.01390495 40.01108503 -45.84093816 39.40008898 -48.66796875 38.7890625 C-49.69976761 38.56515839 -49.69976761 38.56515839 -50.75241089 38.33673096 C-57.81876496 36.80915682 -64.90626258 35.39441285 -72 34 C-72.33 32.68 -72.66 31.36 -73 30 C-57.28344465 23.16108598 -41.55784678 16.34832112 -25.76000977 9.69873047 C-21.28927442 7.81687015 -16.82127388 5.93241791 -12.37890625 3.984375 C-11.38793945 3.55112915 -11.38793945 3.55112915 -10.37695312 3.10913086 C-8.72975089 2.38593106 -7.08541068 1.65622126 -5.44140625 0.92578125 C-3 0 -3 0 0 0 Z " fill="#39AEBB" transform="translate(152,95)"/>
<path d="M0 0 C0.97453125 0.86109375 1.9490625 1.7221875 2.953125 2.609375 C5.64115938 4.93936645 8.3868044 6.94144161 11.359375 8.890625 C16.41147865 12.56416927 20.62767701 16.08749894 23 22 C24.08483992 30.88393656 21.79229745 40.27293861 19.94921875 48.9296875 C19.80443588 49.61237701 19.65965302 50.29506653 19.51048279 50.9984436 C18.61176925 54.74914957 18.33461719 55.77692187 15 58 C8.18304019 57.49800403 2.0411242 54.31631779 -4.16015625 51.64501953 C-6.25084477 50.74963821 -8.35131218 49.88060542 -10.453125 49.01171875 C-11.78713784 48.44169178 -13.12049584 47.87012934 -14.453125 47.296875 C-15.66129883 46.78479492 -16.86947266 46.27271484 -18.11425781 45.74511719 C-21 44 -21 44 -22.47167969 41.60644531 C-23.29416657 37.54874201 -22.60353607 35.09576513 -20.62060547 31.49560547 C-20.04197754 30.62822754 -19.46334961 29.76084961 -18.8671875 28.8671875 C-18.22523437 27.89523438 -17.58328125 26.92328125 -16.921875 25.921875 C-16.24640625 24.91640625 -15.5709375 23.9109375 -14.875 22.875 C-13.55928861 20.89363225 -12.24418247 18.91186246 -10.9296875 16.9296875 C-10.28225586 15.95741211 -9.63482422 14.98513672 -8.96777344 13.98339844 C-5.91852184 9.36033957 -2.95441797 4.68405776 0 0 Z " fill="#2CBAB9" transform="translate(138,21)"/>
<path d="M0 0 C3.48625721 0.92515649 6.63594613 2.13923111 9.94287109 3.58032227 C10.55587067 3.84525986 11.16887024 4.11019745 11.80044556 4.38316345 C13.73872735 5.22258231 15.67282142 6.07119054 17.60693359 6.92016602 C18.92828135 7.49434815 20.24989361 8.06792201 21.57177734 8.64086914 C24.79491746 10.03944864 28.01437152 11.44629311 31.23193359 12.85766602 C31.17138672 14.64526367 31.17138672 14.64526367 30.23193359 16.85766602 C27.87634184 18.19915164 25.69463481 19.24022552 23.20068359 20.25610352 C22.46939743 20.56802643 21.73811127 20.87994934 20.98466492 21.20132446 C18.57285539 22.22606389 16.15269909 23.22928907 13.73193359 24.23266602 C12.06638588 24.9356969 10.40143287 25.64013825 8.73706055 26.34594727 C5.29808362 27.80159232 1.85568165 29.24864585 -1.58984375 30.6887207 C-6.59119514 32.78024822 -11.58156236 34.89691236 -16.56884766 37.02172852 C-24.29671855 40.31275781 -32.03021162 43.5901764 -39.76806641 46.85766602 C-39.76806641 43.56467657 -39.32618346 42.79523339 -37.60009766 40.11157227 C-36.88817261 38.99286743 -36.88817261 38.99286743 -36.16186523 37.8515625 C-35.64003662 37.04920166 -35.11820801 36.24684082 -34.58056641 35.42016602 C-33.47617374 33.71458317 -32.37201519 32.0088487 -31.26806641 30.30297852 C-30.69185547 29.41513672 -30.11564453 28.52729492 -29.52197266 27.61254883 C-27.76016737 24.84525891 -26.07089166 22.04371728 -24.39306641 19.22485352 C-23.28893964 17.41493334 -22.18477408 15.60503683 -21.08056641 13.79516602 C-20.58339111 12.93286377 -20.08621582 12.07056152 -19.57397461 11.18212891 C-15.92258013 5.30613789 -15.92258013 5.30613789 -12.4765625 3.9675293 C-10.06103516 3.48657227 -10.06103516 3.48657227 -7.80786133 3.27392578 C-5.64909583 3.0487099 -5.64909583 3.0487099 -4.37475586 1.25585938 C-2.76806641 -0.14233398 -2.76806641 -0.14233398 0 0 Z " fill="#32B4BA" transform="translate(116.76806640625,72.142333984375)"/>
<path d="M0 0 C1.65368712 2.17377328 3.18047864 4.35134814 4.6875 6.625 C5.66321287 8.08260035 6.63982834 9.53959677 7.6171875 10.99609375 C8.15053711 11.79257324 8.68388672 12.58905273 9.23339844 13.40966797 C11.15855261 16.23248248 13.14064504 19.00926808 15.1328125 21.78515625 C15.82544189 22.76339355 16.51807129 23.74163086 17.23168945 24.74951172 C18.60729984 26.69179676 19.99629997 28.62467479 21.39916992 30.54736328 C22.34046753 31.89096924 22.34046753 31.89096924 23.30078125 33.26171875 C23.86966064 34.05537842 24.43854004 34.84903809 25.0246582 35.66674805 C26 38 26 38 25.16870117 40.79614258 C24.78302979 41.52341553 24.3973584 42.25068848 24 43 C6.25352501 39.64889075 -11.42353887 36.16818491 -29 32 C-28.53467459 27.226106 -26.63138496 25.05429036 -23.375 21.625 C-22.90006104 21.12258789 -22.42512207 20.62017578 -21.93579102 20.10253906 C-20.30364937 18.38854347 -18.65355034 16.69334532 -17 15 C-16.35434082 14.33387695 -15.70868164 13.66775391 -15.04345703 12.98144531 C-13.01656287 10.89583576 -10.97962131 8.82069623 -8.9375 6.75 C-8.28249512 6.08178223 -7.62749023 5.41356445 -6.95263672 4.72509766 C-6.33791504 4.10940918 -5.72319336 3.4937207 -5.08984375 2.859375 C-4.54191162 2.30733398 -3.99397949 1.75529297 -3.42944336 1.18652344 C-2 0 -2 0 0 0 Z " fill="#3BADBC" transform="translate(29,80)"/>
<path d="M0 0 C4.03088899 0.81151201 8.05654417 1.64634834 12.07983398 2.49462891 C7.58194048 7.88653288 2.81856856 12.88854575 -2.16235352 17.83447266 C-2.9307254 18.6014296 -3.69909729 19.36838654 -4.49075317 20.15858459 C-6.92320111 22.58547631 -9.35911924 25.00885018 -11.79516602 27.43212891 C-13.45425153 29.08619376 -15.11310804 30.74048836 -16.77172852 32.39501953 C-20.8185631 36.43088324 -24.86824555 40.46387168 -28.92016602 44.49462891 C-30.23762393 40.54225516 -29.4461496 37.29328863 -28.77563477 33.28369141 C-28.58086296 32.07596573 -28.58086296 32.07596573 -28.38215637 30.84384155 C-28.10561119 29.14027537 -27.82546244 27.43729084 -27.54199219 25.73486328 C-27.11072519 23.13804929 -26.69331499 20.53928312 -26.27758789 17.93994141 C-26.00693289 16.28355567 -25.73547457 14.62730096 -25.46313477 12.97119141 C-25.33907761 12.19707916 -25.21502045 11.42296692 -25.08720398 10.62539673 C-24.42659066 6.70729309 -23.76464558 3.03665702 -21.92016602 -0.50537109 C-15.69397978 -4.65616192 -6.97509204 -1.37184452 0 0 Z " fill="#44A4BD" transform="translate(172.920166015625,154.50537109375)"/>
<path d="M0 0 C2.26030487 1.88410608 4.27466588 3.73734714 6.32421875 5.828125 C6.91169388 6.4141449 7.49916901 7.00016479 8.10444641 7.60394287 C9.34213307 8.84328652 10.57488415 10.08757625 11.80297852 11.33642578 C13.67924246 13.24161516 15.57342476 15.12748095 17.47070312 17.01171875 C18.67299081 18.22024514 19.87419966 19.42984596 21.07421875 20.640625 C21.63880295 21.20227356 22.20338715 21.76392212 22.78507996 22.34259033 C25.74551632 25.3746513 27.75492645 27.84235229 29 32 C20.86297356 29.49152671 13.15352789 26.11966115 5.375 22.6875 C2.82162984 21.5633809 0.26687518 20.44248732 -2.2890625 19.32421875 C-2.91621155 19.0488327 -3.5433606 18.77344666 -4.18951416 18.48971558 C-7.52656401 17.03541732 -10.87780846 15.63966537 -14.26855469 14.31494141 C-14.96040863 14.04446487 -15.65226257 13.77398834 -16.36508179 13.49531555 C-17.69444468 12.97995275 -19.02626637 12.47087655 -20.36074829 11.96891785 C-24.89128867 10.21742265 -24.89128867 10.21742265 -26 8 C-22.61366906 6.4573431 -19.21467659 4.94485013 -15.8125 3.4375 C-14.85279297 2.99986328 -13.89308594 2.56222656 -12.90429688 2.11132812 C-11.97294922 1.70205078 -11.04160156 1.29277344 -10.08203125 0.87109375 C-8.80162964 0.29766235 -8.80162964 0.29766235 -7.49536133 -0.28735352 C-4.38504956 -1.17562277 -3.03600757 -1.15568426 0 0 Z " fill="#39AFBB" transform="translate(196,78)"/>
<path d="M0 0 C8.44372681 1.36718869 16.85109621 2.88105242 25.25 4.5 C26.92835937 4.81904297 26.92835937 4.81904297 28.640625 5.14453125 C34.47889966 6.26674678 40.25063352 7.48553273 46 9 C42.36025264 13.09610034 37.50170956 14.68335856 32.5625 16.8125 C31.60794922 17.24498047 30.65339844 17.67746094 29.66992188 18.12304688 C28.74888672 18.52201172 27.82785156 18.92097656 26.87890625 19.33203125 C25.61929077 19.88467651 25.61929077 19.88467651 24.33422852 20.44848633 C22 21 22 21 19.96557617 20.36035156 C17.61414701 18.7329558 15.68929513 16.9310703 13.671875 14.90234375 C12.87265625 14.10119141 12.0734375 13.30003906 11.25 12.47460938 C10.425 11.63736328 9.6 10.80011719 8.75 9.9375 C7.90953125 9.09638672 7.0690625 8.25527344 6.203125 7.38867188 C-0 1.14023184 -0 1.14023184 0 0 Z " fill="#41A9BD" transform="translate(3,120)"/>
<path d="M0 0 C5.06623768 4.23816537 9.80038069 8.67408963 14.4375 13.375 C15.07365234 14.01566406 15.70980469 14.65632813 16.36523438 15.31640625 C17.91250332 16.87530879 19.45736492 18.43651416 21 20 C17.73179214 23.59483837 13.98770128 24.94425036 9.5625 26.75 C8.79873047 27.07871094 8.03496094 27.40742187 7.24804688 27.74609375 C6.13719727 28.20435547 6.13719727 28.20435547 5.00390625 28.671875 C4.33174072 28.9512793 3.6595752 29.23068359 2.96704102 29.51855469 C0.61745364 30.09363056 -0.74038806 29.80485167 -3 29 C-3.33 28.67 -3.66 28.34 -4 28 C-3.93162858 18.54765115 -1.86168722 9.22647505 0 0 Z " fill="#32B5BA" transform="translate(167,50)"/>
<path d="M0 0 C-0.97365194 4.67404894 -3.32967295 8.22916992 -5.8125 12.25 C-6.25142578 12.99507812 -6.69035156 13.74015625 -7.14257812 14.5078125 C-7.57634766 15.21164063 -8.01011719 15.91546875 -8.45703125 16.640625 C-8.84866455 17.28547852 -9.24029785 17.93033203 -9.64379883 18.59472656 C-10.09134521 19.0584668 -10.5388916 19.52220703 -11 20 C-15 20 -15 20 -17.359375 18.1015625 C-18.14828125 17.28429687 -18.9371875 16.46703125 -19.75 15.625 C-20.54921875 14.81289062 -21.3484375 14.00078125 -22.171875 13.1640625 C-24 11 -24 11 -24 9 C-20.56631406 7.49115787 -17.12746451 5.99446599 -13.6875 4.5 C-12.71103516 4.07074219 -11.73457031 3.64148438 -10.72851562 3.19921875 C-9.79072266 2.79316406 -8.85292969 2.38710937 -7.88671875 1.96875 C-7.02264404 1.59169922 -6.15856934 1.21464844 -5.26831055 0.82617188 C-3 0 -3 0 0 0 Z " fill="#43A8BD" transform="translate(54,137)"/>
</svg>
