<?xml version="1.0" encoding="UTF-8"?>
<svg version="1.1" xmlns="http://www.w3.org/2000/svg" width="225" height="225">
<path d="M0 0 C74.25 0 148.5 0 225 0 C225 74.25 225 148.5 225 225 C150.75 225 76.5 225 0 225 C0 150.75 0 76.5 0 0 Z " fill="#FEFEFE" transform="translate(0,0)"/>
<path d="M0 0 C1.98 0.66 3.96 1.32 6 2 C6.74733398 2.23831543 7.49466797 2.47663086 8.26464844 2.72216797 C16.90142121 6.41242543 19.64867777 15.08994161 23.25 23.125 C23.93501398 24.60011534 24.62249786 26.07408633 25.3125 27.546875 C27.24135732 31.68347788 29.12360092 35.83931003 31 40 C32.65 43.63 34.3 47.26 36 51 C36.33 40.44 36.66 29.88 37 19 C43 21 43 21 53 26 C53 46.79 53 67.58 53 89 C49.23369699 87.4934788 46.02271933 86.04177481 42.5625 84 C41.20318359 83.2265625 41.20318359 83.2265625 39.81640625 82.4375 C31.73291179 75.44152144 27.44610547 63.30919921 22.625 53.875 C21.88182254 52.4269231 21.13833511 50.97900525 20.39453125 49.53125 C18.59220338 46.02293249 16.79626027 42.51145417 15 39 C14.67 48.9 14.34 58.8 14 69 C7.07 65.535 7.07 65.535 0 62 C0 41.54 0 21.08 0 0 Z " fill="#4D77CF" transform="translate(57,84)"/>
<path d="M0 0 C0 8.91 0 17.82 0 27 C-12 33 -12 33 -24 39 C-24 30.09 -24 21.18 -24 12 C-20.9475 10.39125 -17.895 8.7825 -14.75 7.125 C-13.31672363 6.36920654 -13.31672363 6.36920654 -11.85449219 5.59814453 C-11.09297852 5.19708496 -10.33146484 4.79602539 -9.546875 4.3828125 C-8.77182617 3.97434082 -7.99677734 3.56586914 -7.19824219 3.14501953 C-1.16034115 0 -1.16034115 0 0 0 Z " fill="#4CABD0" transform="translate(142,135)"/>
<path d="M0 0 C0 8.58 0 17.16 0 26 C-3.031875 27.60875 -6.06375 29.2175 -9.1875 30.875 C-10.13391357 31.3788623 -11.08032715 31.88272461 -12.05541992 32.40185547 C-12.81443604 32.80291504 -13.57345215 33.20397461 -14.35546875 33.6171875 C-15.12528076 34.02565918 -15.89509277 34.43413086 -16.68823242 34.85498047 C-19.06573903 36.03256057 -21.53660723 37.01464289 -24 38 C-24 29.09 -24 20.18 -24 11 C-20.41125 9.185 -16.8225 7.37 -13.125 5.5 C-11.99465332 4.92572266 -10.86430664 4.35144531 -9.69970703 3.75976562 C-8.36721924 3.08977539 -8.36721924 3.08977539 -7.0078125 2.40625 C-6.09660645 1.94541016 -5.18540039 1.48457031 -4.24658203 1.00976562 C-2 0 -2 0 0 0 Z " fill="#4DABD0" transform="translate(142,99)"/>
<path d="M0 0 C0 8.91 0 17.82 0 27 C-3.09375 28.65 -6.1875 30.3 -9.375 32 C-10.83558838 32.78310547 -10.83558838 32.78310547 -12.32568359 33.58203125 C-13.09219238 33.98808594 -13.85870117 34.39414063 -14.6484375 34.8125 C-15.43395996 35.23144531 -16.21948242 35.65039062 -17.02880859 36.08203125 C-19 37 -19 37 -21 37 C-21 28.09 -21 19.18 -21 10 C-17.720625 8.35 -14.44125 6.7 -11.0625 5 C-9.50994507 4.21689453 -9.50994507 4.21689453 -7.92602539 3.41796875 C-7.11641357 3.01191406 -6.30680176 2.60585937 -5.47265625 2.1875 C-4.22367554 1.55908203 -4.22367554 1.55908203 -2.94946289 0.91796875 C-1 0 -1 0 0 0 Z " fill="#51ADD1" transform="translate(171,84)"/>
<path d="M0 0 C0 8.91 0 17.82 0 27 C-4.6715625 29.475 -4.6715625 29.475 -9.4375 32 C-10.91174438 32.78310547 -10.91174438 32.78310547 -12.41577148 33.58203125 C-13.18477783 33.98808594 -13.95378418 34.39414063 -14.74609375 34.8125 C-15.93223267 35.44091797 -15.93223267 35.44091797 -17.14233398 36.08203125 C-19 37 -19 37 -20 37 C-20 28.09 -20 19.18 -20 10 C-16.885625 8.35 -13.77125 6.7 -10.5625 5 C-9.57967041 4.47792969 -8.59684082 3.95585938 -7.58422852 3.41796875 C-6.81522217 3.01191406 -6.04621582 2.60585937 -5.25390625 2.1875 C-4.46314697 1.76855469 -3.6723877 1.34960938 -2.85766602 0.91796875 C-1 0 -1 0 0 0 Z " fill="#4DABD0" transform="translate(171,120)"/>
<path d="M0 0 C0.68835938 0.37253906 1.37671875 0.74507813 2.0859375 1.12890625 C3.76794798 2.03999526 5.44680436 2.95690315 7.125 3.875 C1.52349977 9.78979533 -6.73821475 14.81118002 -14.875 15.875 C-22.26776334 14.40050094 -28.74699699 10.11146349 -34.875 5.875 C-30.842823 2.40088259 -26.64074114 -0.08069119 -21.9375 -2.5 C-20.90206055 -3.07041016 -20.90206055 -3.07041016 -19.84570312 -3.65234375 C-12.10328744 -7.62996394 -7.05392547 -3.86872269 0 0 Z " fill="#4DABD0" transform="translate(127.875,87.125)"/>
<path d="M0 0 C0.928125 0.515625 1.85625 1.03125 2.8125 1.5625 C3.42593262 1.87074707 4.03936523 2.17899414 4.67138672 2.49658203 C6.70170363 3.51889818 8.69448799 4.59443333 10.6875 5.6875 C11.37585938 6.06003906 12.06421875 6.43257813 12.7734375 6.81640625 C14.45544798 7.72749526 16.13430436 8.64440315 17.8125 9.5625 C14.15030256 12.56056837 10.12673226 14.66023388 5.9375 16.8125 C5.24269531 17.18890625 4.54789063 17.5653125 3.83203125 17.953125 C0.64027566 19.58807325 -1.54526906 20.56502185 -5.171875 20.55078125 C-9.18465548 19.235712 -12.8269884 17.45557072 -16.5625 15.5 C-17.29855469 15.12294922 -18.03460938 14.74589844 -18.79296875 14.35742188 C-20.59489646 13.43305636 -22.39173099 12.49877386 -24.1875 11.5625 C-24.1875 10.9025 -24.1875 10.2425 -24.1875 9.5625 C-20.82834768 7.82161237 -17.44828977 6.12591633 -14.0625 4.4375 C-13.11117187 3.94378906 -12.15984375 3.45007813 -11.1796875 2.94140625 C-4.07862626 -0.55981145 -4.07862626 -0.55981145 0 0 Z " fill="#4EABD0" transform="translate(87.1875,66.4375)"/>
<path d="M0 0 C0.9796875 0.5053125 1.959375 1.010625 2.96875 1.53125 C3.61569824 1.83885254 4.26264648 2.14645508 4.92919922 2.46337891 C7.08712225 3.49202358 9.21572735 4.56722575 11.34375 5.65625 C12.07980469 6.02878906 12.81585938 6.40132813 13.57421875 6.78515625 C15.37425358 7.6968622 17.17176402 8.61354932 18.96875 9.53125 C18.96875 10.19125 18.96875 10.85125 18.96875 11.53125 C13.18621241 15.52282369 7.02198826 19.50369888 -0.03125 20.53125 C-7.42383545 19.09762052 -13.91225223 14.76148791 -20.03125 10.53125 C-20.03125 9.87125 -20.03125 9.21125 -20.03125 8.53125 C-17.34105106 6.95621516 -14.62703479 5.42774149 -11.90625 3.90625 C-11.14570313 3.46023437 -10.38515625 3.01421875 -9.6015625 2.5546875 C-3.88288327 -0.60044587 -3.88288327 -0.60044587 0 0 Z " fill="#4DABD0" transform="translate(145.03125,66.46875)"/>
<path d="M0 0 C1.34074132 0.72952101 2.67664471 1.4679967 4.0078125 2.21484375 C5.04035156 2.78041992 5.04035156 2.78041992 6.09375 3.35742188 C7.7777338 4.2812741 9.45588717 5.21574042 11.1328125 6.15234375 C7.8362999 8.76376205 4.36349064 10.84986026 0.6953125 12.90234375 C-0.41714844 13.5365625 -1.52960938 14.17078125 -2.67578125 14.82421875 C-6.28388196 16.32575393 -7.26105257 16.47495312 -10.8671875 15.15234375 C-13.68760241 13.8890139 -16.43531384 12.50985479 -19.1796875 11.08984375 C-20.29053711 10.52426758 -20.29053711 10.52426758 -21.42382812 9.94726562 C-23.24106272 9.02106218 -25.05451154 8.08743746 -26.8671875 7.15234375 C-26.8671875 6.49234375 -26.8671875 5.83234375 -26.8671875 5.15234375 C-24.16737185 3.77838412 -21.45949704 2.42838685 -18.7421875 1.08984375 C-17.98164062 0.69990234 -17.22109375 0.30996094 -16.4375 -0.09179688 C-10.06299688 -3.19661952 -6.3889067 -3.19289394 0 0 Z " fill="#4DABD0" transform="translate(121.8671875,54.84765625)"/>
</svg>
