<?xml version="1.0" encoding="UTF-8"?>
<svg version="1.1" xmlns="http://www.w3.org/2000/svg" width="225" height="225">
<path d="M0 0 C74.25 0 148.5 0 225 0 C225 74.25 225 148.5 225 225 C150.75 225 76.5 225 0 225 C0 150.75 0 76.5 0 0 Z " fill="#FED343" transform="translate(0,0)"/>
<path d="M0 0 C15.77813653 -0.04691048 31.55625395 -0.08208153 47.33444309 -0.10362434 C54.66203213 -0.11389697 61.98957761 -0.12787962 69.31713867 -0.15087891 C75.71063247 -0.17093668 82.1040947 -0.18374553 88.49761909 -0.18817699 C91.87676943 -0.19076361 95.2558295 -0.1967574 98.63495064 -0.21146011 C145.44723036 -0.39253127 145.44723036 -0.39253127 159.41796875 11.38671875 C164.72178329 16.79529999 167.11018678 21.5566441 167.17700195 29.16455078 C167.19625481 31.07266037 167.19625481 31.07266037 167.21589661 33.01931763 C167.2240671 34.41131194 167.23151024 35.80331068 167.23828125 37.1953125 C167.24235678 37.89844448 167.2464323 38.60157646 167.25063133 39.32601547 C167.2714829 43.05165053 167.28578544 46.77724893 167.29516602 50.50292969 C167.30619578 54.33268787 167.34055754 58.16185946 167.38033772 61.99141121 C167.40661725 64.95131432 167.41486807 67.91108045 167.41844749 70.87108994 C167.42328859 72.28156343 167.43483118 73.69203184 167.45348549 75.10239029 C167.57298747 84.740646 166.97794711 92.13806465 160.75 99.75 C150.64715358 108.01596525 141.94626472 109.28716898 129.05168533 109.27439499 C126.8721955 109.27341875 124.69318424 109.28649978 122.51376343 109.30337524 C116.32268925 109.34931714 110.13166885 109.37423427 103.94042969 109.38085938 C100.1378801 109.38590663 96.33583622 109.41031181 92.53345871 109.44618607 C91.09597196 109.45590467 89.65841497 109.45835994 88.2209053 109.45301437 C76.6171093 109.41187938 67.35859273 110.87560702 58.69140625 119 C53.09916903 125.61252992 51.87716845 133.45314682 51.68359375 141.828125 C51.66281265 142.57713074 51.64203156 143.32613647 51.62062073 144.09783936 C51.55542912 146.48180288 51.49638217 148.86587312 51.4375 151.25 C51.39428584 152.86980254 51.35067063 154.48959443 51.30664062 156.109375 C51.19977904 160.07280832 51.09842667 164.0363486 51 168 C47.20875253 168.14714061 43.41825346 168.23467827 39.625 168.3125 C38.03365234 168.3753418 38.03365234 168.3753418 36.41015625 168.43945312 C27.01060103 168.58361808 20.22576213 166.07005567 13.1875 159.8125 C1.19346151 146.69226071 -0.16785621 127.57889001 -0.11352539 110.68725586 C-0.11367142 109.48625244 -0.11381744 108.28524902 -0.1139679 107.04785156 C-0.11339402 103.78194227 -0.10840743 100.51607682 -0.10139394 97.25017619 C-0.09510744 93.82690674 -0.09455243 90.40363627 -0.09336853 86.98036194 C-0.09027075 80.51015626 -0.08207844 74.03996764 -0.07201904 67.56976944 C-0.06080949 60.19848207 -0.05533529 52.82719385 -0.05032361 45.45590007 C-0.03989441 30.3039239 -0.02232526 15.15196367 0 0 Z " fill="#3873A5" transform="translate(0,0)"/>
<path d="M0 0 C33.66 0 67.32 0 102 0 C102 33 102 66 102 100 C101.67 100 101.34 100 101 100 C100.84144531 98.98421875 100.68289062 97.9684375 100.51953125 96.921875 C98.55329962 85.04774719 95.9631586 70.79138807 85.63671875 63.28125 C79.60650187 59.49338043 74.81362222 57.97482664 67.69921875 57.68359375 C66.23452148 57.62075195 66.23452148 57.62075195 64.74023438 57.55664062 C63.73283203 57.51732422 62.72542969 57.47800781 61.6875 57.4375 C60.14739258 57.37272461 60.14739258 57.37272461 58.57617188 57.30664062 C56.05090431 57.20093175 53.52554438 57.09883532 51 57 C51.02094727 57.93158936 51.04189453 58.86317871 51.06347656 59.82299805 C51.13243862 63.34377312 51.18217512 66.86381085 51.21972656 70.38500977 C51.23960437 71.89684512 51.26671673 73.4086061 51.30175781 74.92016602 C51.57274858 86.92744823 51.24546446 98.51005034 43 108.0625 C36.79618269 114.37536879 27.4006765 116.19315563 18.86132812 116.49829102 C16.92769963 116.51367096 14.99393985 116.52842839 13.06028748 116.51642036 C10.97208496 116.50354135 8.88515726 116.51530054 6.79699707 116.53245544 C3.11257085 116.5589132 -0.57153156 116.56476068 -4.25604248 116.56335449 C-10.14984817 116.56111015 -16.04325312 116.57574373 -21.93690491 116.61894035 C-23.97081675 116.62861868 -26.00406774 116.62014871 -28.03796387 116.61024475 C-38.30734666 116.66627045 -49.17649303 117.22660744 -57.32824707 124.1738739 C-64.493624 132.00091675 -64.72396875 140.82326361 -64.59375 150.94921875 C-64.5920347 152.37547199 -64.59210883 153.80172838 -64.59387207 155.22798157 C-64.59222892 158.19925604 -64.57371336 161.16976678 -64.54199219 164.14086914 C-64.50220788 167.93364001 -64.49796575 171.72541904 -64.50545502 175.51835918 C-64.5085349 178.45680193 -64.49637005 181.39502503 -64.47932434 184.33341408 C-64.47233685 185.73153111 -64.4691646 187.129673 -64.47001648 188.52780724 C-64.4633112 195.76365228 -64.41166307 201.55555876 -61 208 C-61 208.99 -61 209.98 -61 211 C-60.278125 211.2475 -59.55625 211.495 -58.8125 211.75 C-56 213 -56 213 -53.8125 214.875 C-44.75975642 221.71485071 -32.99189207 223.12799186 -22 224 C-22 224.33 -22 224.66 -22 225 C-55.33 225 -88.66 225 -123 225 C-123 191.34 -123 157.68 -123 123 C-122.67 123 -122.34 123 -122 123 C-121.91363281 123.76441406 -121.82726562 124.52882813 -121.73828125 125.31640625 C-119.92521023 139.13899358 -116.70640488 152.15938414 -106.0625 161.8125 C-98.67831971 167.08691449 -92.45819554 167.50272294 -83.5625 167.6875 C-82.44939453 167.72166016 -81.33628906 167.75582031 -80.18945312 167.79101562 C-77.45973617 167.87302429 -74.7303214 167.94232837 -72 168 C-72.02094727 167.02764404 -72.04189453 166.05528809 -72.06347656 165.0534668 C-72.13668232 161.39509203 -72.18208744 157.73677989 -72.21972656 154.07788086 C-72.23966084 152.50387635 -72.26681871 150.92994411 -72.30175781 149.35620117 C-72.56869667 137.0102788 -71.99979404 126.16856077 -63 116.72265625 C-56.43904337 111.07151978 -50.09647765 108.89048498 -41.55419922 108.84228516 C-40.24538788 108.83202301 -38.93657654 108.82176086 -37.58810425 108.81118774 C-36.89064968 108.80774982 -36.19319511 108.8043119 -35.47460556 108.80076981 C-33.27872654 108.78892243 -31.08303907 108.76945207 -28.88723755 108.74765015 C-22.64494316 108.68625136 -16.40266752 108.63216596 -10.16015625 108.59863281 C-6.33632509 108.5775442 -2.51284291 108.54212556 1.3107872 108.49787521 C2.75942722 108.48382237 4.20812899 108.4750173 5.65683365 108.47182083 C16.717469 108.44484666 28.36863111 107.82577446 37 100 C41.11766201 94.1820099 43.1145435 88.9505459 43.17700195 81.81958008 C43.18983719 80.54427933 43.20267242 79.26897858 43.21589661 77.95503235 C43.22406621 76.55986928 43.23150952 75.1647018 43.23828125 73.76953125 C43.24235678 73.06515112 43.2464323 72.36077099 43.25063133 71.63504601 C43.27147993 67.9040799 43.28578476 64.1731504 43.29516602 60.44213867 C43.30620585 56.60331518 43.34058023 52.76507527 43.38033772 48.92645741 C43.40658804 45.96230553 43.41486542 42.99829069 43.41844749 40.03403282 C43.4232947 38.61994184 43.43485513 37.20585621 43.45348549 35.79187965 C43.56210948 26.99855064 43.52058786 20.18313769 37.50996399 13.2915802 C28.30498502 3.88554162 12.50540939 1.99207841 0 1 C0 0.67 0 0.34 0 0 Z " fill="#FEFEFD" transform="translate(123,0)"/>
<path d="M0 0 C0.33 0 0.66 0 1 0 C1 33.99 1 67.98 1 103 C-32.33 103 -65.66 103 -100 103 C-100 102.67 -100 102.34 -100 102 C-99.319375 101.98582031 -98.63875 101.97164063 -97.9375 101.95703125 C-88.69976443 101.50251501 -80.6719613 98.96769678 -72 96 C-70.00022481 95.33265929 -68.00030943 94.66573766 -66 94 C-66 93.34 -66 92.68 -66 92 C-65.236875 91.278125 -64.47375 90.55625 -63.6875 89.8125 C-53.79174156 79.45647373 -58 67.39510541 -58 53 C-75.82 52.67 -93.64 52.34 -112 52 C-112 49.69 -112 47.38 -112 45 C-111.02218063 44.99413376 -110.04436127 44.98826752 -109.03691101 44.98222351 C-99.78372516 44.92480006 -90.5307699 44.85193738 -81.27781963 44.76428509 C-76.52173777 44.71971856 -71.76573887 44.68043284 -67.00952148 44.65356445 C-62.41224368 44.62739381 -57.8152875 44.58689596 -53.21821022 44.53681374 C-51.47174926 44.5202375 -49.72523279 44.50866606 -47.97870445 44.50238609 C-32.83176228 44.44245532 -21.56947538 43.37018525 -10.3125 32.375 C-3.28350605 23.35129155 -0.9762108 11.09797542 0 0 Z " fill="#FEFEFE" transform="translate(224,122)"/>
<path d="M0 0 C33.33 0 66.66 0 101 0 C101 0.33 101 0.66 101 1 C99.36804688 1.14695313 99.36804688 1.14695313 97.703125 1.296875 C85.40982131 2.50361409 73.25165886 3.99356584 64 13 C59.64651599 18.58138976 58.90465531 22.567976 58.68359375 29.515625 C58.62643188 31.20606934 58.62643188 31.20606934 58.56811523 32.93066406 C58.52501221 34.35604492 58.48190918 35.78142578 58.4375 37.25 C58.293125 41.7875 58.14875 46.325 58 51 C76.15 51 94.3 51 113 51 C113 53.31 113 55.62 113 58 C111.99712448 58.00364563 110.99424896 58.00729126 109.96098328 58.01104736 C100.47230591 58.04811888 90.98394943 58.10602341 81.49551678 58.18390274 C76.61833614 58.22327563 71.7413333 58.25551384 66.86401367 58.27099609 C62.14996455 58.28623009 57.43640457 58.32079414 52.72257423 58.36830902 C50.93145837 58.38305363 49.14027265 58.39103701 47.3490963 58.39188385 C34.61663814 58.40394879 23.38099706 58.79393142 13.7109375 68.16796875 C13.14632813 68.77253906 12.58171875 69.37710938 12 70 C11.51789062 70.51175781 11.03578125 71.02351563 10.5390625 71.55078125 C4.24008299 79.24317138 2.63904503 90.44609278 1 100 C0.67 100 0.34 100 0 100 C0 67 0 34 0 0 Z " fill="#FEFEFE" transform="translate(0,0)"/>
<path d="M0 0 C0.33 0 0.66 0 1 0 C1 9.9 1 19.8 1 30 C2.65 30.33 4.3 30.66 6 31 C8.66149693 33.66149693 7.27445311 41.21526441 7.29516602 45.03320312 C7.30655479 46.48968319 7.32679206 47.94612604 7.35668945 49.40234375 C7.60233285 61.36888232 7.17659135 72.93354865 -1.375 82.1875 C-4.69547252 85.34957542 -7.58984034 86.7608341 -12 88 C-12.33 87.67 -12.66 87.34 -13 87 C-13.99 86.67 -14.98 86.34 -16 86 C-16 82.8125 -16 82.8125 -15 79 C-13.328125 77.73828125 -13.328125 77.73828125 -11.25 76.625 C-5.35612238 73.45055963 -3.05531181 68.16593543 -1 62 C-0.88293767 59.99158335 -0.82324033 57.97964011 -0.79467773 55.96801758 C-0.77473251 54.72695755 -0.75478729 53.48589752 -0.73423767 52.20722961 C-0.71725473 50.8529981 -0.70037587 49.49876527 -0.68359375 48.14453125 C-0.66301772 46.75875741 -0.64202108 45.37298975 -0.62062073 43.98722839 C-0.56546699 40.34259047 -0.51602826 36.69789654 -0.46777344 33.05316162 C-0.41750944 29.3329165 -0.36184896 25.61275257 -0.30664062 21.89257812 C-0.19914101 14.59512087 -0.09767793 7.29759603 0 0 Z " fill="#F9FAF8" transform="translate(167,26)"/>
<path d="M0 0 C0.99 0.33 1.98 0.66 3 1 C3.04635 9.40585046 3.08188271 17.81164747 3.10362434 26.21759415 C3.11405948 30.1208574 3.12821371 34.02403318 3.15087891 37.92724609 C3.17261699 41.694393 3.18457066 45.4614558 3.18975449 49.22866058 C3.19344851 50.66556879 3.20066203 52.10247241 3.21146011 53.53934479 C3.225987 55.55255134 3.22681703 57.56584261 3.22705078 59.57910156 C3.231492 60.72493713 3.23593323 61.87077271 3.24050903 63.05133057 C3.00622983 65.92362154 2.4968852 67.57249085 1 70 C0.34 70 -0.32 70 -1 70 C-4 67 -4 67 -4.22705078 63.00927734 C-4.22673337 61.28479831 -4.21539124 59.56029967 -4.1953125 57.8359375 C-4.1924826 56.92872955 -4.18965271 56.02152161 -4.18673706 55.08682251 C-4.17552153 52.18274877 -4.15041463 49.27898088 -4.125 46.375 C-4.11497197 44.40885861 -4.10584581 42.4427124 -4.09765625 40.4765625 C-4.07557772 35.65092341 -4.04103865 30.8255136 -4 26 C-3.67 26 -3.34 26 -3 26 C-2.98018066 25.28344238 -2.96036133 24.56688477 -2.93994141 23.82861328 C-2.84490481 20.5936937 -2.73513981 17.35943906 -2.625 14.125 C-2.5940625 12.99707031 -2.563125 11.86914062 -2.53125 10.70703125 C-2.49257812 9.63066406 -2.45390625 8.55429687 -2.4140625 7.4453125 C-2.3826416 6.45031738 -2.3512207 5.45532227 -2.31884766 4.43017578 C-2 2 -2 2 0 0 Z " fill="#2E6C9D" transform="translate(164,22)"/>
<path d="M0 0 C0.99 1.98 0.99 1.98 2 4 C-4.74213955 11.37421514 -12.13411491 15.63353521 -22.26789856 16.17442322 C-26.25310978 16.23112441 -30.23346962 16.22524432 -34.21875 16.1953125 C-35.68705044 16.19157633 -37.15535339 16.18873222 -38.62365723 16.18673706 C-42.46397949 16.17914807 -46.30414737 16.15954103 -50.14440918 16.1373291 C-54.07281405 16.11676793 -58.00124418 16.10771351 -61.9296875 16.09765625 C-69.61986159 16.07629002 -77.30990906 16.04221222 -85 16 C-85 15.01 -85 14.02 -85 13 C-85.66 12.34 -86.32 11.68 -87 11 C-77.94222056 10.97682962 -68.88445132 10.95906093 -59.82664871 10.94818783 C-55.62074995 10.94296929 -51.41487147 10.93589029 -47.20898438 10.92456055 C-43.15007071 10.91369514 -39.09117654 10.9077154 -35.03224945 10.90512276 C-33.48370812 10.90327511 -31.93516785 10.89966714 -30.38663483 10.89426994 C-28.21769402 10.88701106 -26.04883381 10.88601111 -23.87988281 10.88647461 C-22.02789276 10.88314369 -22.02789276 10.88314369 -20.13848877 10.87974548 C-17.52736896 10.9797933 -15.49252844 11.33381044 -13 12 C-10.31850007 11.61432869 -10.31850007 11.61432869 -8 11 C-8.20625 10.4225 -8.4125 9.845 -8.625 9.25 C-9.08661261 6.48032433 -8.42944945 5.35438733 -7 3 C-5.02 3 -3.04 3 -1 3 C-0.67 2.01 -0.34 1.02 0 0 Z " fill="#3C6A90" transform="translate(161,93)"/>
<path d="M0 0 C5.53846154 3.07692308 5.53846154 3.07692308 7 6 C7.17199251 9.80626901 7.04130648 13.51630842 4.8046875 16.703125 C2.2766439 19.00615948 0.24502529 19.96569646 -3.125 20.4375 C-5.93143128 20.01043437 -7.72161527 19.68769239 -10 18 C-10.75 15.875 -10.75 15.875 -11 14 C-11.66 14 -12.32 14 -13 14 C-13.125 7.375 -13.125 7.375 -12 4 C-11.34 4 -10.68 4 -10 4 C-10 3.34 -10 2.68 -10 2 C-6.24543433 -0.50304378 -4.45254066 -0.45280074 0 0 Z " fill="#FCFAF3" transform="translate(146,188)"/>
<path d="M0 0 C3.268882 2.38729807 4.84183721 5.03125288 5.5 9.0625 C4.81143001 13.10784867 3.5750875 15.81868438 0.25 18.3125 C-3.06211832 19.32453615 -5.55439226 19.42314481 -9 19 C-12.57513152 16.04663048 -14.74364334 13.87994881 -15.375 9.25 C-14.8528401 4.7246142 -13.15770622 3.2328897 -10 0 C-6.69632961 -1.65183519 -3.41266608 -1.05707821 0 0 Z " fill="#F6F9FA" transform="translate(87,18)"/>
<path d="M0 0 C0 0.66 0 1.32 0 2 C-0.99 2 -1.98 2 -3 2 C-2.67 3.32 -2.34 4.64 -2 6 C-3.32 6.99 -4.64 7.98 -6 9 C-6 8.34 -6 7.68 -6 7 C-6.66 7 -7.32 7 -8 7 C-7.67 7.99 -7.34 8.98 -7 10 C-7.66 10 -8.32 10 -9 10 C-9 10.66 -9 11.32 -9 12 C-9.66 12 -10.32 12 -11 12 C-11.33 13.98 -11.66 15.96 -12 18 C-12.66 18 -13.32 18 -14 18 C-14.33 18.66 -14.66 19.32 -15 20 C-15 19.34 -15 18.68 -15 18 C-15.66 18 -16.32 18 -17 18 C-17.33 18.99 -17.66 19.98 -18 21 C-18.66 21 -19.32 21 -20 21 C-20 22.32 -20 23.64 -20 25 C-19.34 25 -18.68 25 -18 25 C-18.62197123 31.33881314 -19.28542887 37.67094142 -20 44 C-20.66 42.68 -21.32 41.36 -22 40 C-22.66 41.32 -23.32 42.64 -24 44 C-26.07903206 32.84882804 -23.33347807 21.42984513 -17 12 C-6.90357698 0 -6.90357698 0 0 0 Z " fill="#3A7AB0" transform="translate(26,60)"/>
<path d="M0 0 C3.52076232 -0.05855176 7.0413976 -0.0937806 10.5625 -0.125 C12.0484668 -0.15013672 12.0484668 -0.15013672 13.56445312 -0.17578125 C19.12728491 -0.21274359 23.74843075 0.12917449 29 2 C26.95127835 5.07308248 26.31841247 5.76382915 23 7 C20.43457031 7.22705078 20.43457031 7.22705078 17.578125 7.1953125 C16.04091797 7.18564453 16.04091797 7.18564453 14.47265625 7.17578125 C13.40917969 7.15902344 12.34570312 7.14226562 11.25 7.125 C9.63158203 7.11146484 9.63158203 7.11146484 7.98046875 7.09765625 C5.32008722 7.07411305 2.66015664 7.04122799 0 7 C0 4.69 0 2.38 0 0 Z " fill="#FBD84B" transform="translate(174,57)"/>
<path d="M0 0 C0.33 0 0.66 0 1 0 C1.33 22.11 1.66 44.22 2 67 C0.515 67.495 0.515 67.495 -1 68 C-4 65 -4 65 -4.22705078 61.00927734 C-4.22673337 59.28479831 -4.21539124 57.56029967 -4.1953125 55.8359375 C-4.1924826 54.92872955 -4.18965271 54.02152161 -4.18673706 53.08682251 C-4.17552153 50.18274877 -4.15041463 47.27898088 -4.125 44.375 C-4.11497197 42.40885861 -4.10584581 40.4427124 -4.09765625 38.4765625 C-4.07557772 33.65092341 -4.04103865 28.8255136 -4 24 C-3.67 24 -3.34 24 -3 24 C-3 37.2 -3 50.4 -3 64 C-2.34 64 -1.68 64 -1 64 C-1.00222061 63.31619263 -1.00444122 62.63238525 -1.00672913 61.92785645 C-1.02890873 54.78980025 -1.04395943 47.65175391 -1.05493164 40.51367188 C-1.05938363 37.85219379 -1.06676643 35.19076987 -1.07543945 32.52929688 C-1.08761354 28.69660768 -1.09325318 24.86395505 -1.09765625 21.03125 C-1.10281754 19.84760864 -1.10797882 18.66396729 -1.11329651 17.44445801 C-1.11369517 11.53007104 -0.90654741 5.84707394 0 0 Z " fill="#386A93" transform="translate(164,24)"/>
<path d="M0 0 C1.65 0.99 3.3 1.98 5 3 C4.67 4.32 4.34 5.64 4 7 C2.02 7 0.04 7 -2 7 C-3.14319208 13.61898609 -3.3300024 20.23318404 -3.5625 26.9375 C-3.60568359 28.09830078 -3.64886719 29.25910156 -3.69335938 30.45507812 C-3.79884782 33.30326601 -3.89986992 36.1516187 -4 39 C1.61 39 7.22 39 13 39 C13 39.33 13 39.66 13 40 C6.4 40 -0.2 40 -7 40 C-7.23555455 35.83682934 -7.45770067 31.67715157 -7.64697266 27.51220703 C-7.71515851 26.09775445 -7.79089442 24.6836438 -7.87451172 23.27001953 C-7.99383992 21.22993856 -8.08536129 19.19014221 -8.171875 17.1484375 C-8.2347168 15.92302246 -8.29755859 14.69760742 -8.36230469 13.43505859 C-7.74332417 7.56642257 -4.19837621 3.8984922 0 0 Z " fill="#3679B1" transform="translate(67,9)"/>
<path d="M0 0 C1.98 0 3.96 0 6 0 C6 0.66 6 1.32 6 2 C25.8 2 45.6 2 66 2 C63.66123897 4.33876103 62.77850789 4.96282509 59.48165894 5.12025452 C58.4202066 5.11803391 57.35875427 5.11581329 56.26513672 5.11352539 C55.06404266 5.11344986 53.86294861 5.11337433 52.62545776 5.11329651 C51.32335358 5.10813522 50.02124939 5.10297394 48.6796875 5.09765625 C47.33733167 5.09579138 45.99497516 5.0943678 44.65261841 5.09336853 C41.11804325 5.08954878 37.58350913 5.07972312 34.0489502 5.06866455 C30.44279536 5.05843878 26.8366339 5.05386841 23.23046875 5.04882812 C16.15362904 5.03810038 9.0768172 5.02103045 2 5 C2 4.01 2 3.02 2 2 C1.34 1.34 0.68 0.68 0 0 Z " fill="#2B6B9B" transform="translate(74,104)"/>
<path d="M0 0 C0.33 0 0.66 0 1 0 C1 9.9 1 19.8 1 30 C2.65 30.33 4.3 30.66 6 31 C7 32 7 32 7.11352539 35.05102539 C7.11336634 36.39991271 7.10767612 37.74880614 7.09765625 39.09765625 C7.0962413 39.80651474 7.09482635 40.51537323 7.09336853 41.24571228 C7.08775443 43.51801712 7.07519963 45.79022475 7.0625 48.0625 C7.05748681 49.59960796 7.05292359 51.13671745 7.04882812 52.67382812 C7.03778042 56.44925642 7.02050641 60.22461171 7 64 C6.67 64 6.34 64 6 64 C4.98713247 55.30019136 4.89378456 46.74507107 5 38 C4.01 38 3.02 38 2 38 C2.02320313 39.10859375 2.04640625 40.2171875 2.0703125 41.359375 C2.08907577 42.82290992 2.10727537 44.28645214 2.125 45.75 C2.14175781 46.47960937 2.15851563 47.20921875 2.17578125 47.9609375 C2.21372922 52.13521398 1.91514727 54.16970546 0 58 C0 38.86 0 19.72 0 0 Z " fill="#E7EBEB" transform="translate(167,26)"/>
<path d="M0 0 C1.86785156 0.15275391 1.86785156 0.15275391 3.7734375 0.30859375 C5.18496094 0.43427734 5.18496094 0.43427734 6.625 0.5625 C6.625 2.5625 6.625 4.5625 6.625 6.5625 C-3.605 6.5625 -13.835 6.5625 -24.375 6.5625 C-24.705 5.9025 -25.035 5.2425 -25.375 4.5625 C-23.50199975 3.91088988 -21.6264945 3.26647805 -19.75 2.625 C-18.70585938 2.26535156 -17.66171875 1.90570313 -16.5859375 1.53515625 C-10.82291334 -0.21057735 -6.00119078 -0.50953507 0 0 Z " fill="#3976AB" transform="translate(97.375,1.4375)"/>
<path d="M0 0 C1.6079142 -0.04669079 3.21837986 0.01623304 4.82470703 0.1015625 C5.48470703 0.7615625 6.14470703 1.4215625 6.82470703 2.1015625 C0.78118554 6.07301948 -4.44121764 6.24731368 -11.53857422 6.19921875 C-12.3305571 6.1978038 -13.12253998 6.19638885 -13.93852234 6.19493103 C-16.45498515 6.18935707 -18.97135728 6.17680943 -21.48779297 6.1640625 C-23.19938022 6.15904413 -24.91096887 6.15448181 -26.62255859 6.15039062 C-30.80683805 6.13939618 -34.99105016 6.12214957 -39.17529297 6.1015625 C-39.17529297 5.4415625 -39.17529297 4.7815625 -39.17529297 4.1015625 C-31.25529297 3.6065625 -31.25529297 3.6065625 -23.17529297 3.1015625 C-23.17529297 2.4415625 -23.17529297 1.7815625 -23.17529297 1.1015625 C-19.82126244 0.93208051 -16.46705033 0.76648944 -13.11279297 0.6015625 C-12.16984375 0.55386719 -11.22689453 0.50617188 -10.25537109 0.45703125 C-6.83744945 0.29030336 -3.41820866 0.15959313 0 0 Z " fill="#FBCC37" transform="translate(199.17529296875,159.8984375)"/>
<path d="M0 0 C7.67211202 -0.02526605 15.3442134 -0.04283123 23.01635742 -0.05493164 C25.62866619 -0.05997377 28.24097211 -0.06680725 30.85327148 -0.07543945 C34.59880268 -0.08751036 38.34429672 -0.09322935 42.08984375 -0.09765625 C43.26586655 -0.10281754 44.44188934 -0.10797882 45.65354919 -0.11329651 C46.73459427 -0.11337204 47.81563934 -0.11344757 48.92944336 -0.11352539 C49.88652695 -0.115746 50.84361053 -0.11796661 51.82969666 -0.12025452 C54 0 54 0 55 1 C55.09990906 2.95237376 55.13080877 4.90835386 55.1328125 6.86328125 C55.13474609 8.65862305 55.13474609 8.65862305 55.13671875 10.49023438 C55.13285156 11.75158203 55.12898438 13.01292969 55.125 14.3125 C55.13080078 16.18711914 55.13080078 16.18711914 55.13671875 18.09960938 C55.13542969 19.30037109 55.13414062 20.50113281 55.1328125 21.73828125 C55.13168457 22.84212158 55.13055664 23.94596191 55.12939453 25.08325195 C55.01893014 27.57328609 54.72471628 29.62901909 54 32 C53.34 32 52.68 32 52 32 C52 31.01 52 30.02 52 29 C51.01 29 50.02 29 49 29 C48.505 30.485 48.505 30.485 48 32 C48.33 30.02 48.66 28.04 49 26 C49.66 26 50.32 26 51 26 C51 23.36 51 20.72 51 18 C51.33 18 51.66 18 52 18 C52.33 12.39 52.66 6.78 53 1 C35.51 1 18.02 1 0 1 C0 0.67 0 0.34 0 0 Z " fill="#FDD670" transform="translate(112,174)"/>
<path d="M0 0 C8.32653061 0.97142857 8.32653061 0.97142857 12 2 C12.33 2 12.66 2 13 2 C13.33 1.34 13.66 0.68 14 0 C16.64 0 19.28 0 22 0 C21.87890625 1.859375 21.87890625 1.859375 21 4 C14.36432373 7.15706184 7.29998148 8.57254757 0 8 C0.66 7.34 1.32 6.68 2 6 C1.34 5.67 0.68 5.34 0 5 C0 3.35 0 1.7 0 0 Z " fill="#FCCC3C" transform="translate(128,216)"/>
<path d="M0 0 C0.99 0 1.98 0 3 0 C3.8125 2.125 3.8125 2.125 4 5 C2.58633421 7.41454116 1.01224447 8.98775553 -1 11 C-1.66 11 -2.32 11 -3 11 C-3 11.66 -3 12.32 -3 13 C-4.98 13.33 -6.96 13.66 -9 14 C-9.3125 10.6875 -9.3125 10.6875 -9 7 C-6.22945596 4.6912133 -3.52593616 3.65295114 0 3 C0 2.01 0 1.02 0 0 Z " fill="#FDC83C" transform="translate(161,203)"/>
<path d="M0 0 C0.33 0 0.66 0 1 0 C1.05793591 4.43744539 1.09357467 8.87479389 1.125 13.3125 C1.14175781 14.57513672 1.15851563 15.83777344 1.17578125 17.13867188 C1.18222656 18.34716797 1.18867188 19.55566406 1.1953125 20.80078125 C1.20578613 21.91622314 1.21625977 23.03166504 1.22705078 24.1809082 C1 27 1 27 -1 30 C-1.33 29.34 -1.66 28.68 -2 28 C-2.66 28.33 -3.32 28.66 -4 29 C-5.17776207 24.0876886 -4.67860735 20.96082466 -3.125 16.1875 C-1.43909941 10.70541637 -0.39389977 5.71154672 0 0 Z " fill="#FDF9EF" transform="translate(224,122)"/>
<path d="M0 0 C0.66 0 1.32 0 2 0 C2 1.65 2 3.3 2 5 C2.66 5 3.32 5 4 5 C3.68289062 6.12277344 3.36578125 7.24554688 3.0390625 8.40234375 C1.35244872 15.99210574 1.52892399 23.82220756 1.375 31.5625 C1.33674791 33.15952483 1.29769218 34.75653061 1.2578125 36.35351562 C1.16260319 40.23551951 1.07829048 44.11761956 1 48 C0.67 48 0.34 48 0 48 C-0.02505615 47.10692139 -0.0501123 46.21384277 -0.07592773 45.29370117 C-0.17110186 41.97814546 -0.27033283 38.66276271 -0.37231445 35.34741211 C-0.41560793 33.91288997 -0.45728699 32.47831816 -0.49731445 31.04370117 C-0.55515267 28.9808048 -0.61880753 26.91815717 -0.68359375 24.85546875 C-0.73858032 22.99378052 -0.73858032 22.99378052 -0.79467773 21.09448242 C-0.87144121 17.96446653 -0.87144121 17.96446653 -2 15 C-1.75367118 12.40930029 -1.44871022 9.88163753 -1.0625 7.3125 C-0.96259766 6.61060547 -0.86269531 5.90871094 -0.75976562 5.18554688 C-0.51270675 3.45613473 -0.25717148 1.7279373 0 0 Z " fill="#286B9C" transform="translate(50,120)"/>
<path d="M0 0 C1.32 0 2.64 0 4 0 C4.75414949 7.69232482 2.34312406 14.10100761 -1 21 C-1.66 21.33 -2.32 21.66 -3 22 C-2.814375 21.236875 -2.62875 20.47375 -2.4375 19.6875 C-1.77180827 16.91032625 -1.77180827 16.91032625 -3 14 C-2.34 14 -1.68 14 -1 14 C-1.33 10.7 -1.66 7.4 -2 4 C-1.34 4 -0.68 4 0 4 C0 2.68 0 1.36 0 0 Z " fill="#FACA33" transform="translate(219,128)"/>
<path d="M0 0 C-1.02284337 3.06853012 -1.45108147 4.12721999 -4 6 C-6.72729492 6.34057617 -6.72729492 6.34057617 -9.98046875 6.29296875 C-11.14384766 6.28330078 -12.30722656 6.27363281 -13.50585938 6.26367188 C-14.72080078 6.23853516 -15.93574219 6.21339844 -17.1875 6.1875 C-18.41404297 6.17396484 -19.64058594 6.16042969 -20.90429688 6.14648438 C-23.93663664 6.11108741 -26.96809996 6.0617076 -30 6 C-30 5.67 -30 5.34 -30 5 C-29.319375 4.98582031 -28.63875 4.97164062 -27.9375 4.95703125 C-20.56560166 4.59431817 -14.18158629 3.04389199 -7.2578125 0.63989258 C-2.18888673 -1.09444337 -2.18888673 -1.09444337 0 0 Z " fill="#FDF7EA" transform="translate(154,219)"/>
<path d="M0 0 C0 2 0 4 0 6 C-4.29 6 -8.58 6 -13 6 C-10 4 -10 4 -8 4 C-8 3.34 -8 2.68 -8 2 C-8.66 1.67 -9.32 1.34 -10 1 C-6.78548731 -0.60725635 -3.56387464 -0.05748185 0 0 Z " fill="#3479AF" transform="translate(104,2)"/>
<path d="M0 0 C0 0.66 0 1.32 0 2 C5.28 2 10.56 2 16 2 C16 2.33 16 2.66 16 3 C-5.53191489 4.19148936 -5.53191489 4.19148936 -16 4 C-13.21530998 2.14353999 -11.7318584 1.54842185 -8.5625 0.875 C-7.41974609 0.62363281 -7.41974609 0.62363281 -6.25390625 0.3671875 C-4 0 -4 0 0 0 Z " fill="#FADF55" transform="translate(88,116)"/>
<path d="M0 0 C0.78375 0.04125 1.5675 0.0825 2.375 0.125 C1.6325 0.82625 0.89 1.5275 0.125 2.25 C-2.71691836 5.04978751 -2.71691836 5.04978751 -4.8125 8.4375 C-5.410625 9.324375 -6.00875 10.21125 -6.625 11.125 C-7.285 11.125 -7.945 11.125 -8.625 11.125 C-8.955 8.155 -9.285 5.185 -9.625 2.125 C-7.95833333 2.125 -6.29166667 2.125 -4.625 2.125 C-2.625 0.125 -2.625 0.125 0 0 Z " fill="#F4F7F7" transform="translate(66.625,7.875)"/>
<path d="M0 0 C6.27 0 12.54 0 19 0 C19 0.66 19 1.32 19 2 C12.95170514 2.89604368 7.1105424 3.11269443 1 3 C0.67 2.01 0.34 1.02 0 0 Z " fill="#3278B1" transform="translate(37,60)"/>
<path d="M0 0 C0.33 0 0.66 0 1 0 C1.18175781 1.25103516 1.18175781 1.25103516 1.3671875 2.52734375 C2.34461632 9.09115424 3.46783577 15.54302216 5 22 C3.35 21.67 1.7 21.34 0 21 C0 14.07 0 7.14 0 0 Z " fill="#E9F4F8" transform="translate(0,123)"/>
<path d="M0 0 C1.98 0.495 1.98 0.495 4 1 C2.68 7.27 1.36 13.54 0 20 C-0.33 20 -0.66 20 -1 20 C-1.02696009 17.2291017 -1.04681952 14.4584655 -1.0625 11.6875 C-1.07087891 10.90181641 -1.07925781 10.11613281 -1.08789062 9.30664062 C-1.09111328 8.54931641 -1.09433594 7.79199219 -1.09765625 7.01171875 C-1.10289307 6.31522217 -1.10812988 5.61872559 -1.11352539 4.90112305 C-1 3 -1 3 0 0 Z " fill="#EAF2F7" transform="translate(1,80)"/>
<path d="M0 0 C7.92 0 15.84 0 24 0 C23.01 0.33 22.02 0.66 21 1 C21 1.99 21 2.98 21 4 C14.07 3.01 7.14 2.02 0 1 C0 0.67 0 0.34 0 0 Z " fill="#E6F1F8" transform="translate(123,0)"/>
<path d="M0 0 C0.98291016 0.00644531 1.96582031 0.01289062 2.97851562 0.01953125 C4.00267578 0.03628906 5.02683594 0.05304687 6.08203125 0.0703125 C7.11779297 0.07933594 8.15355469 0.08835938 9.22070312 0.09765625 C11.7788781 0.1212339 14.33658873 0.1541422 16.89453125 0.1953125 C16.89453125 0.5253125 16.89453125 0.8553125 16.89453125 1.1953125 C15.14076172 1.39447266 15.14076172 1.39447266 13.3515625 1.59765625 C11.80337286 1.77593263 10.25519647 1.95432411 8.70703125 2.1328125 C7.93810547 2.21982422 7.16917969 2.30683594 6.37695312 2.39648438 C3.19946093 2.76469162 0.14499409 3.13483239 -2.96875 3.88671875 C-5.10546875 4.1953125 -5.10546875 4.1953125 -8.10546875 2.1953125 C-4.80258539 -0.00660974 -3.83084148 -0.04428718 0 0 Z " fill="#EBF4F8" transform="translate(84.10546875,-0.1953125)"/>
<path d="M0 0 C0.86476686 2.42134721 1.1422798 3.60873054 0.25 6.0625 C-1.77989207 9.20883272 -2.96894601 10.736242 -6.6875 11.6875 C-7.8321875 11.8421875 -7.8321875 11.8421875 -9 12 C-9.33 11.01 -9.66 10.02 -10 9 C-8.68 8.67 -7.36 8.34 -6 8 C-6 7.34 -6 6.68 -6 6 C-4.37550757 4.29220027 -2.70779973 2.62449243 -1 1 C-0.67 0.67 -0.34 0.34 0 0 Z " fill="#FCF5E2" transform="translate(164,208)"/>
<path d="M0 0 C7.75 0.875 7.75 0.875 10 2 C9.67 2.66 9.34 3.32 9 4 C6.45058627 4.31241371 3.99638487 4.51303421 1.4375 4.625 C0.37112305 4.68300781 0.37112305 4.68300781 -0.71679688 4.7421875 C-2.47742425 4.83671783 -4.23867728 4.91945817 -6 5 C-4.6875 3.5 -4.6875 3.5 -3 2 C-2.01 2 -1.02 2 0 2 C0 1.34 0 0.68 0 0 Z " fill="#FACF34" transform="translate(142,184)"/>
<path d="M0 0 C1.17246771 4.09902098 1.07076062 7.75436258 1 12 C0.67 10.68 0.34 9.36 0 8 C-1.41577477 9.18424326 -1.41577477 9.18424326 -1.0625 12.5625 C-1.041875 13.696875 -1.02125 14.83125 -1 16 C-1.99 15.67 -2.98 15.34 -4 15 C-4.50610724 8.92671312 -3.04157942 5.22771463 0 0 Z " fill="#FBE25B" transform="translate(62,128)"/>
<path d="M0 0 C1.32 0 2.64 0 4 0 C4.33 2.97 4.66 5.94 5 9 C4.01 9.33 3.02 9.66 2 10 C1.34 6.7 0.68 3.4 0 0 Z " fill="#FBCB37" transform="translate(152,192)"/>
<path d="M0 0 C2.05078125 0.03255208 4.1015625 0.06510417 6.15234375 0.09765625 C5.82234375 1.41765625 5.49234375 2.73765625 5.15234375 4.09765625 C2.84234375 4.42765625 0.53234375 4.75765625 -1.84765625 5.09765625 C-2.41015625 3.16015625 -2.41015625 3.16015625 -2.84765625 1.09765625 C-1.84765625 0.09765625 -1.84765625 0.09765625 0 0 Z " fill="#FCC930" transform="translate(143.84765625,215.90234375)"/>
<path d="M0 0 C0.99 0.33 1.98 0.66 3 1 C2.34 2.98 1.68 4.96 1 7 C0.01 6.67 -0.98 6.34 -2 6 C-4.14255793 6.38932856 -4.14255793 6.38932856 -6 7 C-4.61990379 3.66476748 -3.15049348 1.81392049 0 0 Z " fill="#FCE463" transform="translate(69,121)"/>
<path d="M0 0 C-2.71182212 2.60334924 -3.89133813 2.99456691 -7.75 3.1875 C-8.8225 3.125625 -9.895 3.06375 -11 3 C-11.33 2.01 -11.66 1.02 -12 0 C-7.66726186 -0.92844389 -4.33273814 -0.92844389 0 0 Z " fill="#4282B7" transform="translate(96,2)"/>
<path d="M0 0 C2.39073445 3.82517513 2.55966552 7.59665524 3 12 C1.68 12 0.36 12 -1 12 C-1.125 6.25 -1.125 6.25 0 4 C-0.66 4 -1.32 4 -2 4 C-2 3.34 -2 2.68 -2 2 C-1.34 2 -0.68 2 0 2 C0 1.34 0 0.68 0 0 Z " fill="#FCD357" transform="translate(221,84)"/>
<path d="M0 0 C0.495 0.391875 0.99 0.78375 1.5 1.1875 C-2.63378595 3.9433573 -4.55203546 4.29506445 -9.5 4.1875 C-9.83 3.5275 -10.16 2.8675 -10.5 2.1875 C-3.28774617 -1.06851751 -3.28774617 -1.06851751 0 0 Z " fill="#4380B4" transform="translate(82.5,3.8125)"/>
<path d="M0 0 C0.66 0.99 1.32 1.98 2 3 C0.97161613 7.4563301 -1.27822286 9.48780043 -5 12 C-5.66 12 -6.32 12 -7 12 C-6.67 10.68 -6.34 9.36 -6 8 C-4.68 8 -3.36 8 -2 8 C-1.34 5.36 -0.68 2.72 0 0 Z " fill="#FACC31" transform="translate(163,203)"/>
<path d="M0 0 C1.65 0.33 3.3 0.66 5 1 C4.3125 3.375 4.3125 3.375 3 6 C0.375 7.3125 0.375 7.3125 -2 8 C-1.125 2.25 -1.125 2.25 0 0 Z " fill="#F5F9FA" transform="translate(2,75)"/>
<path d="M0 0 C1.65 0.99 3.3 1.98 5 3 C4.67 4.32 4.34 5.64 4 7 C2.35 7 0.7 7 -1 7 C-1 4 -1 4 0 3 C0 2.01 0 1.02 0 0 Z " fill="#3A7FB7" transform="translate(67,9)"/>
<path d="M0 0 C-1.39332574 3.36720387 -2.9789286 4.9859524 -6 7 C-6.33 5.02 -6.66 3.04 -7 1 C-2.25 0 -2.25 0 0 0 Z " fill="#E9F0F3" transform="translate(16,64)"/>
<path d="M0 0 C0.33 0.66 0.66 1.32 1 2 C2.32 2 3.64 2 5 2 C4 4 4 4 2 5 C-0.125 4.5625 -0.125 4.5625 -2 4 C-2 3.34 -2 2.68 -2 2 C-3.32 1.67 -4.64 1.34 -6 1 C-4 0 -4 0 0 0 Z " fill="#407CAD" transform="translate(91,35)"/>
<path d="M0 0 C-0.99 0.33 -1.98 0.66 -3 1 C-3 1.66 -3 2.32 -3 3 C-7.455 2.01 -7.455 2.01 -12 1 C-2.66666667 -1.33333333 -2.66666667 -1.33333333 0 0 Z " fill="#F9D859" transform="translate(88,219)"/>
<path d="M0 0 C0 0.33 0 0.66 0 1 C-1.670625 1.2165625 -1.670625 1.2165625 -3.375 1.4375 C-6.82142047 1.78372035 -6.82142047 1.78372035 -9 3 C-9.66 2.34 -10.32 1.68 -11 1 C-6.8204355 -1.78637633 -4.85331323 -0.79562512 0 0 Z " fill="#DBEBF6" transform="translate(87,18)"/>
<path d="M0 0 C3.24299151 2.38957269 5.50902342 4.2047869 7 8 C6.01 7.67 5.02 7.34 4 7 C4 6.34 4 5.68 4 5 C1.03 4.505 1.03 4.505 -2 4 C-1.34 3.67 -0.68 3.34 0 3 C0 2.01 0 1.02 0 0 Z " fill="#4478A1" transform="translate(158,11)"/>
<path d="M0 0 C1.68762851 1.6454378 3.3540349 3.31288577 5 5 C5 5.33 5 5.66 5 6 C3.35 6 1.7 6 0 6 C-0.38218767 4.34385343 -0.71395102 2.67542976 -1 1 C-0.67 0.67 -0.34 0.34 0 0 Z " fill="#ECF3F5" transform="translate(9,154)"/>
<path d="M0 0 C2.475 0.495 2.475 0.495 5 1 C4.34 2.98 3.68 4.96 3 7 C0.64046906 4.64046906 0.50858587 3.22104383 0 0 Z " fill="#FCF7ED" transform="translate(219,77)"/>
<path d="M0 0 C1.2065625 0.0309375 1.2065625 0.0309375 2.4375 0.0625 C-2.3125 4.9375 -2.3125 4.9375 -4.5625 6.0625 C-3.48963568 0.08511307 -3.48963568 0.08511307 0 0 Z " fill="#E4F1F6" transform="translate(66.5625,7.9375)"/>
<path d="M0 0 C0.99 0.33 1.98 0.66 3 1 C2.34 1 1.68 1 1 1 C1 1.66 1 2.32 1 3 C1.99 3.33 2.98 3.66 4 4 C3.67 4.66 3.34 5.32 3 6 C1.35 5.67 -0.3 5.34 -2 5 C-1.125 1.125 -1.125 1.125 0 0 Z " fill="#FAD336" transform="translate(68,208)"/>
<path d="M0 0 C2 2 2 2 2 6 C1.34 6 0.68 6 0 6 C0 6.66 0 7.32 0 8 C-0.66 8 -1.32 8 -2 8 C-1.34 5.36 -0.68 2.72 0 0 Z " fill="#F8D230" transform="translate(219,80)"/>
<path d="M0 0 C1.485 0.99 1.485 0.99 3 2 C3.1875 5.125 3.1875 5.125 3 8 C2.01 8 1.02 8 0 8 C0 5.36 0 2.72 0 0 Z " fill="#4A79A2" transform="translate(113,51)"/>
<path d="M0 0 C1.98 0 3.96 0 6 0 C5.34 1.65 4.68 3.3 4 5 C2.68 4.34 1.36 3.68 0 3 C0 2.01 0 1.02 0 0 Z " fill="#F9DB5F" transform="translate(62,208)"/>
<path d="M0 0 C0.66 0.66 1.32 1.32 2 2 C1.625 4.125 1.625 4.125 1 6 C0.34 6 -0.32 6 -1 6 C-1.33 4.35 -1.66 2.7 -2 1 C-1.34 0.67 -0.68 0.34 0 0 Z " fill="#EBF2F3" transform="translate(5,146)"/>
</svg>
