<?xml version="1.0" encoding="UTF-8"?>
<svg version="1.1" xmlns="http://www.w3.org/2000/svg" width="200" height="155">
<path d="M0 0 C66 0 132 0 200 0 C200 51.15 200 102.3 200 155 C134 155 68 155 0 155 C0 103.85 0 52.7 0 0 Z " fill="#B8B9BE" transform="translate(0,0)"/>
<path d="M0 0 C11.776875 -0.103125 23.55375 -0.20625 35.6875 -0.3125 C39.38026123 -0.35802002 43.07302246 -0.40354004 46.87768555 -0.45043945 C51.45275879 -0.47302246 51.45275879 -0.47302246 53.60725403 -0.47721863 C55.0842598 -0.48480267 56.56123833 -0.50218887 58.03804016 -0.52787781 C70.0983556 -0.72683478 80.81777516 0.48949183 90.5625 8.4375 C97.13503782 14.85783168 99.67748044 20.92031696 100.25 29.9375 C99.91537347 39.99597973 96.71856854 47.67890388 89.4375 54.6875 C84.57311129 58.75827443 78.9109988 60.86218877 73 63 C73.67546875 63.23074219 74.3509375 63.46148437 75.046875 63.69921875 C84.24458376 67.06196487 86.87696958 71.60886475 91.36328125 80.0390625 C92.96875715 82.94347952 94.69372664 85.71682384 96.5 88.5 C99.45993776 93.06732117 102.08605545 97.74544588 104.64453125 102.546875 C105.80055242 104.63904011 107.01669792 106.59891946 108.375 108.5625 C110 111 110 111 110 113 C73.7 113 37.4 113 0 113 C0 75.71 0 38.42 0 0 Z " fill="#2266B7" transform="translate(82,42)"/>
<path d="M0 0 C66 0 132 0 200 0 C200 51.15 200 102.3 200 155 C192 155 192 155 190.26904297 153.70581055 C189.93018066 153.10551025 189.59131836 152.50520996 189.2421875 151.88671875 C188.84741211 151.2210791 188.45263672 150.55543945 188.04589844 149.86962891 C187.65950195 149.14952637 187.27310547 148.42942383 186.875 147.6875 C186.45250977 146.95708496 186.03001953 146.22666992 185.59472656 145.47412109 C184.36507937 143.33189665 183.17751973 141.17121383 182 139 C181.12988281 137.43572266 181.12988281 137.43572266 180.2421875 135.83984375 C179.27517084 134.08048098 178.32116072 132.31388114 177.3828125 130.5390625 C175.43644691 126.96522738 173.27792059 123.53127971 171.1015625 120.09375 C170 118 170 118 170 115 C170.66 115 171.32 115 172 115 C172 114.34 172 113.68 172 113 C173.5390625 111.73828125 173.5390625 111.73828125 175.625 110.3125 C179.28893317 107.68148416 182.01813153 104.87604255 184.7734375 101.3203125 C185.17820313 100.88460937 185.58296875 100.44890625 186 100 C186.66 100 187.32 100 188 100 C188.25652344 99.48308594 188.51304687 98.96617188 188.77734375 98.43359375 C189.73678143 96.52391427 190.71127667 94.62179879 191.69140625 92.72265625 C192.31524477 91.50267605 192.93893916 90.28262215 193.5625 89.0625 C193.87896484 88.45470703 194.19542969 87.84691406 194.52148438 87.22070312 C199.54823754 77.32728448 199.75861164 63.21330127 196.9375 52.5 C189.86920465 33.45210549 173.02155047 20.40624019 155.1796875 12.11328125 C138.29794025 4.85206387 120.99308858 1.807421 102.74902344 1.75976562 C100.5328089 1.75014246 98.31755717 1.71908656 96.1015625 1.6875 C82.79488742 1.58795874 70.32379372 3.63025992 57.625 7.6875 C50.20379656 10 50.20379656 10 48 10 C48 10.66 48 11.32 48 12 C44.31354128 13.97182676 41.13181768 15.36433574 37 16 C36.071875 16.185625 35.14375 16.37125 34.1875 16.5625 C33.465625 16.706875 32.74375 16.85125 32 17 C32 17.66 32 18.32 32 19 C30.0234375 20.515625 30.0234375 20.515625 27.375 22.25 C24.12063435 24.44877112 21.21362318 26.595621 18.5 29.4375 C17.675 30.283125 16.85 31.12875 16 32 C15.34 32 14.68 32 14 32 C13.896875 32.763125 13.79375 33.52625 13.6875 34.3125 C12.95288806 37.18416484 12.3283935 38.23042094 10 40 C9.34 40 8.68 40 8 40 C6.5934258 43.48174421 5.23865675 46.97747678 3.9375 50.5 C3.59589844 51.4178125 3.25429688 52.335625 2.90234375 53.28125 C2.05063111 55.84744911 1.46744378 58.33990759 1 61 C0.67 61 0.34 61 0 61 C0 40.87 0 20.74 0 0 Z " fill="#FDFDFD" transform="translate(0,0)"/>
<path d="M0 0 C0.65822754 0.14453613 1.31645508 0.28907227 1.99462891 0.43798828 C15.92145903 3.51805872 27.57650054 8.97512154 37 20 C39.15857319 23.87779077 40.71826648 27.75659096 42 32 C42.1959375 32.64324219 42.391875 33.28648438 42.59375 33.94921875 C44.85637821 45.37113998 42.45361989 55.91563721 36.3203125 65.671875 C33.06893812 70.09374416 29.84921797 73.40623225 25 76 C24.34 76 23.68 76 23 76 C23 76.66 23 77.32 23 78 C18.78892722 79.26332183 16.4543291 79.00441956 12.625 77.0625 C11.40811576 76.39025121 10.1966397 75.70765749 9 75 C11.23375948 73.85913 13.47532574 72.78948902 15.76953125 71.7734375 C24.02564684 67.97922777 29.96898726 63.76089465 33.875 55.375 C36.97625639 46.07123082 37.00711753 37.00170331 33 28 C27.68065341 19.53337334 19.34647249 15.70748693 10 13 C7.54472186 12.80425134 5.08061196 12.70671916 2.61767578 12.68115234 C1.90478897 12.67110672 1.19190216 12.6610611 0.45741272 12.65071106 C-1.87994642 12.62001988 -4.21719177 12.60288354 -6.5546875 12.5859375 C-8.18279998 12.56721449 -9.81090288 12.54764024 -11.43899536 12.5272522 C-15.70994399 12.47604455 -19.98092403 12.43635822 -24.25201416 12.39910889 C-29.38419807 12.35193698 -34.51622747 12.29038808 -39.64828491 12.23126221 C-47.43212718 12.14318856 -55.21594191 12.07332529 -63 12 C-63 35.76 -63 59.52 -63 84 C-69.44008869 82.06797339 -74.81345448 80.44975632 -80.5625 77.3125 C-81.2009082 76.96799805 -81.83931641 76.62349609 -82.49707031 76.26855469 C-89.33073501 72.45208271 -95.69485627 67.64374033 -100 61 C-100 60.01 -100 59.02 -100 58 C-100.66 58 -101.32 58 -102 58 C-105.82563822 49.17029036 -108.05232757 41.51448509 -104.7421875 32.18359375 C-101.9124264 25.11265036 -98.92499273 19.69620967 -91.91796875 16.078125 C-89.67957302 15.01065692 -89.67957302 15.01065692 -88 12 C-85.8359375 11.05078125 -85.8359375 11.05078125 -83.375 10.3125 C-82.55773437 10.06113281 -81.74046875 9.80976562 -80.8984375 9.55078125 C-80.27195312 9.36902344 -79.64546875 9.18726563 -79 9 C-79 8.34 -79 7.68 -79 7 C-54.33908592 -4.39633151 -26.35481733 -6.15914989 0 0 Z " fill="#FCFDFD" transform="translate(145,30)"/>
<path d="M0 0 C0.33 0 0.66 0 1 0 C1.24234375 0.845625 1.4846875 1.69125 1.734375 2.5625 C3.66499882 9.09691908 5.82132663 14.9832254 9 21 C9 21.66 9 22.32 9 23 C9.8971875 23.433125 9.8971875 23.433125 10.8125 23.875 C15.81609195 26.44827586 15.81609195 26.44827586 17 30 C17.66 30.33 18.32 30.66 19 31 C19 31.66 19 32.32 19 33 C19.66 33 20.32 33 21 33 C21 33.66 21 34.32 21 35 C21.66 35.20625 22.32 35.4125 23 35.625 C25.6197183 36.82570422 27.23467354 37.91102705 29.4375 39.6875 C38.82301823 46.80874035 49.05624472 50.56985856 60.25 53.875 C61.25546875 54.1733374 62.2609375 54.4716748 63.296875 54.77905273 C69.74000884 56.59807235 75.10843671 57.31084367 82 58 C82 65.26 82 72.52 82 80 C54.94 80 27.88 80 0 80 C0 53.6 0 27.2 0 0 Z " fill="#FEFEFE" transform="translate(0,75)"/>
<path d="M0 0 C6.97426342 3.67626428 10.18682576 10.20986171 12.875 17.4375 C14.20750602 22.43439757 14.31235906 27.42047404 14.375 32.5625 C14.38901855 33.35390381 14.40303711 34.14530762 14.41748047 34.96069336 C14.29838982 49.69281738 6.14588845 61.90695472 -4 72 C-10.32335329 78 -10.32335329 78 -13 78 C-13 78.66 -13 79.32 -13 80 C-13.66 80 -14.32 80 -15 80 C-15.495 80.99 -15.495 80.99 -16 82 C-17.89865603 79.02819057 -19.35455571 76.48539917 -20 73 C-19.01 73 -18.02 73 -17 73 C-17 72.34 -17 71.68 -17 71 C-11.58823529 67 -11.58823529 67 -9 67 C-8.7525 66.443125 -8.505 65.88625 -8.25 65.3125 C-7 63 -7 63 -5.09375 60.7265625 C1.56823956 52.05106117 3.32393918 41.66439084 2 31 C0.39142135 24.09209371 -2.20037189 17.97084418 -6 12 C-5.34 12 -4.68 12 -4 12 C-3.67 11.34 -3.34 10.68 -3 10 C-2.34 9.855625 -1.68 9.71125 -1 9.5625 C-0.01 9.2840625 -0.01 9.2840625 1 9 C1.33 8.01 1.66 7.02 2 6 C1.01 5.67 0.02 5.34 -1 5 C-0.67 3.35 -0.34 1.7 0 0 Z " fill="#908F95" transform="translate(185,35)"/>
<path d="M0 0 C11.818125 -0.0825 23.63625 -0.165 35.8125 -0.25 C39.52346924 -0.28641602 43.23443848 -0.32283203 47.05786133 -0.36035156 C51.64196777 -0.37841797 51.64196777 -0.37841797 53.79814148 -0.3817749 C55.28187378 -0.38785728 56.76558818 -0.40179911 58.24919128 -0.42230225 C67.5061182 -0.54366934 75.46379135 -0.06841028 84 4 C83.67 4.66 83.34 5.32 83 6 C80.36 5.67 77.72 5.34 75 5 C75 4.67 75 4.34 75 4 C73.35 3.67 71.7 3.34 70 3 C70 3.99 70 4.98 70 6 C49.21 6.33 28.42 6.66 7 7 C6.34 28.12 5.68 49.24 5 71 C4.67 71 4.34 71 4 71 C3.67 65.39 3.34 59.78 3 54 C2.21049917 67.04334983 1.72934976 80.06204295 1.4375 93.125 C1.39414227 94.97005826 1.35052368 96.81511041 1.30664062 98.66015625 C1.2014356 103.10670651 1.09970559 107.55332317 1 112 C5.29 112 9.58 112 14 112 C14 112.33 14 112.66 14 113 C9.38 113 4.76 113 0 113 C0 75.71 0 38.42 0 0 Z " fill="#3774C6" transform="translate(82,42)"/>
<path d="M0 0 C0.53109375 1.07378906 1.0621875 2.14757812 1.609375 3.25390625 C2.32280745 4.69015842 3.03635529 6.12635328 3.75 7.5625 C4.09804687 8.26697266 4.44609375 8.97144531 4.8046875 9.69726562 C6.52338316 13.15057079 8.28868697 16.52664205 10.265625 19.83984375 C12 23 12 23 12 26 C-0.21 26 -12.42 26 -25 26 C-25 18.74 -25 11.48 -25 4 C-16.25 2.5625 -16.25 2.5625 -13.51269531 2.11547852 C-12.79178711 1.99615967 -12.07087891 1.87684082 -11.328125 1.75390625 C-10.22839355 1.57323608 -10.22839355 1.57323608 -9.10644531 1.38891602 C-6.99231786 1.02552395 -6.99231786 1.02552395 -4.91699219 0.45288086 C-3 0 -3 0 0 0 Z " fill="#F9FAFC" transform="translate(141,129)"/>
<path d="M0 0 C10.8447313 6.28154331 15.92442331 12.99439013 19.6015625 24.95703125 C21.83133526 36.39008179 19.46035812 46.90491871 13.3203125 56.671875 C10.06893812 61.09374416 6.84921797 64.40623225 2 67 C1.34 67 0.68 67 0 67 C0 67.66 0 68.32 0 69 C-4.21107278 70.26332183 -6.5456709 70.00441956 -10.375 68.0625 C-11.59188424 67.39025121 -12.8033603 66.70765749 -14 66 C-11.76624052 64.85913 -9.52467426 63.78948902 -7.23046875 62.7734375 C1.02564684 58.97922777 6.96898726 54.76089465 10.875 46.375 C13.97625639 37.07123082 14.00711753 28.00170331 10 19 C5.77833026 12.280509 0.19691531 9.0119887 -7 6 C-5.68 5.67 -4.36 5.34 -3 5 C-3.33 4.01 -3.66 3.02 -4 2 C-2.68 2 -1.36 2 0 2 C0 1.34 0 0.68 0 0 Z " fill="#F2F5F7" transform="translate(168,39)"/>
<path d="M0 0 C4.25037964 -0.08081708 8.49922778 -0.14041866 12.75 -0.1875 C13.9565625 -0.21263672 15.163125 -0.23777344 16.40625 -0.26367188 C17.56640625 -0.27333984 18.7265625 -0.28300781 19.921875 -0.29296875 C20.99018555 -0.3086792 22.05849609 -0.32438965 23.15917969 -0.34057617 C26.4003357 0.04799487 27.7298043 0.67940674 30 3 C31.28560499 7.90136903 31.59298818 9.81402364 29.3125 14.375 C26.50881766 17.55755833 24.68364855 18.85099037 20.43457031 19.22705078 C19.49194336 19.21657715 18.54931641 19.20610352 17.578125 19.1953125 C16.04091797 19.18564453 16.04091797 19.18564453 14.47265625 19.17578125 C13.40917969 19.15902344 12.34570312 19.14226562 11.25 19.125 C9.63158203 19.11146484 9.63158203 19.11146484 7.98046875 19.09765625 C5.32021751 19.0741142 2.66008051 19.03824397 0 19 C0 12.73 0 6.46 0 0 Z " fill="#FCFDFC" transform="translate(116,67)"/>
<path d="M0 0 C10.46853558 -0.82336797 10.46853558 -0.82336797 14.1796875 1.171875 C19.11311631 5.77640855 21.57180459 11.81201815 24 18 C16.00807211 20.92791828 8.4865307 21.58399359 0 22 C0 14.74 0 7.48 0 0 Z " fill="#8E8F97" transform="translate(116,111)"/>
<path d="M0 0 C4.43775675 0.13861026 8.87512777 0.28711864 13.3125 0.4375 C14.57513672 0.47681641 15.83777344 0.51613281 17.13867188 0.55664062 C18.95141602 0.61948242 18.95141602 0.61948242 20.80078125 0.68359375 C22.47394409 0.73858032 22.47394409 0.73858032 24.1809082 0.79467773 C27 1 27 1 30 2 C30.99 1.67 31.98 1.34 33 1 C33.495 1.99 33.495 1.99 34 3 C33.34 3 32.68 3 32 3 C32 3.66 32 4.32 32 5 C32.66 5 33.32 5 34 5 C34 9.62 34 14.24 34 19 C33.01 19.495 33.01 19.495 32 20 C30.9805881 20.98020375 29.97753644 21.97803008 29 23 C28.34 22.67 27.68 22.34 27 22 C29 18 29 18 30.125 16.25 C31.46160487 12.81301605 31.12238184 9.67145533 31 6 C27.60136617 3.95651763 24.85579897 3.70164115 20.921875 3.5859375 C19.76171875 3.54726562 18.6015625 3.50859375 17.40625 3.46875 C16.1996875 3.4378125 14.993125 3.406875 13.75 3.375 C12.52796875 3.33632812 11.3059375 3.29765625 10.046875 3.2578125 C7.03149774 3.16358196 4.0157696 3.08070369 1 3 C1 9.27 1 15.54 1 22 C0.67 22 0.34 22 0 22 C0 15.73 0 9.46 0 3 C-0.66 2.67 -1.32 2.34 -2 2 C-1.34 2 -0.68 2 0 2 C0 1.34 0 0.68 0 0 Z " fill="#3C78C3" transform="translate(115,64)"/>
<path d="M0 0 C1.1079039 -0.0049926 1.1079039 -0.0049926 2.2381897 -0.01008606 C3.78264754 -0.01510658 5.32711604 -0.01749591 6.87158203 -0.01733398 C9.24138725 -0.01954508 11.61074412 -0.03781777 13.98046875 -0.05664062 C15.48697758 -0.05957064 16.99348861 -0.06155806 18.5 -0.0625 C19.20828949 -0.06968552 19.91657898 -0.07687103 20.64633179 -0.08427429 C25.62270373 -0.06089002 25.62270373 -0.06089002 27.8515625 2.16796875 C24.06029652 2.36425289 20.26854078 2.54850771 16.4765625 2.73046875 C14.85621094 2.81458008 14.85621094 2.81458008 13.203125 2.90039062 C12.171875 2.94873047 11.140625 2.99707031 10.078125 3.046875 C9.12502441 3.09400635 8.17192383 3.1411377 7.18994141 3.18969727 C4.8515625 3.16796875 4.8515625 3.16796875 2.8515625 2.16796875 C2.5215625 3.15796875 2.1915625 4.14796875 1.8515625 5.16796875 C-0.4584375 5.16796875 -2.7684375 5.16796875 -5.1484375 5.16796875 C-5.1484375 4.50796875 -5.1484375 3.84796875 -5.1484375 3.16796875 C-6.4684375 2.83796875 -7.7884375 2.50796875 -9.1484375 2.16796875 C-9.1484375 2.82796875 -9.1484375 3.48796875 -9.1484375 4.16796875 C-9.8084375 4.16796875 -10.4684375 4.16796875 -11.1484375 4.16796875 C-11.1484375 3.50796875 -11.1484375 2.84796875 -11.1484375 2.16796875 C-12.1384375 2.66296875 -12.1384375 2.66296875 -13.1484375 3.16796875 C-15.14803762 3.20796075 -17.14890992 3.21143674 -19.1484375 3.16796875 C-13.62073822 -0.5171641 -6.48725542 0.01037022 0 0 Z " fill="#C8C9CB" transform="translate(91.1484375,0.83203125)"/>
<path d="M0 0 C10.60591086 -0.76118977 10.60591086 -0.76118977 13.91015625 1.04296875 C15.25 2.375 15.25 2.375 17 5 C17 5.66 17 6.32 17 7 C11.27959989 7.8320582 5.77759884 8.12036664 0 8 C0 5.36 0 2.72 0 0 Z " fill="#EEF1F4" transform="translate(116,111)"/>
<path d="M0 0 C4.25037964 -0.08081708 8.49922778 -0.14041866 12.75 -0.1875 C13.9565625 -0.21263672 15.163125 -0.23777344 16.40625 -0.26367188 C17.56640625 -0.27333984 18.7265625 -0.28300781 19.921875 -0.29296875 C20.99018555 -0.3086792 22.05849609 -0.32438965 23.15917969 -0.34057617 C26.36242361 0.04344972 27.70016253 0.77986321 30 3 C30.95357865 5.76757022 30.9052971 8.0168588 31 11 C30.34 11.66 29.68 12.32 29 13 C28.67 10.36 28.34 7.72 28 5 C27.01 4.67 26.02 4.34 25 4 C25 3.01 25 2.02 25 1 C17.08 1 9.16 1 1 1 C1 6.61 1 12.22 1 18 C8.26 18 15.52 18 23 18 C23 18.33 23 18.66 23 19 C15.41 19 7.82 19 0 19 C0 12.73 0 6.46 0 0 Z " fill="#C9DFF3" transform="translate(116,67)"/>
<path d="M0 0 C0.66 0.66 1.32 1.32 2 2 C1.34 2 0.68 2 0 2 C0 2.66 0 3.32 0 4 C0.66 4 1.32 4 2 4 C2 8.62 2 13.24 2 18 C1.34 18.33 0.68 18.66 0 19 C-1.0194119 19.98020375 -2.02246356 20.97803008 -3 22 C-3.66 21.67 -4.32 21.34 -5 21 C-3 17 -3 17 -1.875 15.25 C-0.53839513 11.81301605 -0.87761816 8.67145533 -1 5 C-1.99 4.67 -2.98 4.34 -4 4 C-4 3.34 -4 2.68 -4 2 C-2.68 1.34 -1.36 0.68 0 0 Z " fill="#2B6ABE" transform="translate(147,65)"/>
<path d="M0 0 C3.57104439 1.87949705 5.54744301 3.17053157 7 7 C6.34 7 5.68 7 5 7 C4.34 8.98 3.68 10.96 3 13 C1.68 13 0.36 13 -1 13 C-1.33 14.32 -1.66 15.64 -2 17 C-3.32 15.35 -4.64 13.7 -6 12 C-5.34 12 -4.68 12 -4 12 C-3.67 11.34 -3.34 10.68 -3 10 C-2.34 9.855625 -1.68 9.71125 -1 9.5625 C-0.01 9.2840625 -0.01 9.2840625 1 9 C1.33 8.01 1.66 7.02 2 6 C1.01 5.67 0.02 5.34 -1 5 C-0.67 3.35 -0.34 1.7 0 0 Z " fill="#9B9AA0" transform="translate(185,35)"/>
<path d="M0 0 C1.92357084 0.71075338 3.83866934 1.44445878 5.75 2.1875 C6.81734375 2.59355469 7.8846875 2.99960938 8.984375 3.41796875 C13.98431503 6.04099429 16.20427396 9.7624657 18 15 C16.68 14.34 15.36 13.68 14 13 C14 12.34 14 11.68 14 11 C13.34 11 12.68 11 12 11 C11.67 9.35 11.34 7.7 11 6 C9.68 6 8.36 6 7 6 C6.67 6.66 6.34 7.32 6 8 C5.67 7.01 5.34 6.02 5 5 C2.98491642 4.26676204 2.98491642 4.26676204 1 4 C0.67 2.68 0.34 1.36 0 0 Z " fill="#346BAF" transform="translate(153,104)"/>
<path d="M0 0 C3.64616149 3.64616149 4.12016605 9.12304914 4.1875 14.125 C4.02375025 17.50916149 3.66364086 20.6817957 3 24 C2.67 24 2.34 24 2 24 C1.93941406 23.11957031 1.87882813 22.23914063 1.81640625 21.33203125 C1.73261719 20.17058594 1.64882812 19.00914063 1.5625 17.8125 C1.48128906 16.66394531 1.40007812 15.51539062 1.31640625 14.33203125 C1.04562706 11.48049234 0.5752556 8.79957724 0 6 C-0.03772913 4.0003559 -0.04649906 1.99945939 0 0 Z " fill="#487DC4" transform="translate(178,58)"/>
<path d="M0 0 C0.66 0.33 1.32 0.66 2 1 C-0.74274912 4.07187901 -3.59002306 6.02324223 -7.1953125 7.99609375 C-11.18125057 10.21337965 -14.93536722 12.59485246 -18 16 C-18.66 15.67 -19.32 15.34 -20 15 C-18.61211198 13.69979989 -17.21430742 12.4101807 -15.8125 11.125 C-14.64654297 10.04605469 -14.64654297 10.04605469 -13.45703125 8.9453125 C-11.02310224 7.0182908 -8.92463354 5.98699889 -6 5 C-6 4.34 -6 3.68 -6 3 C-4.03533587 1.93224776 -2.03144641 0.93446535 0 0 Z " fill="#D9DADC" transform="translate(38,14)"/>
<path d="M0 0 C6.52307692 -0.36923077 6.52307692 -0.36923077 8.9375 1.5 C9.288125 1.995 9.63875 2.49 10 3 C7.08291076 4.98362069 5.87619096 4.9876191 2.25 4.625 C1.1775 4.41875 0.105 4.2125 -1 4 C-0.67 2.68 -0.34 1.36 0 0 Z " fill="#BFC0C3" transform="translate(86,25)"/>
<path d="M0 0 C1.03590776 3.62567717 1.58792533 6.67716802 0 10.25 C-0.33 10.8275 -0.66 11.405 -1 12 C-5 7.375 -5 7.375 -5 4 C-4.34 4 -3.68 4 -3 4 C-3 3.34 -3 2.68 -3 2 C-2.01 1.34 -1.02 0.68 0 0 Z " fill="#F2F6F5" transform="translate(175,111)"/>
<path d="M0 0 C1.32 0.33 2.64 0.66 4 1 C3 3 3 3 1.15234375 3.6328125 C0.42144531 3.79523437 -0.30945313 3.95765625 -1.0625 4.125 C-1.79597656 4.29257812 -2.52945313 4.46015625 -3.28515625 4.6328125 C-3.85105469 4.75398438 -4.41695313 4.87515625 -5 5 C-5 5.66 -5 6.32 -5 7 C-6.65 7.33 -8.3 7.66 -10 8 C-10 6 -10 6 -7.8125 3.375 C-5 1 -5 1 -2.1875 0.6875 C-1.465625 0.790625 -0.74375 0.89375 0 1 C0 0.67 0 0.34 0 0 Z " fill="#C7C7CA" transform="translate(71,32)"/>
<path d="M0 0 C0.66 0.33 1.32 0.66 2 1 C2 2.65 2 4.3 2 6 C1.0409375 6.37125 1.0409375 6.37125 0.0625 6.75 C-2.18741541 7.81562433 -2.18741541 7.81562433 -2.75 10.125 C-2.8325 10.74375 -2.915 11.3625 -3 12 C-3.66 12 -4.32 12 -5 12 C-5 11.34 -5 10.68 -5 10 C-5.66 9.67 -6.32 9.34 -7 9 C-6.57847656 8.51789063 -6.15695313 8.03578125 -5.72265625 7.5390625 C-5.17480469 6.90742187 -4.62695312 6.27578125 -4.0625 5.625 C-3.51722656 4.99851562 -2.97195312 4.37203125 -2.41015625 3.7265625 C-0.93041376 2.04367666 -0.93041376 2.04367666 0 0 Z " fill="#949398" transform="translate(183,91)"/>
<path d="M0 0 C0.33 0 0.66 0 1 0 C1 1.98 1 3.96 1 6 C0.34 6 -0.32 6 -1 6 C-1.33 8.64 -1.66 11.28 -2 14 C-2.99 14 -3.98 14 -5 14 C-4.53411505 8.29290936 -3.06242216 4.84060277 0 0 Z " fill="#D5D6D7" transform="translate(7,42)"/>
<path d="M0 0 C1.423125 0.495 1.423125 0.495 2.875 1 C5.77062452 2.10159191 5.77062452 2.10159191 8 2 C8.66 2.66 9.32 3.32 10 4 C10.99 4.33 11.98 4.66 13 5 C13 5.99 13 6.98 13 8 C9.70319035 7.34215037 7.15882078 6.10579427 4.25 4.4375 C3.45078125 3.98246094 2.6515625 3.52742188 1.828125 3.05859375 C1.22484375 2.70925781 0.6215625 2.35992187 0 2 C0 1.34 0 0.68 0 0 Z " fill="#A7A6AB" transform="translate(159,32)"/>
<path d="M0 0 C0.66 0.33 1.32 0.66 2 1 C2.40729228 3.32156597 2.74438677 5.6568787 3 8 C1.68 8 0.36 8 -1 8 C-1.33 5.69 -1.66 3.38 -2 1 C-1.34 0.67 -0.68 0.34 0 0 Z " fill="#1D60AC" transform="translate(170,119)"/>
<path d="M0 0 C0 5.94 0 11.88 0 18 C-0.99 17.67 -1.98 17.34 -3 17 C-2.83628906 16.45859375 -2.67257813 15.9171875 -2.50390625 15.359375 C-1.91409413 12.59777407 -1.90390692 10.07181861 -1.9375 7.25 C-1.95103516 5.77273437 -1.95103516 5.77273437 -1.96484375 4.265625 C-1.97644531 3.51796875 -1.98804687 2.7703125 -2 2 C-2.66 1.67 -3.32 1.34 -4 1 C-2 0 -2 0 0 0 Z " fill="#9B9AA1" transform="translate(82,115)"/>
<path d="M0 0 C1.485 0.99 1.485 0.99 3 2 C3 2.66 3 3.32 3 4 C6.3 4.33 9.6 4.66 13 5 C13 5.66 13 6.32 13 7 C9.62112287 7.28527105 6.36826645 7.45018698 3 7 C0.81817659 4.56149148 0 3.2678851 0 0 Z " fill="#3173BD" transform="translate(113,104)"/>
<path d="M0 0 C0.8125 1.6875 0.8125 1.6875 1 4 C-1.1875 6.5625 -1.1875 6.5625 -4 9 C-4.680625 9.61875 -5.36125 10.2375 -6.0625 10.875 C-8 12 -8 12 -10.12109375 11.5703125 C-10.74113281 11.38210937 -11.36117187 11.19390625 -12 11 C-11.46890625 10.62488281 -10.9378125 10.24976562 -10.390625 9.86328125 C-6.31226272 6.90870127 -2.93808 4.16228001 0 0 Z " fill="#D9E9F7" transform="translate(177,89)"/>
<path d="M0 0 C4 4.5 4 4.5 4 9 C2 11.25 2 11.25 0 13 C0.185625 11.783125 0.37125 10.56625 0.5625 9.3125 C0.98993182 5.97022061 0.92258883 3.28031583 0 0 Z " fill="#2D6AB5" transform="translate(177,130)"/>
<path d="M0 0 C2.475 0.495 2.475 0.495 5 1 C5 2.65 5 4.3 5 6 C3.35 6 1.7 6 0 6 C0 4.02 0 2.04 0 0 Z " fill="#195DA8" transform="translate(184,148)"/>
<path d="M0 0 C-0.33 1.65 -0.66 3.3 -1 5 C-2.65 4.67 -4.3 4.34 -6 4 C-6.33 2.68 -6.66 1.36 -7 0 C-2.25 -1.125 -2.25 -1.125 0 0 Z " fill="#A7A8AD" transform="translate(56,122)"/>
<path d="M0 0 C2.31 1.98 4.62 3.96 7 6 C6.34 6.66 5.68 7.32 5 8 C2.5 6.25 2.5 6.25 0 4 C0 2.68 0 1.36 0 0 Z " fill="#2F6DC1" transform="translate(169,48)"/>
<path d="M0 0 C3.68754757 0.49831724 5.60490662 1.10067643 8 4 C5.125 4.625 5.125 4.625 2 5 C1.34 4.34 0.68 3.68 0 3 C0.66 3 1.32 3 2 3 C2 2.34 2 1.68 2 1 C1.34 0.67 0.68 0.34 0 0 Z " fill="#3371BA" transform="translate(152,99)"/>
<path d="M0 0 C0.97110486 3.02121511 1.13617383 5.00463263 0 8 C-0.99 8.495 -0.99 8.495 -2 9 C-2.66 8.67 -3.32 8.34 -4 8 C-2.66666667 5.33333333 -1.33333333 2.66666667 0 0 Z " fill="#4179BF" transform="translate(146,78)"/>
<path d="M0 0 C0.66 0.33 1.32 0.66 2 1 C1.67 2.32 1.34 3.64 1 5 C-0.98 5.33 -2.96 5.66 -5 6 C-3.86695008 2.60085025 -2.87481525 1.94745549 0 0 Z " fill="#175CA8" transform="translate(181,138)"/>
<path d="M0 0 C2.475 0.495 2.475 0.495 5 1 C5 3.31 5 5.62 5 8 C2.74754119 5.31158141 1.11786042 3.35358125 0 0 Z " fill="#E2EDF6" transform="translate(184,141)"/>
<path d="M0 0 C1.7074998 1.28062485 3.37373596 2.61767557 5 4 C5 4.66 5 5.32 5 6 C3.02 6.99 3.02 6.99 1 8 C0.67 5.36 0.34 2.72 0 0 Z " fill="#A09FA6" transform="translate(175,24)"/>
<path d="M0 0 C0.99 0 1.98 0 3 0 C3 1.98 3 3.96 3 6 C2.01 6.33 1.02 6.66 0 7 C-0.93423645 3.98968256 -1.04449911 3.13349732 0 0 Z " fill="#85838B" transform="translate(183,95)"/>
<path d="M0 0 C0.86625 0.3403125 0.86625 0.3403125 1.75 0.6875 C0.76 1.0175 -0.23 1.3475 -1.25 1.6875 C-1.25 2.3475 -1.25 3.0075 -1.25 3.6875 C-2.9 3.3575 -4.55 3.0275 -6.25 2.6875 C-2.80384615 -0.38942308 -2.80384615 -0.38942308 0 0 Z " fill="#D4D5D7" transform="translate(54.25,8.3125)"/>
</svg>
