<?xml version="1.0" encoding="UTF-8"?>
<svg version="1.1" xmlns="http://www.w3.org/2000/svg" width="225" height="225">
<path d="M0 0 C74.25 0 148.5 0 225 0 C225 74.25 225 148.5 225 225 C150.75 225 76.5 225 0 225 C0 150.75 0 76.5 0 0 Z " fill="#75AADB" transform="translate(0,0)"/>
<path d="M0 0 C74.25 0 148.5 0 225 0 C225 74.25 225 148.5 225 225 C150.75 225 76.5 225 0 225 C0 150.75 0 76.5 0 0 Z M30.1015625 37.56640625 C8.22162164 61.35393283 0.78690509 90.92945976 1.8046875 122.59521484 C3.4678692 151.58862984 19.06738938 178.08289396 40.13525391 197.38085938 C52.03079174 207.70963745 67.72258305 216.0827136 83 220 C83.92941406 220.27585938 84.85882813 220.55171875 85.81640625 220.8359375 C115.1561198 228.24735993 144.49718188 222.01588697 170.375 207.5625 C196.13250253 191.85839684 213.20363652 167.46522407 220.54223633 138.41894531 C225.09319842 119.51713395 224.92023601 98.58282791 219 80 C218.63777344 78.86046875 218.27554688 77.7209375 217.90234375 76.546875 C207.61514399 47.67297195 187.16612098 25.09707597 159.75 11.6875 C115.29241892 -9.10983264 63.41797973 2.57965374 30.1015625 37.56640625 Z " fill="#FDFEFE" transform="translate(0,0)"/>
<path d="M0 0 C0.99515625 0.16242187 1.9903125 0.32484375 3.015625 0.4921875 C11.36447686 1.67948653 20.18979039 1.37869516 28.5625 0.5 C42.10483217 -0.88686534 54.65088283 -1.06752885 66.015625 7.234375 C70.80972204 11.4999889 72.71221982 15.46393713 73.4375 21.85546875 C73.9054229 31.68761221 72.45266709 38.38404721 65.8125 45.75 C62.04502408 49.32910213 57.83995192 51.23303343 53 53 C56.13029846 59.2276464 59.92252017 64.87720912 64.06835938 70.46411133 C66.33466754 73.54700594 68.39726525 76.61269726 70.2265625 79.9765625 C73.82153433 86.99945652 73.82153433 86.99945652 80.23046875 91.09765625 C83.24843475 91.34885858 85.9967232 91.35571806 89 91 C89 93.97 89 96.94 89 100 C82.59976719 101.35611613 76.27038656 102.36524393 70 100 C63.35494112 94.34104534 59.43159345 85.61003627 55.3125 78.0625 C53.57305845 74.90977729 51.81609759 71.77755221 49.98368835 68.67784119 C48.84944864 66.75743642 47.76668078 64.80535163 46.74690247 62.8217926 C45.04534629 59.6703072 45.04534629 59.6703072 41 56 C35.72 55.67 30.44 55.34 25 55 C25 66.88 25 78.76 25 91 C29.95 91 34.9 91 40 91 C40 93.97 40 96.94 40 100 C26.8 100 13.6 100 0 100 C0 97.03 0 94.06 0 91 C4.62 91 9.24 91 14 91 C14 64.27 14 37.54 14 10 C11.03 10 8.06 10 5 10 C1.9375 9.5 1.9375 9.5 0 9 C0 6.03 0 3.06 0 0 Z " fill="#FBFCFE" transform="translate(73,57)"/>
<path d="M0 0 C1.08152344 -0.020625 2.16304687 -0.04125 3.27734375 -0.0625 C11.09119599 -0.10066289 16.24629148 0.46136849 22.25 5.8125 C26.17653808 10.31647016 25.7075742 14.22408736 25.65625 20.04296875 C25.29526283 24.15922519 24.21140857 26.26027204 21.375 29.25 C20.694375 29.971875 20.01375 30.69375 19.3125 31.4375 C9.50753738 37.48737055 -1.55846506 36.52048095 -12.625 36.25 C-12.64965098 31.28377651 -12.66783649 26.31758834 -12.67993164 21.35131836 C-12.6849719 19.66055684 -12.69180405 17.96979971 -12.70043945 16.27905273 C-12.71251857 13.85399293 -12.71823123 11.42899056 -12.72265625 9.00390625 C-12.72781754 8.24348526 -12.73297882 7.48306427 -12.73829651 6.69960022 C-12.73849238 4.8826743 -12.68697277 3.06586873 -12.625 1.25 C-10.11525778 -1.25974222 -3.36887122 0.01572402 0 0 Z " fill="#77ABDB" transform="translate(109.625,66.75)"/>
</svg>
