<?xml version="1.0" encoding="UTF-8"?>
<svg version="1.1" xmlns="http://www.w3.org/2000/svg" width="225" height="225">
<path d="M0 0 C74.25 0 148.5 0 225 0 C225 74.25 225 148.5 225 225 C150.75 225 76.5 225 0 225 C0 150.75 0 76.5 0 0 Z " fill="#FEFEFD" transform="translate(0,0)"/>
<path d="M0 0 C0.33 2.64 0.66 5.28 1 8 C1.33 7.67 1.66 7.34 2 7 C2.66 7 3.32 7 4 7 C4 7.66 4 8.32 4 9 C4.83402344 8.93039063 5.66804687 8.86078125 6.52734375 8.7890625 C13.95600877 8.43166968 18.47283666 9.02110301 24.48828125 13.4921875 C25.23658203 14.23855469 25.23658203 14.23855469 26 15 C26 15.66 26 16.32 26 17 C27.32 17.33 28.64 17.66 30 18 C30 18.66 30 19.32 30 20 C30.721875 20.268125 31.44375 20.53625 32.1875 20.8125 C35.88159255 22.37222796 39.00146753 23.99724541 41.84765625 26.85546875 C44.07518931 29.07491639 46.40431713 30.99405008 48.875 32.9375 C50.19564453 33.989375 50.19564453 33.989375 51.54296875 35.0625 C52.93202078 36.1578415 54.32654255 37.24655797 55.73828125 38.3125 C63.22041261 44.12073135 68.58913033 51.54045481 70 61 C70.40928263 67.18796363 69.67329356 72.61582224 68 78.5625 C67.77924805 79.37275635 67.55849609 80.1830127 67.33105469 81.01782227 C64.92859667 89.61904459 62.05964543 98.06374627 59.18359375 106.515625 C56.41274361 114.67836571 53.81799433 122.89750753 51.23339844 131.12084961 C40.50756553 164.87553107 40.50756553 164.87553107 26.90625 175.66015625 C16.76204075 180.33685487 4.73976879 179.31038499 -6.17578125 179.30078125 C-8.03224278 179.30467752 -9.88870343 179.30901407 -11.74516296 179.31376648 C-15.62237446 179.32119374 -19.49949484 179.32096316 -23.37670898 179.31567383 C-28.30869326 179.3098875 -33.24030097 179.32680719 -38.17222309 179.3500185 C-42.00302761 179.36485798 -45.83374359 179.36561369 -49.66457176 179.36250877 C-51.48116996 179.36301699 -53.29777379 179.36815905 -55.11434364 179.37832069 C-69.91615126 179.45096688 -85.96900056 179.41707542 -97.625 169 C-104.65437628 161.39679708 -107.54713493 151.78048614 -110.32617188 142.04321289 C-113.40988017 131.31561626 -117.03414107 120.76848439 -120.59814453 110.19335938 C-123.04745731 102.91881074 -125.47797506 95.63790984 -127.8203125 88.328125 C-128.22137207 87.08450195 -128.62243164 85.84087891 -129.03564453 84.55957031 C-130.4313004 79.40801018 -130.88912198 74.32214513 -131 69 C-129.4221875 69.4640625 -129.4221875 69.4640625 -127.8125 69.9375 C-122.48205568 71.42945829 -122.48205568 71.42945829 -117.0078125 72.0859375 C-115 73 -115 73 -113.69140625 76.03515625 C-113.29849921 77.37283847 -112.92344389 78.71584148 -112.5625 80.0625 C-112.13181896 81.54696455 -111.70082151 83.03133733 -111.26953125 84.515625 C-111.05635254 85.27166016 -110.84317383 86.02769531 -110.62353516 86.80664062 C-109.71802308 89.99188748 -108.7369237 93.15163095 -107.75 96.3125 C-107.55486816 96.94075684 -107.35973633 97.56901367 -107.15869141 98.21630859 C-104.65723842 106.20605262 -101.97118398 114.13605952 -99.29785156 122.06958008 C-97.06113537 128.72827047 -94.93710135 135.40589395 -92.94482422 142.14208984 C-90.56200856 149.34964544 -86.82269842 156.19575316 -80 160 C-74.40721318 161.63669985 -69.42225596 162.29770551 -63.61547852 162.29052734 C-62.81922058 162.29724457 -62.02296265 162.30396179 -61.20257568 162.31088257 C-58.59462081 162.32973673 -55.98692485 162.33377995 -53.37890625 162.3359375 C-51.55101926 162.34237278 -49.72313329 162.34910167 -47.89524841 162.35610962 C-44.07328911 162.3680499 -40.25141999 162.37179366 -36.42944336 162.37060547 C-31.54947371 162.37040215 -26.67008551 162.39773275 -21.79025364 162.43214989 C-18.01797362 162.45446087 -14.2458328 162.45844177 -10.47349358 162.45738602 C-8.67507862 162.45973455 -6.8766594 162.46851563 -5.07831001 162.48405075 C9.19242199 162.91339195 9.19242199 162.91339195 21.55931091 156.63168335 C22.73697553 155.45103288 23.87317382 154.22926492 25 153 C25.66 153 26.32 153 27 153 C27.29028076 152.12843262 27.58056152 151.25686523 27.87963867 150.35888672 C28.89188548 147.32413153 29.90816703 144.29077104 30.92578125 141.2578125 C36.04005333 125.98577073 41.07882946 110.69016365 46.0625 95.375 C46.35162262 94.48798401 46.64074524 93.60096802 46.93862915 92.68707275 C47.76399218 90.15385241 48.58740923 87.62000852 49.41015625 85.0859375 C49.65763611 84.3267804 49.90511597 83.56762329 50.16009521 82.78546143 C52.82200553 74.56719796 55.09846647 65.49091116 51.8125 57.0625 C49.83823644 53.72667536 47.89752808 51.57558051 45 49 C44.41089844 48.45472656 43.82179687 47.90945312 43.21484375 47.34765625 C39.25899621 43.75357608 35.18738217 40.698877 30.69921875 37.80859375 C26.46709139 34.97288468 22.39908654 31.91542934 18.31616211 28.87011719 C15.60554749 26.85962332 12.97412682 24.98504421 10.046875 23.29296875 C9.03367188 22.65294922 9.03367188 22.65294922 8 22 C8 21.34 8 20.68 8 20 C6.35 19.67 4.7 19.34 3 19 C2.89042969 19.75023438 2.78085938 20.50046875 2.66796875 21.2734375 C1.73133829 27.31965364 0.53916525 33.0420834 -1.4140625 38.84375 C-2.17481983 41.27092977 -2.17481983 41.27092977 -2 45 C0.03135747 47.01900813 0.03135747 47.01900813 3 49 C4.39377196 50.01878909 5.78695033 51.03839051 7.1796875 52.05859375 C8.74384436 53.18621105 10.30897337 54.31248087 11.875 55.4375 C12.65230469 55.99759766 13.42960938 56.55769531 14.23046875 57.13476562 C18.81228975 60.4344468 23.40333058 63.72104248 28 67 C27.18242604 71.9458178 25.60008214 76.61744335 24.0625 81.375 C23.61040161 82.78434814 23.61040161 82.78434814 23.14916992 84.22216797 C22.10227774 87.4823623 21.05106597 90.74114901 20 94 C19.36952694 95.95993244 18.73950904 97.92001084 18.10951233 99.88009644 C17.01156514 103.29540465 15.91215027 106.71023982 14.8125 110.125 C14.60271515 110.77668152 14.3929303 111.42836304 14.17678833 112.09979248 C13.56256497 114.00685669 12.94730629 115.91358734 12.33203125 117.8203125 C11.97858643 118.91617676 11.6251416 120.01204102 11.26098633 121.14111328 C9.53101053 126.43520767 7.7612567 131.7162299 6 137 C-18.42 137 -42.84 137 -68 137 C-75.0625 115.3125 -75.0625 115.3125 -77.24243164 108.61450195 C-77.54241562 107.69412643 -77.8423996 106.77375092 -78.151474 105.82548523 C-78.7726716 103.91890104 -79.39256001 102.01189005 -80.01148987 100.10456848 C-81.66230626 95.03230342 -83.34455898 89.97448802 -85.09326172 84.93505859 C-85.58916054 83.49334541 -85.58916054 83.49334541 -86.09507751 82.02250671 C-86.72202241 80.20577143 -87.35746394 78.39193868 -88.00270081 76.58161926 C-88.280811 75.77246567 -88.5589212 74.96331207 -88.84545898 74.12963867 C-89.09343735 73.42554367 -89.34141571 72.72144867 -89.59690857 71.99601746 C-90.07199472 69.64349845 -89.81828627 68.24216145 -89 66 C-87.44140625 64.515625 -87.44140625 64.515625 -85.5625 63.25 C-84.94503906 62.82203125 -84.32757813 62.3940625 -83.69140625 61.953125 C-82 61 -82 61 -80 61 C-80 60.34 -80 59.68 -80 59 C-74.27218363 54.57011246 -67.97191018 50.13425822 -61 48 C-59.35 48.33 -57.7 48.66 -56 49 C-56 44.71 -56 40.42 -56 36 C-56.66 35.67 -57.32 35.34 -58 35 C-57.39009109 31.44219804 -56.4216319 28.3171411 -55 25 C-52.69 25 -50.38 25 -48 25 C-47.83918945 25.65895264 -47.67837891 26.31790527 -47.51269531 26.99682617 C-44.01498167 41.62696967 -44.01498167 41.62696967 -39.8125 56.0625 C-37.59569399 62.92625083 -36.29398923 69.9124681 -35 77 C-32.36 77 -29.72 77 -27 77 C-26.773125 75.72125 -26.54625 74.4425 -26.3125 73.125 C-25.16194579 67.34774909 -23.57316354 61.72287156 -21.96923828 56.05957031 C-19.81131139 48.41352338 -17.88215313 40.71787933 -16 33 C-14.35 33 -12.7 33 -11 33 C-10.505 32.01 -10.505 32.01 -10 31 C-10 31.66 -10 32.32 -10 33 C-9.34 33 -8.68 33 -8 33 C-8.0407666 32.24380371 -8.0815332 31.48760742 -8.12353516 30.70849609 C-8.30251974 27.26449476 -8.4639215 23.81988333 -8.625 20.375 C-8.68945312 19.18519531 -8.75390625 17.99539062 -8.8203125 16.76953125 C-8.871875 15.61582031 -8.9234375 14.46210937 -8.9765625 13.2734375 C-9.02893066 12.21560059 -9.08129883 11.15776367 -9.13525391 10.06787109 C-8.98522718 6.66491821 -8.38486564 4.11040254 -7 1 C-4 0 -4 0 0 0 Z " fill="#87C638" transform="translate(144,31)"/>
<path d="M0 0 C2.59375 1.53515625 2.59375 1.53515625 4.5 2.9375 C4.5 3.5975 4.5 4.2575 4.5 4.9375 C5.22960937 5.20691406 5.95921875 5.47632813 6.7109375 5.75390625 C9.42868564 6.90723634 11.6827105 8.22582513 14.125 9.875 C14.88039062 10.37902344 15.63578125 10.88304688 16.4140625 11.40234375 C18.31267934 12.79964041 19.8681663 14.24624378 21.5 15.9375 C23.15533995 17.28486973 24.82012773 18.62084336 26.5 19.9375 C22.54 19.9375 18.58 19.9375 14.5 19.9375 C14.5 19.2775 14.5 18.6175 14.5 17.9375 C13.84 17.9375 13.18 17.9375 12.5 17.9375 C12.5 18.5975 12.5 19.2575 12.5 19.9375 C11.84 19.6075 11.18 19.2775 10.5 18.9375 C10.09270772 16.61593403 9.75561323 14.2806213 9.5 11.9375 C6.53 12.4325 6.53 12.4325 3.5 12.9375 C2.73223525 17.0127634 2.38097966 20.84755447 2.40234375 24.9921875 C2.40556641 26.10078125 2.40878906 27.209375 2.41210938 28.3515625 C2.42048828 29.49367187 2.42886719 30.63578125 2.4375 31.8125 C2.44201172 32.9778125 2.44652344 34.143125 2.45117188 35.34375 C2.46291219 38.20838645 2.4793343 41.07291633 2.5 43.9375 C-0.14 43.9375 -2.78 43.9375 -5.5 43.9375 C-5.66048828 45.55398437 -5.66048828 45.55398437 -5.82421875 47.203125 C-6.52785061 52.80753429 -7.92172962 58.22027466 -9.3125 63.6875 C-9.57949707 64.74775391 -9.84649414 65.80800781 -10.12158203 66.90039062 C-11.94370732 74.03111305 -13.92712553 81.0361426 -16.5 87.9375 C-19.14 87.9375 -21.78 87.9375 -24.5 87.9375 C-25.90447521 82.92798935 -27.2978727 77.91552673 -28.68212891 72.90039062 C-29.2562149 70.82065701 -29.83151647 68.74125874 -30.40771484 66.66210938 C-31.36114144 63.21385862 -32.30632858 59.76343191 -33.25 56.3125 C-33.55558838 55.21115723 -33.86117676 54.10981445 -34.17602539 52.97509766 C-35.72404803 47.2838252 -36.95933466 41.8136786 -37.5 35.9375 C-40.965 36.4325 -40.965 36.4325 -44.5 36.9375 C-46.03354365 40.90667179 -46.52267419 42.90361845 -45.5 46.9375 C-45.43209325 49.18657152 -45.41500016 51.43751605 -45.4375 53.6875 C-45.44652344 54.85796875 -45.45554687 56.0284375 -45.46484375 57.234375 C-45.47644531 58.12640625 -45.48804687 59.0184375 -45.5 59.9375 C-47.3253125 59.9065625 -47.3253125 59.9065625 -49.1875 59.875 C-55.46513931 60.49476694 -59.90466449 64.34407408 -64.77734375 68.00390625 C-67.5 69.9375 -67.5 69.9375 -69.5 69.9375 C-69.5 70.5975 -69.5 71.2575 -69.5 71.9375 C-71.46875 73.4453125 -71.46875 73.4453125 -74 75.0625 C-74.8353125 75.60132812 -75.670625 76.14015625 -76.53125 76.6953125 C-77.1809375 77.10523437 -77.830625 77.51515625 -78.5 77.9375 C-77.04447187 85.1999789 -74.89587714 92.05956479 -72.5 99.0625 C-71.69799736 101.43969245 -70.89727044 103.81731559 -70.09765625 106.1953125 C-69.67758301 107.44344727 -69.25750977 108.69158203 -68.82470703 109.97753906 C-66.71820556 116.2595221 -64.65796422 122.55656242 -62.61303711 128.85882568 C-62.16392377 130.24077843 -61.71308633 131.62217211 -61.26049805 133.00299072 C-60.62644838 134.93810702 -59.99863205 136.87526234 -59.37109375 138.8125 C-59.00943115 139.92367187 -58.64776855 141.03484375 -58.27514648 142.1796875 C-57.5 144.9375 -57.5 144.9375 -57.5 147.9375 C-33.08 147.9375 -8.66 147.9375 16.5 147.9375 C16.83 145.9575 17.16 143.9775 17.5 141.9375 C18.16349891 139.64570671 18.87010874 137.36614312 19.609375 135.09765625 C19.81806213 134.45364365 20.02674927 133.80963104 20.24176025 133.14610291 C20.90719051 131.09608107 21.57853887 129.04805333 22.25 127 C22.68527466 125.66093037 23.12017328 124.32173845 23.5546875 122.98242188 C26.48967378 113.95182707 29.48853227 104.94283496 32.5 95.9375 C33.10049078 94.13679555 33.70078051 92.33602404 34.30078125 90.53515625 C35.70052083 86.3359375 37.10026042 82.13671875 38.5 77.9375 C37.91968018 77.66204346 37.33936035 77.38658691 36.74145508 77.1027832 C34.56074454 75.96907975 32.63729102 74.71732038 30.63671875 73.29296875 C29.91419922 72.78056641 29.19167969 72.26816406 28.44726562 71.74023438 C27.70154297 71.20720703 26.95582031 70.67417969 26.1875 70.125 C25.45337891 69.60357422 24.71925781 69.08214844 23.96289062 68.54492188 C22.50870974 67.51138249 21.05667694 66.47481334 19.60693359 65.43505859 C18.21355763 64.4446799 16.81025107 63.468112 15.39697266 62.50634766 C13.73129826 61.36389542 12.11047812 60.1565277 10.5 58.9375 C10.5 58.2775 10.5 57.6175 10.5 56.9375 C9.51 56.6075 8.52 56.2775 7.5 55.9375 C8.2574367 50.97471163 9.33804288 46.12937789 10.5 41.25 C10.76683594 40.11208008 10.76683594 40.11208008 11.0390625 38.95117188 C11.76051775 35.90113903 12.5083449 32.9124653 13.5 29.9375 C15.15 30.2675 16.8 30.5975 18.5 30.9375 C18.5 31.5975 18.5 32.2575 18.5 32.9375 C19.51513672 33.27201172 19.51513672 33.27201172 20.55078125 33.61328125 C24.3386202 35.31404602 27.3893932 37.62681498 30.6875 40.125 C32.02796469 41.12591286 33.36911128 42.12591314 34.7109375 43.125 C35.36030273 43.6096875 36.00966797 44.094375 36.67871094 44.59375 C39.02184243 46.32251619 41.41113507 47.97834976 43.8125 49.625 C62.46492609 62.61007793 62.46492609 62.61007793 64.5 71.9375 C65.57803433 81.09360488 63.32965316 88.81084775 60.37304688 97.36621094 C59.00236774 101.40312163 57.72626881 105.46959168 56.43579102 109.53271484 C52.95041945 120.48500828 49.38852259 131.41349287 45.78085327 142.32611084 C45.34770677 143.63798584 44.9160568 144.95035601 44.48599243 146.26324463 C43.883232 148.10147364 43.27376488 149.93749931 42.6640625 151.7734375 C42.31811035 152.82063965 41.9721582 153.8678418 41.61572266 154.94677734 C39.7513416 159.94429767 37.87060529 164.09370756 33.8125 167.625 C33.18988281 168.18574219 32.56726563 168.74648437 31.92578125 169.32421875 C25.91161806 173.32397623 20.15709084 174.38400463 13.11547852 174.32568359 C11.92109161 174.33356903 11.92109161 174.33356903 10.70257568 174.34161377 C8.09448083 174.35471812 5.48700633 174.34610914 2.87890625 174.3359375 C1.05101913 174.33796119 -0.77686721 174.34087508 -2.60475159 174.34463501 C-6.42676517 174.34904559 -10.24856769 174.34266897 -14.07055664 174.32861328 C-18.9504578 174.31153434 -23.82986341 174.32136246 -28.70974636 174.33933067 C-32.48203713 174.3502132 -36.25421201 174.34670153 -40.02650642 174.3389473 C-41.82490155 174.33695699 -43.62330747 174.3393631 -45.42168999 174.34638596 C-67.84481821 174.41473911 -67.84481821 174.41473911 -76.7890625 165.859375 C-82.15876597 159.8276533 -83.86118242 151.93238377 -86.1484375 144.359375 C-87.52376245 139.8181695 -88.99699707 135.31287084 -90.5 130.8125 C-90.87850098 129.67723877 -90.87850098 129.67723877 -91.26464844 128.51904297 C-92.82008006 123.88377667 -94.44989872 119.28118265 -96.125 114.6875 C-98.22183507 108.88917793 -99.9734488 103.03846949 -101.60546875 97.09375 C-102.2075484 94.96938164 -102.87880553 92.8635531 -103.61328125 90.78125 C-104.5 87.9375 -104.5 87.9375 -104.5 83.9375 C-106.294375 84.0303125 -106.294375 84.0303125 -108.125 84.125 C-112.26379485 84.1469759 -114.87330151 82.96170381 -118.5 80.9375 C-119.49 80.9375 -120.48 80.9375 -121.5 80.9375 C-122.08995213 70.33474914 -121.17950848 63.17553516 -114.375 54.875 C-109.27654397 49.38182479 -103.32635469 44.72299448 -97.0625 40.625 C-94.58857931 39.12442524 -94.58857931 39.12442524 -93.140625 37.5546875 C-89.85440337 34.31541189 -85.91835157 31.81651826 -82.17236328 29.13916016 C-80.38744702 27.85662616 -78.61331387 26.56002745 -76.83984375 25.26171875 C-75.6017119 24.36177359 -74.36343267 23.46203115 -73.125 22.5625 C-72.54258545 22.13380615 -71.9601709 21.7051123 -71.36010742 21.26342773 C-68.18996099 18.97491696 -65.20635154 17.20071344 -61.5 15.9375 C-61.5 15.2775 -61.5 14.6175 -61.5 13.9375 C-59.75963506 12.63671177 -57.95418109 11.42261105 -56.125 10.25 C-52.16622381 7.69415853 -48.3289389 5.07948293 -44.5625 2.25 C-29.75687818 -8.06190274 -15.32942812 -8.76886168 0 0 Z " fill="#FCFDFB" transform="translate(133.5,20.0625)"/>
<path d="M0 0 C2.59375 1.53515625 2.59375 1.53515625 4.5 2.9375 C4.5 3.5975 4.5 4.2575 4.5 4.9375 C5.22960937 5.20691406 5.95921875 5.47632813 6.7109375 5.75390625 C9.42868564 6.90723634 11.6827105 8.22582513 14.125 9.875 C14.88039062 10.37902344 15.63578125 10.88304688 16.4140625 11.40234375 C18.31267934 12.79964041 19.8681663 14.24624378 21.5 15.9375 C23.15533995 17.28486973 24.82012773 18.62084336 26.5 19.9375 C22.54 19.9375 18.58 19.9375 14.5 19.9375 C14.5 19.2775 14.5 18.6175 14.5 17.9375 C13.84 17.9375 13.18 17.9375 12.5 17.9375 C12.5 18.5975 12.5 19.2575 12.5 19.9375 C11.84 19.6075 11.18 19.2775 10.5 18.9375 C10.09270772 16.61593403 9.75561323 14.2806213 9.5 11.9375 C6.53 12.4325 6.53 12.4325 3.5 12.9375 C2.73223525 17.0127634 2.38097966 20.84755447 2.40234375 24.9921875 C2.40556641 26.10078125 2.40878906 27.209375 2.41210938 28.3515625 C2.42048828 29.49367187 2.42886719 30.63578125 2.4375 31.8125 C2.44201172 32.9778125 2.44652344 34.143125 2.45117188 35.34375 C2.46291219 38.20838645 2.4793343 41.07291633 2.5 43.9375 C-0.14 43.9375 -2.78 43.9375 -5.5 43.9375 C-5.66048828 45.55398437 -5.66048828 45.55398437 -5.82421875 47.203125 C-6.52785061 52.80753429 -7.92172962 58.22027466 -9.3125 63.6875 C-9.57949707 64.74775391 -9.84649414 65.80800781 -10.12158203 66.90039062 C-11.94370732 74.03111305 -13.92712553 81.0361426 -16.5 87.9375 C-19.14 87.9375 -21.78 87.9375 -24.5 87.9375 C-25.90447521 82.92798935 -27.2978727 77.91552673 -28.68212891 72.90039062 C-29.2562149 70.82065701 -29.83151647 68.74125874 -30.40771484 66.66210938 C-31.36114144 63.21385862 -32.30632858 59.76343191 -33.25 56.3125 C-33.55558838 55.21115723 -33.86117676 54.10981445 -34.17602539 52.97509766 C-35.72404803 47.2838252 -36.95933466 41.8136786 -37.5 35.9375 C-40.965 36.4325 -40.965 36.4325 -44.5 36.9375 C-46.03354365 40.90667179 -46.52267419 42.90361845 -45.5 46.9375 C-45.43209325 49.18657152 -45.41500016 51.43751605 -45.4375 53.6875 C-45.44652344 54.85796875 -45.45554687 56.0284375 -45.46484375 57.234375 C-45.47644531 58.12640625 -45.48804687 59.0184375 -45.5 59.9375 C-48.14 59.9375 -50.78 59.9375 -53.5 59.9375 C-52.819375 59.4425 -52.13875 58.9475 -51.4375 58.4375 C-49.15542844 56.02004074 -49.15542844 56.02004074 -49.5 52.5625 C-50.43447112 47.33929825 -52.09215502 42.26815977 -53.66015625 37.20703125 C-54.41524528 34.26745209 -54.67568489 31.94681214 -54.5 28.9375 C-55.41523437 29.5871875 -56.33046875 30.236875 -57.2734375 30.90625 C-58.47378605 31.75024508 -59.67431634 32.59398173 -60.875 33.4375 C-61.47828125 33.86675781 -62.0815625 34.29601563 -62.703125 34.73828125 C-67.2734375 37.9375 -67.2734375 37.9375 -69.5 37.9375 C-69.5 38.5975 -69.5 39.2575 -69.5 39.9375 C-71.22265625 41.234375 -71.22265625 41.234375 -73.5625 42.6875 C-76.6196408 44.64904574 -79.42197915 46.63655418 -82.125 49.0625 C-84.79209207 51.43529226 -87.53536575 53.10445776 -90.671875 54.828125 C-97.58174258 59.02129251 -102.40735268 64.02656734 -104.5 71.9375 C-105.06370758 75.93645124 -105.3634542 79.90257167 -105.5 83.9375 C-110.82365924 84.25691955 -113.85023724 83.47373423 -118.5 80.9375 C-119.49 80.9375 -120.48 80.9375 -121.5 80.9375 C-122.08995213 70.33474914 -121.17950848 63.17553516 -114.375 54.875 C-109.27654397 49.38182479 -103.32635469 44.72299448 -97.0625 40.625 C-94.58857931 39.12442524 -94.58857931 39.12442524 -93.140625 37.5546875 C-89.85440337 34.31541189 -85.91835157 31.81651826 -82.17236328 29.13916016 C-80.38744702 27.85662616 -78.61331387 26.56002745 -76.83984375 25.26171875 C-75.6017119 24.36177359 -74.36343267 23.46203115 -73.125 22.5625 C-72.54258545 22.13380615 -71.9601709 21.7051123 -71.36010742 21.26342773 C-68.18996099 18.97491696 -65.20635154 17.20071344 -61.5 15.9375 C-61.5 15.2775 -61.5 14.6175 -61.5 13.9375 C-59.75963506 12.63671177 -57.95418109 11.42261105 -56.125 10.25 C-52.16622381 7.69415853 -48.3289389 5.07948293 -44.5625 2.25 C-29.75687818 -8.06190274 -15.32942812 -8.76886168 0 0 Z " fill="#9FE04B" transform="translate(133.5,20.0625)"/>
<path d="M0 0 C1.051875 0.309375 2.10375 0.61875 3.1875 0.9375 C8.51794432 2.42945829 8.51794432 2.42945829 13.9921875 3.0859375 C16 4 16 4 17.30859375 7.03515625 C17.70150079 8.37283847 18.07655611 9.71584148 18.4375 11.0625 C18.86818104 12.54696455 19.29917849 14.03133733 19.73046875 15.515625 C19.94364746 16.27166016 20.15682617 17.02769531 20.37646484 17.80664062 C21.28197692 20.99188748 22.2630763 24.15163095 23.25 27.3125 C23.44513184 27.94075684 23.64026367 28.56901367 23.84130859 29.21630859 C26.34276158 37.20605262 29.02881602 45.13605952 31.70214844 53.06958008 C33.93886463 59.72827047 36.06289865 66.40589395 38.05517578 73.14208984 C40.43799144 80.34964544 44.17730158 87.19575316 51 91 C56.59278682 92.63669985 61.57774404 93.29770551 67.38452148 93.29052734 C68.18077942 93.29724457 68.97703735 93.30396179 69.79742432 93.31088257 C72.40537919 93.32973673 75.01307515 93.33377995 77.62109375 93.3359375 C79.44898074 93.34237278 81.27686671 93.34910167 83.10475159 93.35610962 C86.92671089 93.3680499 90.74858001 93.37179366 94.57055664 93.37060547 C99.45052629 93.37040215 104.32991449 93.39773275 109.20974636 93.43214989 C112.98202638 93.45446087 116.7541672 93.45844177 120.52650642 93.45738602 C122.32492138 93.45973455 124.1233406 93.46851563 125.92168999 93.48405075 C140.19242199 93.91339195 140.19242199 93.91339195 152.55931091 87.63168335 C153.73697553 86.45103288 154.87317382 85.22926492 156 84 C156.66 84 157.32 84 158 84 C159.43040111 79.71246122 160.85501882 75.42303656 162.27734375 71.1328125 C162.93750619 69.14494039 163.59796002 67.15716536 164.25854492 65.16943359 C164.7099328 63.81023831 165.16078223 62.45086409 165.61108398 61.09130859 C167.05846558 56.72219395 168.52030193 52.35830882 170 48 C170.30107666 47.11223877 170.60215332 46.22447754 170.91235352 45.30981445 C172.74662436 40.13052684 172.74662436 40.13052684 175.0625 38.9375 C179.40702543 39.02993671 183.69039517 39.45606929 188 40 C187.43436621 46.96228647 185.51924471 53.10157173 183.25 59.6875 C182.88801514 60.75242676 182.52603027 61.81735352 182.15307617 62.91455078 C179.61032731 70.34597965 177.05435794 77.76043187 174 85 C173.63777344 85.87269531 173.27554688 86.74539062 172.90234375 87.64453125 C169.22921711 95.75031241 163.26804951 104.18825137 155 108 C145.15190238 110.72480309 134.94439893 110.30968521 124.82421875 110.30078125 C122.96775722 110.30467752 121.11129657 110.30901407 119.25483704 110.31376648 C115.37762554 110.32119374 111.50050516 110.32096316 107.62329102 110.31567383 C102.69130674 110.3098875 97.75969903 110.32680719 92.82777691 110.3500185 C88.99697239 110.36485798 85.16625641 110.36561369 81.33542824 110.36250877 C79.51883004 110.36301699 77.70222621 110.36815905 75.88565636 110.37832069 C61.08384874 110.45096688 45.03099944 110.41707542 33.375 100 C26.34562372 92.39679708 23.45286507 82.78048614 20.67382812 73.04321289 C17.59011983 62.31561626 13.96585893 51.76848439 10.40185547 41.19335938 C7.95254269 33.91881074 5.52202494 26.63790984 3.1796875 19.328125 C2.57809814 17.46269043 2.57809814 17.46269043 1.96435547 15.55957031 C0.5686996 10.40801018 0.11087802 5.32214513 0 0 Z " fill="#5F9617" transform="translate(13,100)"/>
<path d="M0 0 C0.91845703 0.5259375 0.91845703 0.5259375 1.85546875 1.0625 C3.5625 2.1875 3.5625 2.1875 6 5 C5.68010393 11.85365792 4.09869418 18.32516552 2.41796875 24.95703125 C2.16251785 25.9812468 1.90706696 27.00546234 1.64387512 28.06071472 C1.10454653 30.21705438 0.56231688 32.37267032 0.01733398 34.52758789 C-0.80695298 37.79054204 -1.61997159 41.05615274 -2.43164062 44.32226562 C-7.4807544 64.5007812 -7.4807544 64.5007812 -11 74 C-13.64 74 -16.28 74 -19 74 C-23.10408012 59.36148383 -27.10619734 44.69589214 -31 30 C-31.26409668 29.00387695 -31.52819336 28.00775391 -31.80029297 26.98144531 C-32.52214863 24.23997418 -33.23236171 21.49581264 -33.9375 18.75 C-34.14890625 17.9470752 -34.3603125 17.14415039 -34.578125 16.31689453 C-36.61475299 8.26563302 -36.61475299 8.26563302 -36 4 C-26.97937515 -5.57290801 -10.72781426 -7.23116526 0 0 Z " fill="#FCFDFB" transform="translate(128,34)"/>
<path d="M0 0 C1.051875 0.309375 2.10375 0.61875 3.1875 0.9375 C8.51794432 2.42945829 8.51794432 2.42945829 13.9921875 3.0859375 C16 4 16 4 17.30859375 7.03515625 C17.70150079 8.37283847 18.07655611 9.71584148 18.4375 11.0625 C18.86818104 12.54696455 19.29917849 14.03133733 19.73046875 15.515625 C19.94364746 16.27166016 20.15682617 17.02769531 20.37646484 17.80664062 C21.28197692 20.99188748 22.2630763 24.15163095 23.25 27.3125 C23.44513184 27.94075684 23.64026367 28.56901367 23.84130859 29.21630859 C26.34276158 37.20605262 29.02881602 45.13605952 31.70214844 53.06958008 C33.93886463 59.72827047 36.06289865 66.40589395 38.05517578 73.14208984 C40.43799144 80.34964544 44.17730158 87.19575316 51 91 C56.63388047 92.65004356 61.6772559 93.30193818 67.52734375 93.31884766 C68.33805832 93.32889328 69.14877289 93.3389389 69.98405457 93.34928894 C72.63519653 93.37991557 75.28623849 93.39709841 77.9375 93.4140625 C79.78695524 93.4327907 81.63640209 93.45236533 83.48583984 93.4727478 C88.33216382 93.52390054 93.17851545 93.56361613 98.02496338 93.60089111 C102.97895046 93.64103688 107.93282418 93.69208081 112.88671875 93.7421875 C122.59106601 93.83874699 132.29547753 93.92321524 142 94 C142 94.66 142 95.32 142 96 C111.97 96.33 81.94 96.66 51 97 C51 97.66 51 98.32 51 99 C52.32 99.33 53.64 99.66 55 100 C53.02 100 51.04 100 49 100 C49 100.66 49 101.32 49 102 C48.01 102 47.02 102 46 102 C46 102.66 46 103.32 46 104 C46.99 104.495 46.99 104.495 48 105 C47.34 105 46.68 105 46 105 C45.67 105.66 45.34 106.32 45 107 C33.89199492 102.12806795 28.48095591 95.23274855 24 84 C22.77719278 80.38126351 21.72196883 76.71571981 20.67382812 73.04321289 C17.59011983 62.31561626 13.96585893 51.76848439 10.40185547 41.19335938 C7.95254269 33.91881074 5.52202494 26.63790984 3.1796875 19.328125 C2.57809814 17.46269043 2.57809814 17.46269043 1.96435547 15.55957031 C0.5686996 10.40801018 0.11087802 5.32214513 0 0 Z " fill="#6A9F23" transform="translate(13,100)"/>
<path d="M0 0 C1.67180274 0.94934513 3.33733936 1.90973313 5 2.875 C5.928125 3.40867188 6.85625 3.94234375 7.8125 4.4921875 C8.534375 4.98976563 9.25625 5.48734375 10 6 C10 6.66 10 7.32 10 8 C11.32 8.33 12.64 8.66 14 9 C14 9.66 14 10.32 14 11 C14.721875 11.268125 15.44375 11.53625 16.1875 11.8125 C19.88159255 13.37222796 23.00146753 14.99724541 25.84765625 17.85546875 C28.07518931 20.07491639 30.40431713 21.99405008 32.875 23.9375 C33.75542969 24.63875 34.63585937 25.34 35.54296875 26.0625 C36.93202078 27.1578415 38.32654255 28.24655797 39.73828125 29.3125 C47.22041261 35.12073135 52.58913033 42.54045481 54 52 C54.42230465 58.26076151 53.63396582 63.73561087 51.9375 69.75 C51.7206958 70.54768799 51.5038916 71.34537598 51.28051758 72.16723633 C48.57258348 81.8986686 45.30483206 91.45795997 42 101 C40.20793453 100.85915204 38.41635083 100.71216299 36.625 100.5625 C35.12839844 100.44068359 35.12839844 100.44068359 33.6015625 100.31640625 C31 100 31 100 29 99 C28.67 99.66 28.34 100.32 28 101 C27.01 100.01 27.01 100.01 26 99 C26.44653931 97.62279785 26.44653931 97.62279785 26.90209961 96.21777344 C28.00858633 92.80398232 29.11331924 89.38962578 30.2175293 85.97509766 C30.6952425 84.49870628 31.17342811 83.02246768 31.65209961 81.54638672 C32.3409315 79.42195192 33.02805017 77.29696949 33.71484375 75.171875 C33.92842026 74.51443298 34.14199677 73.85699097 34.36204529 73.17962646 C36.94880787 65.16154111 39.00738875 56.25729938 35.8125 48.0625 C33.83823644 44.72667536 31.89752808 42.57558051 29 40 C28.41089844 39.45472656 27.82179687 38.90945312 27.21484375 38.34765625 C23.25899621 34.75357608 19.18738217 31.698877 14.69921875 28.80859375 C10.46709139 25.97288468 6.39908654 22.91542934 2.31616211 19.87011719 C-0.39445251 17.85962332 -3.02587318 15.98504421 -5.953125 14.29296875 C-6.62859375 13.86628906 -7.3040625 13.43960938 -8 13 C-8 12.34 -8 11.68 -8 11 C-9.65 10.67 -11.3 10.34 -13 10 C-13.33 11.98 -13.66 13.96 -14 16 C-14.66 15.67 -15.32 15.34 -16 15 C-16 12.69 -16 10.38 -16 8 C-10.72 8 -5.44 8 0 8 C0 5.36 0 2.72 0 0 Z " fill="#93D23F" transform="translate(160,40)"/>
<path d="M0 0 C2.59375 1.53515625 2.59375 1.53515625 4.5 2.9375 C4.5 3.5975 4.5 4.2575 4.5 4.9375 C5.22960937 5.20691406 5.95921875 5.47632813 6.7109375 5.75390625 C9.42868564 6.90723634 11.6827105 8.22582513 14.125 9.875 C14.88039063 10.37902344 15.63578125 10.88304688 16.4140625 11.40234375 C18.31267934 12.79964041 19.8681663 14.24624378 21.5 15.9375 C23.15533995 17.28486973 24.82012773 18.62084336 26.5 19.9375 C22.54 19.9375 18.58 19.9375 14.5 19.9375 C14.5 19.2775 14.5 18.6175 14.5 17.9375 C13.84 17.9375 13.18 17.9375 12.5 17.9375 C12.5 18.5975 12.5 19.2575 12.5 19.9375 C11.84 19.6075 11.18 19.2775 10.5 18.9375 C10.09270772 16.61593403 9.75561323 14.2806213 9.5 11.9375 C6.53 12.4325 6.53 12.4325 3.5 12.9375 C2.73223525 17.0127634 2.38097966 20.84755447 2.40234375 24.9921875 C2.40556641 26.10078125 2.40878906 27.209375 2.41210938 28.3515625 C2.42048828 29.49367187 2.42886719 30.63578125 2.4375 31.8125 C2.44201172 32.9778125 2.44652344 34.143125 2.45117188 35.34375 C2.46291219 38.20838645 2.4793343 41.07291633 2.5 43.9375 C0.19 43.9375 -2.12 43.9375 -4.5 43.9375 C-3.93081284 38.01795357 -2.69217069 32.50508965 -1.12109375 26.76953125 C-0.50556161 23.96285953 -0.10923141 21.78725141 -0.5 18.9375 C-2.04110808 17.11188676 -2.04110808 17.11188676 -4.1875 15.75 C-4.87199219 15.26144531 -5.55648437 14.77289063 -6.26171875 14.26953125 C-13.16252533 10.16276852 -20.29732113 9.8688838 -28.10546875 11.47265625 C-32.67801999 12.87429256 -35.87566366 14.75247716 -39.5 17.9375 C-40.16 17.9375 -40.82 17.9375 -41.5 17.9375 C-41.29375 19.21625 -41.0875 20.495 -40.875 21.8125 C-40.5234375 23.9921875 -40.5234375 23.9921875 -40.5 25.9375 C-41.16 26.5975 -41.82 27.2575 -42.5 27.9375 C-42.5 24.6375 -42.5 21.3375 -42.5 17.9375 C-43.16 17.9375 -43.82 17.9375 -44.5 17.9375 C-44.768125 16.98875 -45.03625 16.04 -45.3125 15.0625 C-46.24986588 11.68482727 -46.24986588 11.68482727 -49.5 9.9375 C-49.17021073 7.06639344 -48.95873558 5.40068933 -46.890625 3.3125 C-30.94851301 -6.92768872 -16.58802526 -9.48881445 0 0 Z " fill="#A7E852" transform="translate(133.5,20.0625)"/>
<path d="M0 0 C1.63001953 0.15275391 1.63001953 0.15275391 3.29296875 0.30859375 C4.12441406 0.39238281 4.95585937 0.47617188 5.8125 0.5625 C5.24686621 7.52478647 3.33174471 13.66407173 1.0625 20.25 C0.51952271 21.84739014 0.51952271 21.84739014 -0.03442383 23.47705078 C-9.85269424 52.17189328 -9.85269424 52.17189328 -16.1875 59.5625 C-16.8475 59.5625 -17.5075 59.5625 -18.1875 59.5625 C-17.8575 57.9125 -17.5275 56.2625 -17.1875 54.5625 C-18.1775 53.9025 -19.1675 53.2425 -20.1875 52.5625 C-19.8575 50.2525 -19.5275 47.9425 -19.1875 45.5625 C-19.8475 45.2325 -20.5075 44.9025 -21.1875 44.5625 C-21.1875 46.5425 -21.1875 48.5225 -21.1875 50.5625 C-22.1775 50.2325 -23.1675 49.9025 -24.1875 49.5625 C-23.8575 48.2425 -23.5275 46.9225 -23.1875 45.5625 C-23.8475 45.5625 -24.5075 45.5625 -25.1875 45.5625 C-25.5175 46.5525 -25.8475 47.5425 -26.1875 48.5625 C-26.8475 48.2325 -27.5075 47.9025 -28.1875 47.5625 C-27.5275 46.5725 -26.8675 45.5825 -26.1875 44.5625 C-25.5275 44.5625 -24.8675 44.5625 -24.1875 44.5625 C-22.75709889 40.27496122 -21.33248118 35.98553656 -19.91015625 31.6953125 C-19.24999381 29.70744039 -18.58953998 27.71966536 -17.92895508 25.73193359 C-17.4775672 24.37273831 -17.02671777 23.01336409 -16.57641602 21.65380859 C-15.12903259 17.28468843 -13.66285467 12.92227722 -12.1875 8.5625 C-11.8972998 7.67401367 -11.60709961 6.78552734 -11.30810547 5.87011719 C-10.55859375 3.6796875 -10.55859375 3.6796875 -9.1875 0.5625 C-5.76060364 -0.57979879 -3.57647782 -0.34611076 0 0 Z " fill="#71AA26" transform="translate(195.1875,139.4375)"/>
<path d="M0 0 C1.67180274 0.94934513 3.33733936 1.90973313 5 2.875 C5.928125 3.40867188 6.85625 3.94234375 7.8125 4.4921875 C8.534375 4.98976563 9.25625 5.48734375 10 6 C10 6.66 10 7.32 10 8 C11.32 8.33 12.64 8.66 14 9 C14 9.66 14 10.32 14 11 C14.721875 11.268125 15.44375 11.53625 16.1875 11.8125 C19.88159255 13.37222796 23.00146753 14.99724541 25.84765625 17.85546875 C28.07518931 20.07491639 30.40431713 21.99405008 32.875 23.9375 C36.62892903 26.90843496 40.33827243 29.91643994 44 33 C43.690625 33.5775 43.38125 34.155 43.0625 34.75 C42.07416636 36.84294184 41.4831387 38.74535275 41 41 C39.865625 41.12375 38.73125 41.2475 37.5625 41.375 C36.386875 41.58125 35.21125 41.7875 34 42 C33.505 42.99 33.505 42.99 33 44 C31.9790625 42.948125 31.9790625 42.948125 30.9375 41.875 C25.92387944 36.88946695 20.66488805 32.68835846 14.734375 28.84375 C10.49731981 25.98676422 6.41227664 22.92519799 2.31640625 19.87036133 C-0.39426395 17.85973449 -3.02576761 15.98510523 -5.953125 14.29296875 C-6.62859375 13.86628906 -7.3040625 13.43960938 -8 13 C-8 12.34 -8 11.68 -8 11 C-9.65 10.67 -11.3 10.34 -13 10 C-13.33 11.98 -13.66 13.96 -14 16 C-14.66 15.67 -15.32 15.34 -16 15 C-16 12.69 -16 10.38 -16 8 C-10.72 8 -5.44 8 0 8 C0 5.36 0 2.72 0 0 Z " fill="#9DDE4A" transform="translate(160,40)"/>
<path d="M0 0 C1.051875 0.309375 2.10375 0.61875 3.1875 0.9375 C8.50716117 2.44623845 8.50716117 2.44623845 13.9765625 3.04296875 C16 4 16 4 17.44921875 7.421875 C17.87918947 8.85954801 18.29126665 10.30266534 18.6875 11.75 C19.00557617 12.82507813 19.00557617 12.82507813 19.33007812 13.921875 C21.10456919 20.01224182 22.21598416 24.67688237 21 31 C20.6316004 33.99631677 20.31359512 36.9974935 20 40 C20.66 40 21.32 40 22 40 C22 40.99 22 41.98 22 43 C21.34 43 20.68 43 20 43 C19.67 43.66 19.34 44.32 19 45 C17.515 45.495 17.515 45.495 16 46 C15.67 46.99 15.34 47.98 15 49 C14.34 49 13.68 49 13 49 C12.77860352 48.30551758 12.55720703 47.61103516 12.32910156 46.89550781 C11.30353753 43.68008176 10.2767738 40.46503994 9.25 37.25 C8.72792969 35.61224609 8.72792969 35.61224609 8.1953125 33.94140625 C7.84726562 32.85214844 7.49921875 31.76289063 7.140625 30.640625 C6.78967773 29.54073242 6.43873047 28.44083984 6.07714844 27.30761719 C5.01789862 24.05496159 3.90091984 20.82600444 2.78125 17.59375 C1.39092894 13.44196365 0.45957972 9.65117411 0.25 5.25 C0.19328125 4.24453125 0.1365625 3.2390625 0.078125 2.203125 C0.05234375 1.47609375 0.0265625 0.7490625 0 0 Z " fill="#7DB82F" transform="translate(13,100)"/>
<path d="M0 0 C0.66 0 1.32 0 2 0 C2 0.99 2 1.98 2 3 C2.99 3.33 3.98 3.66 5 4 C5.33 2.68 5.66 1.36 6 0 C6.66 0 7.32 0 8 0 C8 2.97 8 5.94 8 9 C43.64 8.505 43.64 8.505 80 8 C79.34 10.64 78.68 13.28 78 16 C53.58 16 29.16 16 4 16 C0 4 0 4 0 0 Z " fill="#6CA81E" transform="translate(72,152)"/>
<path d="M0 0 C1.6875 0.25 1.6875 0.25 4 1 C5.2375 1.350625 6.475 1.70125 7.75 2.0625 C8.8225 2.371875 9.895 2.68125 11 3 C9.02 3.99 9.02 3.99 7 5 C7 5.66 7 6.32 7 7 C8.32 6.34 9.64 5.68 11 5 C11.75 7.25 11.75 7.25 12 10 C10.69112542 11.35735142 9.35147138 12.68505488 8 14 C3.91444232 20.63903123 3.25937503 27.33546795 3 35 C-2.32365924 35.31941955 -5.35023724 34.53623423 -10 32 C-10.99 32 -11.98 32 -13 32 C-13.61001823 21.03661681 -12.59418967 13.97232847 -5.375 5.5625 C-3.6199989 3.66571933 -1.82731125 1.82731125 0 0 Z " fill="#96D643" transform="translate(25,69)"/>
<path d="M0 0 C2.31054512 3.46581768 3.53486498 7.03133036 4.875 10.9375 C5.13603516 11.69514648 5.39707031 12.45279297 5.66601562 13.23339844 C6.19363109 14.76633525 6.72000971 16.29969836 7.24511719 17.83349609 C7.91981657 19.76987459 8.63315717 21.69268897 9.3515625 23.61328125 C9.73054688 24.64839844 10.10953125 25.68351562 10.5 26.75 C11.01046875 28.10351562 11.01046875 28.10351562 11.53125 29.484375 C12.34057004 33.82772588 10.36210858 36.45683713 8 40 C7.67 39.67 7.34 39.34 7 39 C6.34 42.3 5.68 45.6 5 49 C3.35 49 1.7 49 0 49 C-1.2146138 45.50882976 -2.39158793 42.00604527 -3.5625 38.5 C-3.90474609 37.51773438 -4.24699219 36.53546875 -4.59960938 35.5234375 C-6.59100236 29.48891329 -7.35905378 25.23827963 -6 19 C-5.67 19.66 -5.34 20.32 -5 21 C-4.34 21 -3.68 21 -3 21 C-2.67 20.34 -2.34 19.68 -2 19 C-1.01 18.67 -0.02 18.34 1 18 C1 17.01 1 16.02 1 15 C0.34 15 -0.32 15 -1 15 C-1.02693575 12.87506859 -1.04636628 10.75004088 -1.0625 8.625 C-1.07410156 7.44164062 -1.08570313 6.25828125 -1.09765625 5.0390625 C-1 2 -1 2 0 0 Z " fill="#72AC26" transform="translate(34,125)"/>
<path d="M0 0 C1.9375 0.5 1.9375 0.5 4 2 C5.4496275 8.33186352 4.77500767 11.94735111 1.8125 17.625 C1.35520508 18.56859375 1.35520508 18.56859375 0.88867188 19.53125 C-1.11187719 23.57428836 -3.30778451 27.37693567 -6 31 C-6.66 31 -7.32 31 -8 31 C-7.67 29.35 -7.34 27.7 -7 26 C-7.99 25.34 -8.98 24.68 -10 24 C-9.67 21.69 -9.34 19.38 -9 17 C-9.66 16.67 -10.32 16.34 -11 16 C-11 17.98 -11 19.96 -11 22 C-11.99 21.67 -12.98 21.34 -14 21 C-13.67 19.68 -13.34 18.36 -13 17 C-13.66 17 -14.32 17 -15 17 C-15.33 17.99 -15.66 18.98 -16 20 C-16.66 19.67 -17.32 19.34 -18 19 C-17.01 17.515 -17.01 17.515 -16 16 C-15.34 16 -14.68 16 -14 16 C-13.5978125 14.6078125 -13.5978125 14.6078125 -13.1875 13.1875 C-12.07266384 10.19504504 -11.52317985 8.8438622 -9 7 C-8.38125 6.896875 -7.7625 6.79375 -7.125 6.6875 C-3.66045283 5.56661709 -2.18062632 2.8469288 0 0 Z " fill="#699F1F" transform="translate(185,168)"/>
<path d="M0 0 C1.08667969 0.02707031 2.17335937 0.05414063 3.29296875 0.08203125 C4.54013672 0.13423828 4.54013672 0.13423828 5.8125 0.1875 C6.4064348 7.76016875 4.24536286 14.06268733 1.8125 21.1875 C0.02043453 21.04665204 -1.77114917 20.89966299 -3.5625 20.75 C-4.56023437 20.66878906 -5.55796875 20.58757812 -6.5859375 20.50390625 C-9.1875 20.1875 -9.1875 20.1875 -11.1875 19.1875 C-11.5175 19.8475 -11.8475 20.5075 -12.1875 21.1875 C-12.8475 20.5275 -13.5075 19.8675 -14.1875 19.1875 C-13.42819694 16.57945905 -12.65571306 13.97663119 -11.875 11.375 C-11.66166016 10.63701172 -11.44832031 9.89902344 -11.22851562 9.13867188 C-10.90463867 8.07036133 -10.90463867 8.07036133 -10.57421875 6.98046875 C-10.38045654 6.3258667 -10.18669434 5.67126465 -9.98706055 4.99682617 C-7.8093929 0.0689804 -5.09968614 -0.164506 0 0 Z " fill="#8CC93C" transform="translate(200.1875,119.8125)"/>
<path d="M0 0 C1.65 0 3.3 0 5 0 C5.0984702 4.13574827 4.77403558 7.93631321 4 12 C9.32172403 16.38449733 14.96684512 20.315641 20.58203125 24.31054688 C21.36191406 24.86935547 22.14179688 25.42816406 22.9453125 26.00390625 C23.65187988 26.50736572 24.35844727 27.0108252 25.08642578 27.52954102 C26.88258081 28.90977089 28.44211105 30.35942638 30 32 C27.70890403 32.08075665 25.41700733 32.13907731 23.125 32.1875 C21.21074219 32.23970703 21.21074219 32.23970703 19.2578125 32.29296875 C17.64519531 32.14794922 17.64519531 32.14794922 16 32 C13.8480563 28.77208445 13.79913557 27.71599191 14 24 C11.36 24 8.72 24 6 24 C6 21.36 6 18.72 6 16 C3.36 16 0.72 16 -2 16 C-2.05423638 14.08364783 -2.09289963 12.16685075 -2.125 10.25 C-2.14820313 9.18265625 -2.17140625 8.1153125 -2.1953125 7.015625 C-2.00487687 4.07529894 -1.52670104 2.47638122 0 0 Z " fill="#9BD848" transform="translate(138,64)"/>
<path d="M0 0 C1.051875 0.309375 2.10375 0.61875 3.1875 0.9375 C6.13240494 1.75821121 9.00243864 2.4328938 12 3 C13.33542939 3.32483418 14.66961551 3.6550855 16 4 C17.70701221 9.89695128 15.95193635 14.41988817 14 20 C13.34 20 12.68 20 12 20 C12.33 17.36 12.66 14.72 13 12 C12.34 12 11.68 12 11 12 C10.87625 12.5775 10.7525 13.155 10.625 13.75 C9.99351176 16.02335767 9.11141809 17.9253529 8 20 C7.34 19.34 6.68 18.68 6 18 C6 18.99 6 19.98 6 21 C5.34 21 4.68 21 4 21 C1.20919651 14.04931961 0.36580804 7.45491562 0 0 Z " fill="#84C136" transform="translate(13,100)"/>
<path d="M0 0 C1.63001953 0.15275391 1.63001953 0.15275391 3.29296875 0.30859375 C4.12441406 0.39238281 4.95585937 0.47617188 5.8125 0.5625 C5.8125 1.8825 5.8125 3.2025 5.8125 4.5625 C4.8225 4.8925 3.8325 5.2225 2.8125 5.5625 C2.1525 6.2225 1.4925 6.8825 0.8125 7.5625 C0.4825 7.2325 0.1525 6.9025 -0.1875 6.5625 C-0.455625 7.18125 -0.72375 7.8 -1 8.4375 C-2.1875 10.5625 -2.1875 10.5625 -5.1875 12.5625 C-5.1875 11.5725 -5.1875 10.5825 -5.1875 9.5625 C-5.5175 10.5525 -5.8475 11.5425 -6.1875 12.5625 C-6.8475 12.5625 -7.5075 12.5625 -8.1875 12.5625 C-8.1875 11.5725 -8.1875 10.5825 -8.1875 9.5625 C-9.1775 10.2225 -10.1675 10.8825 -11.1875 11.5625 C-12.29753253 8.2324024 -12.1218162 7.58406559 -10.9375 4.4375 C-10.68484375 3.73367187 -10.4321875 3.02984375 -10.171875 2.3046875 C-7.99403273 -1.54974763 -3.79825821 -0.36757338 0 0 Z " fill="#77B22B" transform="translate(195.1875,139.4375)"/>
<path d="M0 0 C1.73444522 2.60166784 2.45325329 4.10925318 3.25390625 7.01953125 C3.46853516 7.79490234 3.68316406 8.57027344 3.90429688 9.36914062 C4.12150391 10.17544922 4.33871094 10.98175781 4.5625 11.8125 C4.89411133 13.00456055 4.89411133 13.00456055 5.23242188 14.22070312 C6.39338767 18.4612096 7.37516214 22.64017625 8 27 C4.04 27.495 4.04 27.495 0 28 C0 18.66666667 0 9.33333333 0 0 Z " fill="#9ED94D" transform="translate(96,61)"/>
<path d="M0 0 C1.98 0 3.96 0 6 0 C6.95876344 3.72852449 6.82941846 6.26761694 6 10 C6.33 10.33 6.66 10.66 7 11 C7.07258946 13.18639453 7.08373783 15.37500389 7.0625 17.5625 C7.05347656 18.76003906 7.04445313 19.95757812 7.03515625 21.19140625 C7.02355469 22.11824219 7.01195313 23.04507813 7 24 C4.36 24 1.72 24 -1 24 C-0.319375 23.505 0.36125 23.01 1.0625 22.5 C3.4067217 20.02435332 3.4067217 20.02435332 2.875 16.1875 C2.38759689 13.4841714 1.70103965 10.96243174 0.9375 8.3125 C0.09167854 5.32393084 -0.18626236 3.07332893 0 0 Z " fill="#9CDC4A" transform="translate(81,56)"/>
<path d="M0 0 C0.33 0 0.66 0 1 0 C1 8.25 1 16.5 1 25 C-1.31 25 -3.62 25 -6 25 C-5.45018084 18.95198929 -4.09570426 13.69398894 -2 8 C-1.34 8 -0.68 8 0 8 C0 5.36 0 2.72 0 0 Z " fill="#9FE149" transform="translate(135,39)"/>
<path d="M0 0 C1.65 0.33 3.3 0.66 5 1 C6.11165232 5.4378561 6.11527763 9.76956386 6.0625 14.3125 C6.05798828 15.05306641 6.05347656 15.79363281 6.04882812 16.55664062 C6.03712175 18.37112899 6.01918898 20.18557534 6 22 C3.18808439 19.18808439 2.46483897 15.83480922 1.3125 12.125 C1.07466797 11.40441406 0.83683594 10.68382812 0.59179688 9.94140625 C-0.58394389 6.19696498 -1.1851875 3.74176921 0 0 Z " fill="#78B22B" transform="translate(66,130)"/>
<path d="M0 0 C2.31 0.33 4.62 0.66 7 1 C6.47606294 6.86809507 5.23891142 11.54873741 3 17 C2.67 16.01 2.34 15.02 2 14 C1.34 14 0.68 14 0 14 C0 9.38 0 4.76 0 0 Z " fill="#79B42C" transform="translate(152,135)"/>
<path d="M0 0 C2.4375 0.375 2.4375 0.375 5 1 C6.2719539 3.5439078 6.00107536 5.05458682 5.75 7.875 C5.68296875 8.73867187 5.6159375 9.60234375 5.546875 10.4921875 C4.92927398 13.32432932 3.87939995 14.82757533 2 17 C1.27361271 14.92289254 0.56946592 12.83799688 -0.125 10.75 C-0.51945312 9.58984375 -0.91390625 8.4296875 -1.3203125 7.234375 C-2 4 -2 4 -1.1171875 1.578125 C-0.74851563 1.05734375 -0.37984375 0.5365625 0 0 Z " fill="#91CF41" transform="translate(58,103)"/>
<path d="M0 0 C0.33 0 0.66 0 1 0 C1 7.92 1 15.84 1 24 C0.01 23.67 -0.98 23.34 -2 23 C-2 22.01 -2 21.02 -2 20 C-2.99 20.33 -3.98 20.66 -5 21 C-4.35610937 18.0620618 -3.70997221 15.124649 -3.0625 12.1875 C-2.78889648 10.93743164 -2.78889648 10.93743164 -2.50976562 9.66210938 C-2.33251953 8.85966797 -2.15527344 8.05722656 -1.97265625 7.23046875 C-1.81031494 6.49207764 -1.64797363 5.75368652 -1.48071289 4.99291992 C-1 3 -1 3 0 0 Z " fill="#94D637" transform="translate(126,72)"/>
<path d="M0 0 C0.5775 0.20625 1.155 0.4125 1.75 0.625 C-0.23 1.615 -2.21 2.605 -4.25 3.625 C-3.92 4.615 -3.59 5.605 -3.25 6.625 C-5.66760876 6.51073491 -8.08347218 6.38400339 -10.5 6.25 C-11.18191406 6.2190625 -11.86382812 6.188125 -12.56640625 6.15625 C-16.23739038 5.94240626 -19.11251616 5.61422945 -22.25 3.625 C-21.59 3.625 -20.93 3.625 -20.25 3.625 C-19.92 2.635 -19.59 1.645 -19.25 0.625 C-18.6828125 0.78613281 -18.115625 0.94726562 -17.53125 1.11328125 C-15.20465821 1.63517085 -13.131395 1.79211134 -10.75 1.8125 C-9.62078125 1.83376953 -9.62078125 1.83376953 -8.46875 1.85546875 C-5.18882979 1.51477281 -3.27946 -0.54657667 0 0 Z " fill="#A5E945" transform="translate(126.25,23.375)"/>
<path d="M0 0 C1.9375 0.3125 1.9375 0.3125 4 1 C4.33 1.99 4.66 2.98 5 4 C5.66 4.33 6.32 4.66 7 5 C6.67 5.66 6.34 6.32 6 7 C7.98 7.66 9.96 8.32 12 9 C12.12375 10.423125 12.12375 10.423125 12.25 11.875 C12.65074923 15.10461791 12.65074923 15.10461791 15.0625 16.375 C16.0215625 16.684375 16.0215625 16.684375 17 17 C15.68 17.33 14.36 17.66 13 18 C10.8480563 14.77208445 10.79913557 13.71599191 11 10 C8.36 10 5.72 10 3 10 C3 7.36 3 4.72 3 2 C2.01 2 1.02 2 0 2 C0 1.34 0 0.68 0 0 Z " fill="#94D740" transform="translate(141,78)"/>
<path d="M0 0 C0.99 0.33 1.98 0.66 3 1 C3 3 3 5 3 7 C0.36 7 -2.28 7 -5 7 C-5 7.66 -5 8.32 -5 9 C-6.98 9 -8.96 9 -11 9 C-8.65839543 6.47106706 -6.17847268 4.26645809 -3.4375 2.1875 C-2.85871094 1.74792969 -2.27992187 1.30835937 -1.68359375 0.85546875 C-1.12800781 0.57316406 -0.57242188 0.29085937 0 0 Z " fill="#9FDA53" transform="translate(77,81)"/>
<path d="M0 0 C0.66 0.33 1.32 0.66 2 1 C2.4140625 3.28515625 2.4140625 3.28515625 2.625 6.0625 C2.69976562 6.98160156 2.77453125 7.90070313 2.8515625 8.84765625 C2.90054688 9.55792969 2.94953125 10.26820312 3 11 C1.35 11.33 -0.3 11.66 -2 12 C-2 8.7 -2 5.4 -2 2 C-1.34 2 -0.68 2 0 2 C0 1.34 0 0.68 0 0 Z " fill="#96D744" transform="translate(98,77)"/>
<path d="M0 0 C0.99 0.33 1.98 0.66 3 1 C2.67 5.62 2.34 10.24 2 15 C1.01 15.33 0.02 15.66 -1 16 C-1.02701408 13.89590361 -1.04640223 11.79170822 -1.0625 9.6875 C-1.07410156 8.51574219 -1.08570313 7.34398438 -1.09765625 6.13671875 C-1 3 -1 3 0 0 Z " fill="#9CD652" transform="translate(13,85)"/>
<path d="M0 0 C0.33 0 0.66 0 1 0 C1.33 2.31 1.66 4.62 2 7 C4.01822917 6.90234375 6.03645833 6.8046875 8.0546875 6.70703125 C8.69664063 6.80371094 9.33859375 6.90039062 10 7 C10.99 8.485 10.99 8.485 12 10 C11.01 10.495 11.01 10.495 10 11 C10 10.34 10 9.68 10 9 C8.02 9.66 6.04 10.32 4 11 C4 10.34 4 9.68 4 9 C2.35 9.66 0.7 10.32 -1 11 C-0.67 7.37 -0.34 3.74 0 0 Z " fill="#97D04A" transform="translate(107,101)"/>
<path d="M0 0 C0.33 0 0.66 0 1 0 C0.67 5.94 0.34 11.88 0 18 C-0.66 18 -1.32 18 -2 18 C-1.67 15.36 -1.34 12.72 -1 10 C-1.99 10 -2.98 10 -4 10 C-4 8.02 -4 6.04 -4 4 C-2.68 4.33 -1.36 4.66 0 5 C0 3.35 0 1.7 0 0 Z " fill="#93D13B" transform="translate(28,86)"/>
<path d="M0 0 C0.66 0 1.32 0 2 0 C2.67031719 1.9570868 3.33614683 3.91571113 4 5.875 C4.556875 7.51082031 4.556875 7.51082031 5.125 9.1796875 C6 12 6 12 6 14 C5.34 14 4.68 14 4 14 C4 13.34 4 12.68 4 12 C3.34 12 2.68 12 2 12 C2 10.68 2 9.36 2 8 C1.34 8 0.68 8 0 8 C0 5.36 0 2.72 0 0 Z " fill="#7EB431" transform="translate(35,130)"/>
<path d="M0 0 C0.33 0.66 0.66 1.32 1 2 C1.66 2 2.32 2 3 2 C2.34 5.63 1.68 9.26 1 13 C-1.60598877 9.09101684 -1.70354328 6.66919342 -2 2 C-1.34 1.34 -0.68 0.68 0 0 Z " fill="#F5FBEB" transform="translate(123,70)"/>
<path d="M0 0 C1.27351308 2.54702616 0.80191925 3.4282945 0.0625 6.125 C-0.13214844 6.84945312 -0.32679688 7.57390625 -0.52734375 8.3203125 C-0.76130859 9.15175781 -0.76130859 9.15175781 -1 10 C-1.99 9.67 -2.98 9.34 -4 9 C-3.67 7.68 -3.34 6.36 -3 5 C-3.66 5 -4.32 5 -5 5 C-5.33 5.99 -5.66 6.98 -6 8 C-6.66 7.67 -7.32 7.34 -8 7 C-7.34 6.01 -6.68 5.02 -6 4 C-5.34 4 -4.68 4 -4 4 C-3.67 3.01 -3.34 2.02 -3 1 C-2.01 0.67 -1.02 0.34 0 0 Z " fill="#689F27" transform="translate(175,180)"/>
<path d="M0 0 C1.32 0.33 2.64 0.66 4 1 C4 1.99 4 2.98 4 4 C3.34 4 2.68 4 2 4 C2 4.99 2 5.98 2 7 C4.31 7 6.62 7 9 7 C9 7.66 9 8.32 9 9 C6.69 8.67 4.38 8.34 2 8 C2 8.66 2 9.32 2 10 C1.34 9.67 0.68 9.34 0 9 C0 6.03 0 3.06 0 0 Z " fill="#9FE44A" transform="translate(144,30)"/>
<path d="M0 0 C0.33 0 0.66 0 1 0 C1 2.64 1 5.28 1 8 C1.66 8 2.32 8 3 8 C2.67 9.98 2.34 11.96 2 14 C1.67 13.34 1.34 12.68 1 12 C0.34 12 -0.32 12 -1 12 C-1.33 12.66 -1.66 13.32 -2 14 C-3.25127906 10.45332822 -2.72285053 8.27746562 -1.5625 4.75 C-1.27503906 3.85796875 -0.98757812 2.9659375 -0.69140625 2.046875 C-0.46324219 1.37140625 -0.23507813 0.6959375 0 0 Z " fill="#F2F9EA" transform="translate(205,128)"/>
<path d="M0 0 C0.33 1.32 0.66 2.64 1 4 C0.01 4.495 0.01 4.495 -1 5 C-0.34 6.65 0.32 8.3 1 10 C0.34 10 -0.32 10 -1 10 C-1.33 10.99 -1.66 11.98 -2 13 C-2.99 12.67 -3.98 12.34 -5 12 C-4.54738642 10.56068883 -4.08767021 9.12361001 -3.625 7.6875 C-3.24214844 6.48673828 -3.24214844 6.48673828 -2.8515625 5.26171875 C-2 3 -2 3 0 0 Z " fill="#ECF4E2" transform="translate(189,179)"/>
<path d="M0 0 C0.33 2.31 0.66 4.62 1 7 C0.01 6.67 -0.98 6.34 -2 6 C-2.845625 6.185625 -3.69125 6.37125 -4.5625 6.5625 C-5.366875 6.706875 -6.17125 6.85125 -7 7 C-7.66 6.34 -8.32 5.68 -9 5 C-7.87926138 4.16094435 -6.75325453 3.32892169 -5.625 2.5 C-4.99851562 2.0359375 -4.37203125 1.571875 -3.7265625 1.09375 C-2 0 -2 0 0 0 Z " fill="#F3FAE9" transform="translate(79,49)"/>
<path d="M0 0 C0.66 0 1.32 0 2 0 C2.33 0.66 2.66 1.32 3 2 C4.32 1.67 5.64 1.34 7 1 C7.33 2.65 7.66 4.3 8 6 C3.91281305 6.24042276 0.82320557 5.42258812 -3 4 C-2.67 3.34 -2.34 2.68 -2 2 C-1.34 2 -0.68 2 0 2 C0 1.34 0 0.68 0 0 Z " fill="#9BD74B" transform="translate(64,90)"/>
<path d="M0 0 C1.32 0.66 2.64 1.32 4 2 C2.68 2 1.36 2 0 2 C0 3.32 0 4.64 0 6 C-0.66 6 -1.32 6 -2 6 C-2.66 7.32 -3.32 8.64 -4 10 C-4.33 8.02 -4.66 6.04 -5 4 C-3.35 2.68 -1.7 1.36 0 0 Z " fill="#9FD755" transform="translate(59,94)"/>
<path d="M0 0 C0.33 0 0.66 0 1 0 C1 4.29 1 8.58 1 13 C0.01 13 -0.98 13 -2 13 C-3.45047396 10.09905209 -2.45356803 8.44027404 -1.5625 5.375 C-1.27503906 4.37210937 -0.98757812 3.36921875 -0.69140625 2.3359375 C-0.46324219 1.56507812 -0.23507813 0.79421875 0 0 Z " fill="#9DD74B" transform="translate(126,72)"/>
<path d="M0 0 C3.75563429 2.20919664 7.38776679 4.56384272 11 7 C9.02 7.99 9.02 7.99 7 9 C7 8.34 7 7.68 7 7 C5.02 6.34 3.04 5.68 1 5 C0.67 3.35 0.34 1.7 0 0 Z " fill="#9DD64F" transform="translate(146,80)"/>
<path d="M0 0 C0.66 0 1.32 0 2 0 C1.57811541 1.8161982 1.13700835 3.62794073 0.6875 5.4375 C0.44386719 6.44683594 0.20023438 7.45617187 -0.05078125 8.49609375 C-0.36402344 9.32238281 -0.67726562 10.14867187 -1 11 C-1.99 11.33 -2.98 11.66 -4 12 C-4.66 11.01 -5.32 10.02 -6 9 C-5.67 8.01 -5.34 7.02 -5 6 C-4.67 6.66 -4.34 7.32 -4 8 C-1.53721199 5.53721199 -1.00228745 3.29323018 0 0 Z " fill="#7AAC37" transform="translate(198,146)"/>
<path d="M0 0 C0.33 1.32 0.66 2.64 1 4 C1.66 4 2.32 4 3 4 C4.125 9.75 4.125 9.75 3 12 C2.01 12 1.02 12 0 12 C0 8.04 0 4.08 0 0 Z " fill="#96D742" transform="translate(136,68)"/>
<path d="M0 0 C-0.25 2.375 -0.25 2.375 -1 5 C-3.0625 6.3125 -3.0625 6.3125 -5 7 C-5.99 6.01 -6.98 5.02 -8 4 C-2.25 0 -2.25 0 0 0 Z " fill="#A8E959" transform="translate(80,30)"/>
<path d="M0 0 C0 1.32 0 2.64 0 4 C-2.31 4.33 -4.62 4.66 -7 5 C-7 3.68 -7 2.36 -7 1 C-4.53721199 -0.231394 -2.7204945 -0.07159196 0 0 Z " fill="#689C24" transform="translate(168,204)"/>
<path d="M0 0 C3 0 3 0 6 2 C5.67 3.98 5.34 5.96 5 8 C4.34 7.01 3.68 6.02 3 5 C2.34 5.99 1.68 6.98 1 8 C-0.35439668 5.29120665 -0.06501451 2.99066732 0 0 Z " fill="#94CF4B" transform="translate(161,112)"/>
<path d="M0 0 C0.66 0.33 1.32 0.66 2 1 C1.65120368 4.25543229 0.97866739 5.01873107 -1.5625 7.25 C-2.7690625 8.11625 -2.7690625 8.11625 -4 9 C-4.66 7.68 -5.32 6.36 -6 5 C-4.02 3.35 -2.04 1.7 0 0 Z " fill="#AAE05B" transform="translate(54,47)"/>
<path d="M0 0 C1.98 0 3.96 0 6 0 C2.88983545 3.28788824 -0.01618925 5.83735988 -4 8 C-3.625 6.0625 -3.625 6.0625 -3 4 C-2.34 3.67 -1.68 3.34 -1 3 C-0.67 2.01 -0.34 1.02 0 0 Z " fill="#F4FBEF" transform="translate(47,48)"/>
<path d="M0 0 C1.46726798 3.81489674 0.43336419 6.29011622 -1 10 C-1.33 9.01 -1.66 8.02 -2 7 C-2.66 7 -3.32 7 -4 7 C-3.67 5.02 -3.34 3.04 -3 1 C-2.34 1.33 -1.68 1.66 -1 2 C-0.67 1.34 -0.34 0.68 0 0 Z " fill="#74AD1D" transform="translate(156,142)"/>
<path d="M0 0 C3.00617269 3.00617269 2.59585316 5.82381598 3 10 C2.01 10.495 2.01 10.495 1 11 C0.63890458 9.35567294 0.28629924 7.7094792 -0.0625 6.0625 C-0.25972656 5.14597656 -0.45695312 4.22945312 -0.66015625 3.28515625 C-0.77230469 2.53105469 -0.88445312 1.77695313 -1 1 C-0.67 0.67 -0.34 0.34 0 0 Z " fill="#7EB236" transform="translate(66,130)"/>
<path d="M0 0 C0.99 0.33 1.98 0.66 3 1 C3 3 3 5 3 7 C2.01 7 1.02 7 0 7 C-0.66 6.34 -1.32 5.68 -2 5 C-2 2 -2 2 0 0 Z " fill="#9AD847" transform="translate(77,81)"/>
<path d="M0 0 C0.33 0 0.66 0 1 0 C1.49230769 6.4 1.49230769 6.4 -1 9.4375 C-1.99 10.2109375 -1.99 10.2109375 -3 11 C-3.625 8.6875 -3.625 8.6875 -4 6 C-3.34 5.01 -2.68 4.02 -2 3 C-2 3.99 -2 4.98 -2 6 C-1.34 6 -0.68 6 0 6 C0 4.02 0 2.04 0 0 Z " fill="#6AA314" transform="translate(39,168)"/>
<path d="M0 0 C2 1 2 1 3.25 3.8125 C4 7 4 7 3.125 9.375 C2.75375 9.91125 2.3825 10.4475 2 11 C2 9.02 2 7.04 2 5 C1.34 5 0.68 5 0 5 C-0.33 5.66 -0.66 6.32 -1 7 C-1.04254356 5.00045254 -1.04080783 2.99958364 -1 1 C-0.67 0.67 -0.34 0.34 0 0 Z " fill="#9ED84D" transform="translate(209,81)"/>
<path d="M0 0 C2 1 2 1 3 3 C2.34 3 1.68 3 1 3 C1.309375 4.918125 1.309375 4.918125 1.625 6.875 C1.9765625 9.0546875 1.9765625 9.0546875 2 11 C1.34 11.66 0.68 12.32 0 13 C0 9.7 0 6.4 0 3 C-0.66 3 -1.32 3 -2 3 C-2 2.34 -2 1.68 -2 1 C-1.34 0.67 -0.68 0.34 0 0 Z " fill="#AEE764" transform="translate(91,35)"/>
<path d="M0 0 C1.32 0.66 2.64 1.32 4 2 C3.01 2 2.02 2 1 2 C1 2.66 1 3.32 1 4 C0.34 4 -0.32 4 -1 4 C-1 4.99 -1 5.98 -1 7 C-1.99 7 -2.98 7 -4 7 C-3.6875 5.0625 -3.6875 5.0625 -3 3 C-2.01 2.67 -1.02 2.34 0 2 C0 1.34 0 0.68 0 0 Z " fill="#AFEC59" transform="translate(124,16)"/>
<path d="M0 0 C2.97 0.495 2.97 0.495 6 1 C6 1.99 6 2.98 6 4 C3.29120665 5.35439668 0.99066732 5.06501451 -2 5 C-1.34 3.35 -0.68 1.7 0 0 Z " fill="#6EA12E" transform="translate(66,192)"/>
<path d="M0 0 C2.14418558 3.21627837 2.67582137 5.19090105 3 9 C2.34 9.66 1.68 10.32 1 11 C-1.42857143 3.57142857 -1.42857143 3.57142857 0 0 Z " fill="#F3F9E8" transform="translate(66,138)"/>
<path d="M0 0 C0.99 0 1.98 0 3 0 C3.33 2.64 3.66 5.28 4 8 C3.34 7.67 2.68 7.34 2 7 C2 6.01 2 5.02 2 4 C1.01 4.33 0.02 4.66 -1 5 C-0.67 3.35 -0.34 1.7 0 0 Z " fill="#95D24A" transform="translate(122,88)"/>
<path d="M0 0 C0.66 0.99 1.32 1.98 2 3 C1.06810009 6.10633303 -0.19193628 8.28790442 -2 11 C-1.85957123 9.35369672 -1.71250671 7.70795821 -1.5625 6.0625 C-1.48128906 5.14597656 -1.40007813 4.22945312 -1.31640625 3.28515625 C-1 1 -1 1 0 0 Z " fill="#77AD32" transform="translate(44,154)"/>
<path d="M0 0 C3.55780196 0.60990891 6.6828589 1.5783681 10 3 C9.01 3.99 8.02 4.98 7 6 C5.83054208 5.19152271 4.66449539 4.37810888 3.5 3.5625 C2.8503125 3.11003906 2.200625 2.65757813 1.53125 2.19140625 C1.0259375 1.79824219 0.520625 1.40507813 0 1 C0 0.67 0 0.34 0 0 Z " fill="#F0FAE9" transform="translate(158,88)"/>
<path d="M0 0 C0 1.65 0 3.3 0 5 C-1.98 5.99 -1.98 5.99 -4 7 C-3.625 4.0625 -3.625 4.0625 -3 1 C-1 0 -1 0 0 0 Z " fill="#6BA41C" transform="translate(180,167)"/>
<path d="M0 0 C1.2077558 3.62326739 0.54311128 4.64146369 -1 8 C-1.66 7.67 -2.32 7.34 -3 7 C-3.1875 4.625 -3.1875 4.625 -3 2 C-2.01 1.34 -1.02 0.68 0 0 Z " fill="#9BD249" transform="translate(171,98)"/>
<path d="M0 0 C0.99 0 1.98 0 3 0 C2.25 5.75 2.25 5.75 0 8 C-0.79953138 4.71303767 -1.09658936 3.28976808 0 0 Z " fill="#A2D956" transform="translate(29,82)"/>
<path d="M0 0 C1.61949011 2.57213134 2.04408751 3.67669159 1.625 6.75 C1.41875 7.4925 1.2125 8.235 1 9 C-0.32 8.34 -1.64 7.68 -3 7 C-2.01 4.69 -1.02 2.38 0 0 Z " fill="#EAF7D9" transform="translate(83,68)"/>
<path d="M0 0 C0.66 0 1.32 0 2 0 C1.67 1.65 1.34 3.3 1 5 C0.01 4.67 -0.98 4.34 -2 4 C-2.33 4.99 -2.66 5.98 -3 7 C-3.66 6.67 -4.32 6.34 -5 6 C-4.34 5.01 -3.68 4.02 -3 3 C-2.34 3 -1.68 3 -1 3 C-0.67 2.01 -0.34 1.02 0 0 Z " fill="#75A52F" transform="translate(172,181)"/>
<path d="M0 0 C0.66 0 1.32 0 2 0 C5.07692308 5.29230769 5.07692308 5.29230769 4.6875 8.875 C4.460625 9.57625 4.23375 10.2775 4 11 C2.03698408 7.49461443 1.04097612 3.86648272 0 0 Z " fill="#EBF6DC" transform="translate(40,141)"/>
<path d="M0 0 C2.32101984 3.48152976 2.69903201 5.86169011 3 10 C2.34 10.66 1.68 11.32 1 12 C0.45533613 7.915021 0 4.1274515 0 0 Z " fill="#A5D85F" transform="translate(104,90)"/>
<path d="M0 0 C2.31 0.66 4.62 1.32 7 2 C5.68 2.99 4.36 3.98 3 5 C3 4.34 3 3.68 3 3 C2.34 3 1.68 3 1 3 C0.34 3.66 -0.32 4.32 -1 5 C-0.67 3.35 -0.34 1.7 0 0 Z " fill="#A5E353" transform="translate(65,51)"/>
<path d="M0 0 C2.45823172 3.68734758 3.01242616 6.69699971 4 11 C3.34 11 2.68 11 2 11 C2 10.34 2 9.68 2 9 C1.34 9 0.68 9 0 9 C0 6.03 0 3.06 0 0 Z " fill="#E8F6D6" transform="translate(17,121)"/>
<path d="M0 0 C0.33 0 0.66 0 1 0 C1.33 2.31 1.66 4.62 2 7 C1.34 7 0.68 7 0 7 C-0.33 7.66 -0.66 8.32 -1 9 C-2.25541557 5.23375329 -1.37061958 3.62811066 0 0 Z " fill="#EBF6D9" transform="translate(170,103)"/>
<path d="M0 0 C0.33 0 0.66 0 1 0 C1.36923077 7.50769231 1.36923077 7.50769231 -0.5 10 C-0.995 10.33 -1.49 10.66 -2 11 C-2.24042276 6.91281305 -1.42258812 3.82320557 0 0 Z " fill="#91D337" transform="translate(106,100)"/>
<path d="M0 0 C1.80411967 2.75924185 2.0127245 3.88972103 1.625 7.25 C1.41875 8.1575 1.2125 9.065 1 10 C0.34 10 -0.32 10 -1 10 C-1.125 3.375 -1.125 3.375 0 0 Z " fill="#9ADE3C" transform="translate(86,56)"/>
<path d="M0 0 C0.99 0.33 1.98 0.66 3 1 C2.67 1.66 2.34 2.32 2 3 C1.34 3 0.68 3 0 3 C-0.33 3.66 -0.66 4.32 -1 5 C-2.32 4.34 -3.64 3.68 -5 3 C-2.6875 1.4375 -2.6875 1.4375 0 0 Z " fill="#EAF9DE" transform="translate(101,32)"/>
</svg>
