<?xml version="1.0" encoding="UTF-8"?>
<svg version="1.1" xmlns="http://www.w3.org/2000/svg" width="225" height="225">
<path d="M0 0 C74.25 0 148.5 0 225 0 C225 74.25 225 148.5 225 225 C150.75 225 76.5 225 0 225 C0 150.75 0 76.5 0 0 Z " fill="#FEFEFE" transform="translate(0,0)"/>
<path d="M0 0 C1.68876648 1.77047729 1.68876648 1.77047729 3.19799805 4.10498047 C4.0586512 5.41171219 4.0586512 5.41171219 4.93669128 6.74484253 C5.53895035 7.69271637 6.14120941 8.64059021 6.76171875 9.6171875 C7.70951958 11.06933151 7.70951958 11.06933151 8.6764679 12.55081177 C10.69452736 15.64980904 12.6911469 18.76198566 14.6875 21.875 C16.04352631 23.96574955 17.4009321 26.05560509 18.75976562 28.14453125 C21.75009542 32.74667346 24.72691776 37.35722824 27.69218445 41.97555542 C28.78025746 43.6598476 29.88772679 45.33159018 31 47 C35.15606686 46.38249714 38.3423763 44.98058632 42.05859375 43.04296875 C42.63609375 42.74370987 43.21359375 42.44445099 43.80859375 42.13612366 C45.68828754 41.15960617 47.56294774 40.17384623 49.4375 39.1875 C50.73754602 38.50912272 52.03775915 37.83106558 53.33813477 37.15332031 C63.16450009 32.01891366 72.91398057 26.74702541 82.62109375 21.390625 C92.55921467 15.95208855 92.55921467 15.95208855 95.875 16.3125 C96.57625 16.539375 97.2775 16.76625 98 17 C96.56947079 25.30328913 93.27388068 33.46423585 89.6875 41.0625 C84.63748015 51.82952345 80.78793961 63.17045001 76.65795898 74.31445312 C75.70468244 76.87547529 74.73809354 79.43125782 73.76513672 81.98486328 C73.22556727 83.40592461 72.69122249 84.82897509 72.16064453 86.25341797 C71.29179531 88.572126 70.39858724 90.88017585 69.5 93.1875 C69.10929321 94.24855957 69.10929321 94.24855957 68.71069336 95.33105469 C68.44522705 95.99911133 68.17976074 96.66716797 67.90625 97.35546875 C67.68259766 97.93965576 67.45894531 98.52384277 67.22851562 99.12573242 C64.48596156 103.30987144 62.00573999 105.52610837 57.14486694 106.67457581 C53.50348549 107.17548183 49.8798196 107.51165291 46.21484375 107.79296875 C44.8346128 107.91126919 43.45439972 108.02977835 42.07420349 108.14848328 C27.28767518 109.3511831 12.50069797 109.41837418 -2.32476807 109.3225708 C-5.15708601 109.30906994 -7.98924888 109.3144296 -10.8215847 109.3194294 C-24.08324395 109.33715658 -37.30887457 109.18108434 -50.53515625 108.10546875 C-51.9638932 107.98961174 -51.9638932 107.98961174 -53.42149353 107.87141418 C-66.84679533 106.62670589 -66.84679533 106.62670589 -71.33837891 103.23339844 C-73.24761434 100.66717954 -74.40176414 98.23817089 -75.5859375 95.265625 C-76.04226562 94.13253906 -76.49859375 92.99945313 -76.96875 91.83203125 C-77.4328125 90.64996094 -77.896875 89.46789062 -78.375 88.25 C-79.05949219 86.54650391 -79.05949219 86.54650391 -79.7578125 84.80859375 C-82.47884695 77.99836426 -85.08056765 71.14768583 -87.64002991 64.27574158 C-89.58189703 59.07694516 -91.58545649 53.90410404 -93.61328125 48.73828125 C-93.91689575 47.96376617 -94.22051025 47.1892511 -94.5333252 46.39126587 C-95.77724921 43.21955616 -97.02216776 40.04825933 -98.27270508 36.87915039 C-99.2024667 34.52114191 -100.12702764 32.16114866 -101.05078125 29.80078125 C-101.33303055 29.08932449 -101.61527985 28.37786774 -101.90608215 27.64485168 C-103.28052307 24.12125988 -104.41306578 20.74176242 -105 17 C-101.86973378 16.02009678 -100.36179723 15.86047542 -97.25878906 17.05712891 C-96.27104492 17.60804199 -95.28330078 18.15895508 -94.265625 18.7265625 C-93.14575195 19.34039795 -92.02587891 19.9542334 -90.87207031 20.58666992 C-89.66469092 21.26607307 -88.45733468 21.94551738 -87.25 22.625 C-86.00451101 23.31199201 -84.75807843 23.99727589 -83.51074219 24.6809082 C-81.58976112 25.73375182 -79.66929256 26.78739504 -77.75152588 27.84608459 C-71.30651285 31.40141236 -64.78806029 34.8061862 -58.25 38.1875 C-57.23454102 38.7148877 -56.21908203 39.24227539 -55.17285156 39.78564453 C-49.80391928 42.56930156 -44.41272374 45.30266321 -39 48 C-34.92307735 41.96891276 -30.84817244 35.93646603 -26.7746582 29.90307617 C-25.38905358 27.85133107 -24.00298972 25.79989602 -22.61645508 23.7487793 C-20.62199625 20.79818076 -18.62919906 17.84646609 -16.63671875 14.89453125 C-15.70843513 13.52238213 -15.70843513 13.52238213 -14.76139832 12.12251282 C-14.1810231 11.26199814 -13.60064789 10.40148346 -13.00268555 9.51489258 C-12.23990547 8.38571159 -12.23990547 8.38571159 -11.4617157 7.23371887 C-10.40241049 5.61494305 -9.4011272 3.95771654 -8.43733215 2.28031921 C-6.02500998 -1.54681607 -4.09871557 -1.3037912 0 0 Z " fill="#FE4B4B" transform="translate(116,58)"/>
<path d="M0 0 C3.10167107 1.16549787 3.92387379 2.28565674 5.71037292 5.04904175 C6.28414169 5.92019623 6.85791046 6.79135071 7.44906616 7.68890381 C8.35245476 9.11071457 8.35245476 9.11071457 9.27409363 10.56124878 C9.90596085 11.52934479 10.53782806 12.4974408 11.18884277 13.49487305 C13.20690224 16.59387032 15.20352178 19.70604694 17.19987488 22.81906128 C18.55590119 24.90981083 19.91330697 26.99966637 21.2721405 29.08859253 C24.2624703 33.69073474 27.23929264 38.30128951 30.20455933 42.9196167 C31.29263233 44.60390888 32.40010167 46.27565146 33.51237488 47.94406128 C37.66844174 47.32655842 40.85475117 45.9246476 44.57096863 43.98703003 C45.43721863 43.53814171 45.43721863 43.53814171 46.32096863 43.08018494 C48.20066241 42.10366745 50.07532261 41.11790751 51.94987488 40.13156128 C53.2499209 39.45318399 54.55013402 38.77512686 55.85050964 38.09738159 C65.67687496 32.96297494 75.42635545 27.69108669 85.13346863 22.33468628 C95.07158955 16.89614983 95.07158955 16.89614983 98.38737488 17.25656128 C99.08862488 17.48343628 99.78987488 17.71031128 100.51237488 17.94406128 C99.08184566 26.24735041 95.78625556 34.40829713 92.19987488 42.00656128 C87.44986597 52.13393876 83.79554816 62.77859151 79.91081238 73.26046753 C78.4642652 77.16257024 76.9959444 81.05589232 75.51237488 84.94406128 C75.22475281 85.70364136 74.93713074 86.46322144 74.64079285 87.24581909 C73.73846286 89.60991402 72.81570572 91.96507063 71.88737488 94.31906128 C71.61014587 95.05157104 71.33291687 95.78408081 71.04728699 96.53878784 C69.90017503 99.39790066 68.95821843 101.57162972 66.56706238 103.56906128 C63.65863726 104.09987651 62.67851109 103.23332294 60.26237488 101.56906128 C56.06761878 98.86590931 51.80484352 96.50746423 47.32487488 94.31906128 C37.63187974 89.54665847 28.0739012 84.5230965 18.50456238 79.5085144 C15.57282054 77.97566505 12.63714701 76.45065771 9.69987488 74.92843628 C-1.03653574 69.35928697 -11.71122768 63.69479369 -22.30818176 57.86398315 C-26.66294441 55.46962323 -31.02061973 53.12255159 -35.48762512 50.94406128 C-34.92459191 47.14925811 -33.90573667 44.6443222 -31.75959778 41.47677612 C-30.90333298 40.20052872 -30.90333298 40.20052872 -30.0297699 38.89849854 C-29.41000275 37.99314362 -28.7902356 37.0877887 -28.15168762 36.15499878 C-27.51653229 35.21475861 -26.88137695 34.27451843 -26.22697449 33.30578613 C-24.88409475 31.32128564 -23.53728589 29.33943906 -22.18684387 27.3600769 C-20.1193419 24.32890876 -18.06422987 21.28963999 -16.01106262 18.24874878 C-14.70449029 16.32117766 -13.39722194 14.3940781 -12.08918762 12.46749878 C-11.47346893 11.5580954 -10.85775024 10.64869202 -10.22337341 9.71173096 C-9.35765213 8.44494003 -9.35765213 8.44494003 -8.47444153 7.15255737 C-7.96893768 6.41040985 -7.46343384 5.66826233 -6.94261169 4.90362549 C-3.24742356 -0.07302415 -3.24742356 -0.07302415 0 0 Z " fill="#BD4043" transform="translate(113.48762512207031,57.055938720703125)"/>
<path d="M0 0 C-1.43052921 8.30328913 -4.72611932 16.46423585 -8.3125 24.0625 C-13.07427349 34.21496045 -16.72090741 44.88710063 -20.63671875 55.38671875 C-21.13272812 56.71617732 -21.62881874 58.04560558 -22.125 59.375 C-22.47800171 60.32185669 -22.47800171 60.32185669 -22.83813477 61.2878418 C-25.44199966 68.23835819 -28.21294231 75.12130443 -31 82 C-34.54970244 80.81676585 -34.9581903 79.98264522 -36.95507812 76.92675781 C-37.52577026 76.06205872 -38.0964624 75.19735962 -38.68444824 74.30645752 C-39.29389282 73.36485779 -39.9033374 72.42325806 -40.53125 71.453125 C-41.16357544 70.48977234 -41.79590088 69.52641968 -42.4473877 68.53387451 C-44.47260151 65.44419573 -46.48626418 62.34716889 -48.5 59.25 C-49.85734702 57.17660794 -51.21541127 55.10368523 -52.57421875 53.03125 C-55.06872044 49.22054351 -57.56138614 45.40868457 -60.04492188 41.59082031 C-60.54439331 40.8232843 -61.04386475 40.05574829 -61.55847168 39.26495361 C-63.08358563 36.86866885 -64.54883919 34.44165383 -66 32 C-59.65275008 27.88716383 -53.10644613 24.37814453 -46.375 20.9375 C-36.87157783 16.04228914 -27.44525274 11.02817269 -18.08154297 5.87084961 C-4.66866582 -1.51045071 -4.66866582 -1.51045071 0 0 Z " fill="#7E363C" transform="translate(214,75)"/>
</svg>
